<?xml version="1.0" encoding="utf-8" standalone="no"?>
<!DOCTYPE svg PUBLIC "-//W3C//DTD SVG 1.1//EN"
  "http://www.w3.org/Graphics/SVG/1.1/DTD/svg11.dtd">
<!-- Created with matplotlib (https://matplotlib.org/) -->
<svg height="927.08pt" version="1.1" viewBox="0 0 1704.864 927.08" width="1704.864pt" xmlns="http://www.w3.org/2000/svg" xmlns:xlink="http://www.w3.org/1999/xlink">
 <defs>
  <style type="text/css">
*{stroke-linecap:butt;stroke-linejoin:round;}
  </style>
 </defs>
 <g id="figure_1">
  <g id="patch_1">
   <path d="M 0 927.08 
L 1704.864 927.08 
L 1704.864 0 
L 0 0 
z
" style="fill:#ffffff;"/>
  </g>
  <g id="axes_1">
   <g id="line2d_1">
    <path clip-path="url(#p8804c25b3b)" d="M 343.45304 148.3328 
L 1525.48004 148.3328 
" style="fill:none;stroke:#000000;stroke-linecap:square;stroke-width:2;"/>
   </g>
   <g id="line2d_2">
    <path clip-path="url(#p8804c25b3b)" d="M 343.45304 194.6868 
L 1525.48004 194.6868 
" style="fill:none;stroke:#000000;stroke-linecap:square;stroke-width:2;"/>
   </g>
   <g id="line2d_3">
    <path clip-path="url(#p8804c25b3b)" d="M 343.45304 241.0408 
L 1525.48004 241.0408 
" style="fill:none;stroke:#000000;stroke-linecap:square;stroke-width:2;"/>
   </g>
   <g id="line2d_4">
    <path clip-path="url(#p8804c25b3b)" d="M 343.45304 287.3948 
L 1525.48004 287.3948 
" style="fill:none;stroke:#000000;stroke-linecap:square;stroke-width:2;"/>
   </g>
   <g id="line2d_5">
    <path clip-path="url(#p8804c25b3b)" d="M 343.45304 333.7488 
L 1525.48004 333.7488 
" style="fill:none;stroke:#000000;stroke-linecap:square;stroke-width:2;"/>
   </g>
   <g id="line2d_6">
    <path clip-path="url(#p8804c25b3b)" d="M 343.45304 380.1028 
L 1525.48004 380.1028 
" style="fill:none;stroke:#000000;stroke-linecap:square;stroke-width:2;"/>
   </g>
   <g id="line2d_7">
    <path clip-path="url(#p8804c25b3b)" d="M 343.45304 426.4568 
L 1525.48004 426.4568 
" style="fill:none;stroke:#000000;stroke-linecap:square;stroke-width:2;"/>
   </g>
   <g id="line2d_8">
    <path clip-path="url(#p8804c25b3b)" d="M 343.45304 519.1648 
L 1525.48004 519.1648 
" style="fill:none;stroke:#000000;stroke-linecap:square;stroke-width:2;"/>
   </g>
   <g id="line2d_9">
    <path clip-path="url(#p8804c25b3b)" d="M 343.45304 565.5188 
L 1525.48004 565.5188 
" style="fill:none;stroke:#000000;stroke-linecap:square;stroke-width:2;"/>
   </g>
   <g id="line2d_10">
    <path clip-path="url(#p8804c25b3b)" d="M 343.45304 611.8728 
L 1525.48004 611.8728 
" style="fill:none;stroke:#000000;stroke-linecap:square;stroke-width:2;"/>
   </g>
   <g id="line2d_11">
    <path clip-path="url(#p8804c25b3b)" d="M 343.45304 658.2268 
L 1525.48004 658.2268 
" style="fill:none;stroke:#000000;stroke-linecap:square;stroke-width:2;"/>
   </g>
   <g id="line2d_12">
    <path clip-path="url(#p8804c25b3b)" d="M 343.45304 704.5808 
L 1525.48004 704.5808 
" style="fill:none;stroke:#000000;stroke-linecap:square;stroke-width:2;"/>
   </g>
   <g id="line2d_13">
    <path clip-path="url(#p8804c25b3b)" d="M 343.45304 750.9348 
L 1525.48004 750.9348 
" style="fill:none;stroke:#000000;stroke-linecap:square;stroke-width:2;"/>
   </g>
   <g id="line2d_14">
    <path clip-path="url(#p8804c25b3b)" d="M 343.45304 797.2888 
L 1525.48004 797.2888 
" style="fill:none;stroke:#000000;stroke-linecap:square;stroke-width:2;"/>
   </g>
   <g id="line2d_15">
    <path clip-path="url(#p8804c25b3b)" d="M 876.52404 426.4568 
L 876.52404 241.0408 
" style="fill:none;stroke:#6fa4ff;stroke-linecap:square;stroke-width:2;"/>
   </g>
   <g id="line2d_16">
    <path clip-path="url(#p8804c25b3b)" d="M 1038.76304 426.4568 
L 1038.76304 241.0408 
" style="fill:none;stroke:#bb8bff;stroke-linecap:square;stroke-width:2;"/>
   </g>
   <g id="line2d_17">
    <path clip-path="url(#p8804c25b3b)" d="M 1479.12604 426.4568 
L 1479.12604 241.0408 
" style="fill:none;stroke:#6fa4ff;stroke-linecap:square;stroke-width:2;"/>
   </g>
   <g id="line2d_18">
    <path clip-path="url(#p8804c25b3b)" d="M 1506.01136 148.3328 
L 1506.01136 426.4568 
" style="fill:none;stroke:#000000;stroke-linecap:square;stroke-width:1.5;"/>
   </g>
   <g id="line2d_19">
    <path clip-path="url(#p8804c25b3b)" d="M 1515.28216 148.3328 
L 1515.28216 426.4568 
" style="fill:none;stroke:#000000;stroke-linecap:square;stroke-width:1.5;"/>
   </g>
   <g id="line2d_20">
    <path clip-path="url(#p8804c25b3b)" d="M 310.07816 519.1648 
L 310.07816 797.2888 
" style="fill:none;stroke:#000000;stroke-linecap:square;stroke-width:1.5;"/>
   </g>
   <g id="line2d_21">
    <path clip-path="url(#p8804c25b3b)" d="M 319.34896 519.1648 
L 319.34896 797.2888 
" style="fill:none;stroke:#000000;stroke-linecap:square;stroke-width:1.5;"/>
   </g>
   <g id="patch_2">
    <path clip-path="url(#p8804c25b3b)" d="M 360.83579 395.16785 
L 511.48629 395.16785 
L 511.48629 133.26775 
L 360.83579 133.26775 
z
" style="fill:#bb8bff;stroke:#bb8bff;stroke-linejoin:miter;stroke-width:1.5;"/>
   </g>
   <g id="patch_3">
    <path clip-path="url(#p8804c25b3b)" d="M 569.42879 395.16785 
L 720.07929 395.16785 
L 720.07929 225.97575 
L 569.42879 225.97575 
z
" style="fill:#bb8bff;stroke:#bb8bff;stroke-linejoin:miter;stroke-width:1.5;"/>
   </g>
   <g id="patch_4">
    <path clip-path="url(#p8804c25b3b)" d="M 769.330415 395.16785 
L 844.655665 395.16785 
L 844.655665 225.97575 
L 769.330415 225.97575 
z
" style="fill:#bb8bff;stroke:#bb8bff;stroke-linejoin:miter;stroke-width:1.5;"/>
   </g>
   <g id="patch_5">
    <path clip-path="url(#p8804c25b3b)" d="M 876.52404 245.560315 
C 877.722629 245.560315 878.872289 245.08411 879.71982 244.23658 
C 880.56735 243.389049 881.043555 242.239389 881.043555 241.0408 
C 881.043555 239.842211 880.56735 238.692551 879.71982 237.84502 
C 878.872289 236.99749 877.722629 236.521285 876.52404 236.521285 
C 875.325451 236.521285 874.175791 236.99749 873.32826 237.84502 
C 872.48073 238.692551 872.004525 239.842211 872.004525 241.0408 
C 872.004525 242.239389 872.48073 243.389049 873.32826 244.23658 
C 874.175791 245.08411 875.325451 245.560315 876.52404 245.560315 
z
" style="fill:#6fa4ff;stroke:#6fa4ff;stroke-linejoin:miter;stroke-width:1.5;"/>
   </g>
   <g id="patch_6">
    <path clip-path="url(#p8804c25b3b)" d="M 876.52404 437.002335 
C 879.320749 437.002335 882.003288 435.891191 883.980859 433.913619 
C 885.958431 431.936048 887.069575 429.253509 887.069575 426.4568 
C 887.069575 423.660091 885.958431 420.977552 883.980859 418.999981 
C 882.003288 417.022409 879.320749 415.911265 876.52404 415.911265 
C 873.727331 415.911265 871.044792 417.022409 869.067221 418.999981 
C 867.089649 420.977552 865.978505 423.660091 865.978505 426.4568 
C 865.978505 429.253509 867.089649 431.936048 869.067221 433.913619 
C 871.044792 435.891191 873.727331 437.002335 876.52404 437.002335 
z
" style="fill:#6fa4ff;stroke:#6fa4ff;stroke-linejoin:miter;stroke-width:2;"/>
   </g>
   <g id="patch_7">
    <path clip-path="url(#p8804c25b3b)" d="M 907.81299 395.16785 
L 937.94309 395.16785 
L 937.94309 225.97575 
L 907.81299 225.97575 
z
" style="fill:#bb8bff;stroke:#bb8bff;stroke-linejoin:miter;stroke-width:1.5;"/>
   </g>
   <g id="patch_8">
    <path clip-path="url(#p8804c25b3b)" d="M 1038.76304 430.976315 
C 1039.961629 430.976315 1041.111289 430.50011 1041.95882 429.65258 
C 1042.80635 428.805049 1043.282555 427.655389 1043.282555 426.4568 
C 1043.282555 425.258211 1042.80635 424.108551 1041.95882 423.26102 
C 1041.111289 422.41349 1039.961629 421.937285 1038.76304 421.937285 
C 1037.564451 421.937285 1036.414791 422.41349 1035.56726 423.26102 
C 1034.71973 424.108551 1034.243525 425.258211 1034.243525 426.4568 
C 1034.243525 427.655389 1034.71973 428.805049 1035.56726 429.65258 
C 1036.414791 430.50011 1037.564451 430.976315 1038.76304 430.976315 
z
" style="fill:#bb8bff;stroke:#bb8bff;stroke-linejoin:miter;stroke-width:1.5;"/>
   </g>
   <g id="patch_9">
    <path clip-path="url(#p8804c25b3b)" d="M 963.43779 395.16785 
L 1114.08829 395.16785 
L 1114.08829 225.97575 
L 963.43779 225.97575 
z
" style="fill:#bb8bff;stroke:#bb8bff;stroke-linejoin:miter;stroke-width:1.5;"/>
   </g>
   <g id="patch_10">
    <path clip-path="url(#p8804c25b3b)" d="M 1148.85379 395.16785 
L 1299.50429 395.16785 
L 1299.50429 133.26775 
L 1148.85379 133.26775 
z
" style="fill:#bb8bff;stroke:#bb8bff;stroke-linejoin:miter;stroke-width:1.5;"/>
   </g>
   <g id="patch_11">
    <path clip-path="url(#p8804c25b3b)" d="M 1325.578415 395.16785 
L 1400.903665 395.16785 
L 1400.903665 225.97575 
L 1325.578415 225.97575 
z
" style="fill:#bb8bff;stroke:#bb8bff;stroke-linejoin:miter;stroke-width:1.5;"/>
   </g>
   <g id="patch_12">
    <path clip-path="url(#p8804c25b3b)" d="M 1417.70699 256.10585 
L 1447.83709 256.10585 
L 1447.83709 225.97575 
L 1417.70699 225.97575 
z
" style="fill:#05bab6;"/>
   </g>
   <g id="patch_13">
    <path clip-path="url(#p8804c25b3b)" d="M 1479.12604 245.560315 
C 1480.324629 245.560315 1481.474289 245.08411 1482.32182 244.23658 
C 1483.16935 243.389049 1483.645555 242.239389 1483.645555 241.0408 
C 1483.645555 239.842211 1483.16935 238.692551 1482.32182 237.84502 
C 1481.474289 236.99749 1480.324629 236.521285 1479.12604 236.521285 
C 1477.927451 236.521285 1476.777791 236.99749 1475.93026 237.84502 
C 1475.08273 238.692551 1474.606525 239.842211 1474.606525 241.0408 
C 1474.606525 242.239389 1475.08273 243.389049 1475.93026 244.23658 
C 1476.777791 245.08411 1477.927451 245.560315 1479.12604 245.560315 
z
" style="fill:#6fa4ff;stroke:#6fa4ff;stroke-linejoin:miter;stroke-width:1.5;"/>
   </g>
   <g id="patch_14">
    <path clip-path="url(#p8804c25b3b)" d="M 1479.12604 437.002335 
C 1481.922749 437.002335 1484.605288 435.891191 1486.582859 433.913619 
C 1488.560431 431.936048 1489.671575 429.253509 1489.671575 426.4568 
C 1489.671575 423.660091 1488.560431 420.977552 1486.582859 418.999981 
C 1484.605288 417.022409 1481.922749 415.911265 1479.12604 415.911265 
C 1476.329331 415.911265 1473.646792 417.022409 1471.669221 418.999981 
C 1469.691649 420.977552 1468.580505 423.660091 1468.580505 426.4568 
C 1468.580505 429.253509 1469.691649 431.936048 1471.669221 433.913619 
C 1473.646792 435.891191 1476.329331 437.002335 1479.12604 437.002335 
z
" style="fill:#6fa4ff;stroke:#6fa4ff;stroke-linejoin:miter;stroke-width:2;"/>
   </g>
   <g id="patch_15">
    <path clip-path="url(#p8804c25b3b)" d="M 351.56499 626.93785 
L 381.69509 626.93785 
L 381.69509 596.80775 
L 351.56499 596.80775 
z
" style="fill:#05bab6;"/>
   </g>
   <g id="patch_16">
    <path clip-path="url(#p8804c25b3b)" d="M 397.91899 765.99985 
L 428.04909 765.99985 
L 428.04909 596.80775 
L 397.91899 596.80775 
z
" style="fill:#bb8bff;stroke:#bb8bff;stroke-linejoin:miter;stroke-width:1.5;"/>
   </g>
   <g id="patch_17">
    <path clip-path="url(#p8804c25b3b)" d="M 453.54379 765.99985 
L 604.19429 765.99985 
L 604.19429 504.09975 
L 453.54379 504.09975 
z
" style="fill:#bb8bff;stroke:#bb8bff;stroke-linejoin:miter;stroke-width:1.5;"/>
   </g>
   <g id="line2d_22">
    <path clip-path="url(#p8804c25b3b)" d="M 876.52404 432.48282 
L 876.52404 420.43078 
" style="fill:none;stroke:#ffffff;stroke-linecap:square;stroke-width:2;"/>
   </g>
   <g id="line2d_23">
    <path clip-path="url(#p8804c25b3b)" d="M 870.49802 426.4568 
L 882.55006 426.4568 
" style="fill:none;stroke:#ffffff;stroke-linecap:square;stroke-width:2;"/>
   </g>
   <g id="line2d_24">
    <path clip-path="url(#p8804c25b3b)" d="M 1479.12604 432.48282 
L 1479.12604 420.43078 
" style="fill:none;stroke:#ffffff;stroke-linecap:square;stroke-width:2;"/>
   </g>
   <g id="line2d_25">
    <path clip-path="url(#p8804c25b3b)" d="M 1473.10002 426.4568 
L 1485.15206 426.4568 
" style="fill:none;stroke:#ffffff;stroke-linecap:square;stroke-width:2;"/>
   </g>
   <g id="text_1">
    <g clip-path="url(#p8804c25b3b)">
     <!-- 0 -->
     <defs>
      <path d="M 31.78125 66.40625 
Q 24.171875 66.40625 20.328125 58.90625 
Q 16.5 51.421875 16.5 36.375 
Q 16.5 21.390625 20.328125 13.890625 
Q 24.171875 6.390625 31.78125 6.390625 
Q 39.453125 6.390625 43.28125 13.890625 
Q 47.125 21.390625 47.125 36.375 
Q 47.125 51.421875 43.28125 58.90625 
Q 39.453125 66.40625 31.78125 66.40625 
z
M 31.78125 74.21875 
Q 44.046875 74.21875 50.515625 64.515625 
Q 56.984375 54.828125 56.984375 36.375 
Q 56.984375 17.96875 50.515625 8.265625 
Q 44.046875 -1.421875 31.78125 -1.421875 
Q 19.53125 -1.421875 13.0625 8.265625 
Q 6.59375 17.96875 6.59375 36.375 
Q 6.59375 54.828125 13.0625 64.515625 
Q 19.53125 74.21875 31.78125 74.21875 
z
" id="DejaVuSans-48"/>
     </defs>
     <g transform="translate(368.368315 151.919988)scale(0.13 -0.13)">
      <use xlink:href="#DejaVuSans-48"/>
     </g>
    </g>
   </g>
   <g id="text_2">
    <g clip-path="url(#p8804c25b3b)">
     <!-- 1 -->
     <defs>
      <path d="M 12.40625 8.296875 
L 28.515625 8.296875 
L 28.515625 63.921875 
L 10.984375 60.40625 
L 10.984375 69.390625 
L 28.421875 72.90625 
L 38.28125 72.90625 
L 38.28125 8.296875 
L 54.390625 8.296875 
L 54.390625 0 
L 12.40625 0 
z
" id="DejaVuSans-49"/>
     </defs>
     <g transform="translate(368.368315 198.273988)scale(0.13 -0.13)">
      <use xlink:href="#DejaVuSans-49"/>
     </g>
    </g>
   </g>
   <g id="text_3">
    <g clip-path="url(#p8804c25b3b)">
     <!-- 2 -->
     <defs>
      <path d="M 19.1875 8.296875 
L 53.609375 8.296875 
L 53.609375 0 
L 7.328125 0 
L 7.328125 8.296875 
Q 12.9375 14.109375 22.625 23.890625 
Q 32.328125 33.6875 34.8125 36.53125 
Q 39.546875 41.84375 41.421875 45.53125 
Q 43.3125 49.21875 43.3125 52.78125 
Q 43.3125 58.59375 39.234375 62.25 
Q 35.15625 65.921875 28.609375 65.921875 
Q 23.96875 65.921875 18.8125 64.3125 
Q 13.671875 62.703125 7.8125 59.421875 
L 7.8125 69.390625 
Q 13.765625 71.78125 18.9375 73 
Q 24.125 74.21875 28.421875 74.21875 
Q 39.75 74.21875 46.484375 68.546875 
Q 53.21875 62.890625 53.21875 53.421875 
Q 53.21875 48.921875 51.53125 44.890625 
Q 49.859375 40.875 45.40625 35.40625 
Q 44.1875 33.984375 37.640625 27.21875 
Q 31.109375 20.453125 19.1875 8.296875 
z
" id="DejaVuSans-50"/>
     </defs>
     <g transform="translate(368.368315 244.627988)scale(0.13 -0.13)">
      <use xlink:href="#DejaVuSans-50"/>
     </g>
    </g>
   </g>
   <g id="text_4">
    <g clip-path="url(#p8804c25b3b)">
     <!-- 3 -->
     <defs>
      <path d="M 40.578125 39.3125 
Q 47.65625 37.796875 51.625 33 
Q 55.609375 28.21875 55.609375 21.1875 
Q 55.609375 10.40625 48.1875 4.484375 
Q 40.765625 -1.421875 27.09375 -1.421875 
Q 22.515625 -1.421875 17.65625 -0.515625 
Q 12.796875 0.390625 7.625 2.203125 
L 7.625 11.71875 
Q 11.71875 9.328125 16.59375 8.109375 
Q 21.484375 6.890625 26.8125 6.890625 
Q 36.078125 6.890625 40.9375 10.546875 
Q 45.796875 14.203125 45.796875 21.1875 
Q 45.796875 27.640625 41.28125 31.265625 
Q 36.765625 34.90625 28.71875 34.90625 
L 20.21875 34.90625 
L 20.21875 43.015625 
L 29.109375 43.015625 
Q 36.375 43.015625 40.234375 45.921875 
Q 44.09375 48.828125 44.09375 54.296875 
Q 44.09375 59.90625 40.109375 62.90625 
Q 36.140625 65.921875 28.71875 65.921875 
Q 24.65625 65.921875 20.015625 65.03125 
Q 15.375 64.15625 9.8125 62.3125 
L 9.8125 71.09375 
Q 15.4375 72.65625 20.34375 73.4375 
Q 25.25 74.21875 29.59375 74.21875 
Q 40.828125 74.21875 47.359375 69.109375 
Q 53.90625 64.015625 53.90625 55.328125 
Q 53.90625 49.265625 50.4375 45.09375 
Q 46.96875 40.921875 40.578125 39.3125 
z
" id="DejaVuSans-51"/>
     </defs>
     <g transform="translate(368.368315 290.981988)scale(0.13 -0.13)">
      <use xlink:href="#DejaVuSans-51"/>
     </g>
    </g>
   </g>
   <g id="text_5">
    <g clip-path="url(#p8804c25b3b)">
     <!-- 4 -->
     <defs>
      <path d="M 37.796875 64.3125 
L 12.890625 25.390625 
L 37.796875 25.390625 
z
M 35.203125 72.90625 
L 47.609375 72.90625 
L 47.609375 25.390625 
L 58.015625 25.390625 
L 58.015625 17.1875 
L 47.609375 17.1875 
L 47.609375 0 
L 37.796875 0 
L 37.796875 17.1875 
L 4.890625 17.1875 
L 4.890625 26.703125 
z
" id="DejaVuSans-52"/>
     </defs>
     <g transform="translate(368.368315 337.335987)scale(0.13 -0.13)">
      <use xlink:href="#DejaVuSans-52"/>
     </g>
    </g>
   </g>
   <g id="text_6">
    <g clip-path="url(#p8804c25b3b)">
     <!-- 5 -->
     <defs>
      <path d="M 10.796875 72.90625 
L 49.515625 72.90625 
L 49.515625 64.59375 
L 19.828125 64.59375 
L 19.828125 46.734375 
Q 21.96875 47.46875 24.109375 47.828125 
Q 26.265625 48.1875 28.421875 48.1875 
Q 40.625 48.1875 47.75 41.5 
Q 54.890625 34.8125 54.890625 23.390625 
Q 54.890625 11.625 47.5625 5.09375 
Q 40.234375 -1.421875 26.90625 -1.421875 
Q 22.3125 -1.421875 17.546875 -0.640625 
Q 12.796875 0.140625 7.71875 1.703125 
L 7.71875 11.625 
Q 12.109375 9.234375 16.796875 8.0625 
Q 21.484375 6.890625 26.703125 6.890625 
Q 35.15625 6.890625 40.078125 11.328125 
Q 45.015625 15.765625 45.015625 23.390625 
Q 45.015625 31 40.078125 35.4375 
Q 35.15625 39.890625 26.703125 39.890625 
Q 22.75 39.890625 18.8125 39.015625 
Q 14.890625 38.140625 10.796875 36.28125 
z
" id="DejaVuSans-53"/>
     </defs>
     <g transform="translate(368.368315 383.689988)scale(0.13 -0.13)">
      <use xlink:href="#DejaVuSans-53"/>
     </g>
    </g>
   </g>
   <g id="text_7">
    <g clip-path="url(#p8804c25b3b)">
     <!-- ccPhiAdd3 -->
     <defs>
      <path d="M 48.78125 52.59375 
L 48.78125 44.1875 
Q 44.96875 46.296875 41.140625 47.34375 
Q 37.3125 48.390625 33.40625 48.390625 
Q 24.65625 48.390625 19.8125 42.84375 
Q 14.984375 37.3125 14.984375 27.296875 
Q 14.984375 17.28125 19.8125 11.734375 
Q 24.65625 6.203125 33.40625 6.203125 
Q 37.3125 6.203125 41.140625 7.25 
Q 44.96875 8.296875 48.78125 10.40625 
L 48.78125 2.09375 
Q 45.015625 0.34375 40.984375 -0.53125 
Q 36.96875 -1.421875 32.421875 -1.421875 
Q 20.0625 -1.421875 12.78125 6.34375 
Q 5.515625 14.109375 5.515625 27.296875 
Q 5.515625 40.671875 12.859375 48.328125 
Q 20.21875 56 33.015625 56 
Q 37.15625 56 41.109375 55.140625 
Q 45.0625 54.296875 48.78125 52.59375 
z
" id="DejaVuSans-99"/>
      <path d="M 19.671875 64.796875 
L 19.671875 37.40625 
L 32.078125 37.40625 
Q 38.96875 37.40625 42.71875 40.96875 
Q 46.484375 44.53125 46.484375 51.125 
Q 46.484375 57.671875 42.71875 61.234375 
Q 38.96875 64.796875 32.078125 64.796875 
z
M 9.8125 72.90625 
L 32.078125 72.90625 
Q 44.34375 72.90625 50.609375 67.359375 
Q 56.890625 61.8125 56.890625 51.125 
Q 56.890625 40.328125 50.609375 34.8125 
Q 44.34375 29.296875 32.078125 29.296875 
L 19.671875 29.296875 
L 19.671875 0 
L 9.8125 0 
z
" id="DejaVuSans-80"/>
      <path d="M 54.890625 33.015625 
L 54.890625 0 
L 45.90625 0 
L 45.90625 32.71875 
Q 45.90625 40.484375 42.875 44.328125 
Q 39.84375 48.1875 33.796875 48.1875 
Q 26.515625 48.1875 22.3125 43.546875 
Q 18.109375 38.921875 18.109375 30.90625 
L 18.109375 0 
L 9.078125 0 
L 9.078125 75.984375 
L 18.109375 75.984375 
L 18.109375 46.1875 
Q 21.34375 51.125 25.703125 53.5625 
Q 30.078125 56 35.796875 56 
Q 45.21875 56 50.046875 50.171875 
Q 54.890625 44.34375 54.890625 33.015625 
z
" id="DejaVuSans-104"/>
      <path d="M 9.421875 54.6875 
L 18.40625 54.6875 
L 18.40625 0 
L 9.421875 0 
z
M 9.421875 75.984375 
L 18.40625 75.984375 
L 18.40625 64.59375 
L 9.421875 64.59375 
z
" id="DejaVuSans-105"/>
      <path d="M 34.1875 63.1875 
L 20.796875 26.90625 
L 47.609375 26.90625 
z
M 28.609375 72.90625 
L 39.796875 72.90625 
L 67.578125 0 
L 57.328125 0 
L 50.6875 18.703125 
L 17.828125 18.703125 
L 11.1875 0 
L 0.78125 0 
z
" id="DejaVuSans-65"/>
      <path d="M 45.40625 46.390625 
L 45.40625 75.984375 
L 54.390625 75.984375 
L 54.390625 0 
L 45.40625 0 
L 45.40625 8.203125 
Q 42.578125 3.328125 38.25 0.953125 
Q 33.9375 -1.421875 27.875 -1.421875 
Q 17.96875 -1.421875 11.734375 6.484375 
Q 5.515625 14.40625 5.515625 27.296875 
Q 5.515625 40.1875 11.734375 48.09375 
Q 17.96875 56 27.875 56 
Q 33.9375 56 38.25 53.625 
Q 42.578125 51.265625 45.40625 46.390625 
z
M 14.796875 27.296875 
Q 14.796875 17.390625 18.875 11.75 
Q 22.953125 6.109375 30.078125 6.109375 
Q 37.203125 6.109375 41.296875 11.75 
Q 45.40625 17.390625 45.40625 27.296875 
Q 45.40625 37.203125 41.296875 42.84375 
Q 37.203125 48.484375 30.078125 48.484375 
Q 22.953125 48.484375 18.875 42.84375 
Q 14.796875 37.203125 14.796875 27.296875 
z
" id="DejaVuSans-100"/>
     </defs>
     <g transform="translate(402.334634 267.804988)scale(0.13 -0.13)">
      <use xlink:href="#DejaVuSans-99"/>
      <use x="54.980469" xlink:href="#DejaVuSans-99"/>
      <use x="109.960938" xlink:href="#DejaVuSans-80"/>
      <use x="170.263672" xlink:href="#DejaVuSans-104"/>
      <use x="233.642578" xlink:href="#DejaVuSans-105"/>
      <use x="261.425781" xlink:href="#DejaVuSans-65"/>
      <use x="329.818359" xlink:href="#DejaVuSans-100"/>
      <use x="393.294922" xlink:href="#DejaVuSans-100"/>
      <use x="456.771484" xlink:href="#DejaVuSans-51"/>
     </g>
    </g>
   </g>
   <g id="text_8">
    <g clip-path="url(#p8804c25b3b)">
     <!-- 0 -->
     <g transform="translate(576.961315 244.627988)scale(0.13 -0.13)">
      <use xlink:href="#DejaVuSans-48"/>
     </g>
    </g>
   </g>
   <g id="text_9">
    <g clip-path="url(#p8804c25b3b)">
     <!-- 1 -->
     <g transform="translate(576.961315 290.981988)scale(0.13 -0.13)">
      <use xlink:href="#DejaVuSans-49"/>
     </g>
    </g>
   </g>
   <g id="text_10">
    <g clip-path="url(#p8804c25b3b)">
     <!-- 2 -->
     <g transform="translate(576.961315 337.335987)scale(0.13 -0.13)">
      <use xlink:href="#DejaVuSans-50"/>
     </g>
    </g>
   </g>
   <g id="text_11">
    <g clip-path="url(#p8804c25b3b)">
     <!-- 3 -->
     <g transform="translate(576.961315 383.689988)scale(0.13 -0.13)">
      <use xlink:href="#DejaVuSans-51"/>
     </g>
    </g>
   </g>
   <g id="text_12">
    <g clip-path="url(#p8804c25b3b)">
     <!-- circuit129_dg -->
     <defs>
      <path d="M 41.109375 46.296875 
Q 39.59375 47.171875 37.8125 47.578125 
Q 36.03125 48 33.890625 48 
Q 26.265625 48 22.1875 43.046875 
Q 18.109375 38.09375 18.109375 28.8125 
L 18.109375 0 
L 9.078125 0 
L 9.078125 54.6875 
L 18.109375 54.6875 
L 18.109375 46.1875 
Q 20.953125 51.171875 25.484375 53.578125 
Q 30.03125 56 36.53125 56 
Q 37.453125 56 38.578125 55.875 
Q 39.703125 55.765625 41.0625 55.515625 
z
" id="DejaVuSans-114"/>
      <path d="M 8.5 21.578125 
L 8.5 54.6875 
L 17.484375 54.6875 
L 17.484375 21.921875 
Q 17.484375 14.15625 20.5 10.265625 
Q 23.53125 6.390625 29.59375 6.390625 
Q 36.859375 6.390625 41.078125 11.03125 
Q 45.3125 15.671875 45.3125 23.6875 
L 45.3125 54.6875 
L 54.296875 54.6875 
L 54.296875 0 
L 45.3125 0 
L 45.3125 8.40625 
Q 42.046875 3.421875 37.71875 1 
Q 33.40625 -1.421875 27.6875 -1.421875 
Q 18.265625 -1.421875 13.375 4.4375 
Q 8.5 10.296875 8.5 21.578125 
z
M 31.109375 56 
z
" id="DejaVuSans-117"/>
      <path d="M 18.3125 70.21875 
L 18.3125 54.6875 
L 36.8125 54.6875 
L 36.8125 47.703125 
L 18.3125 47.703125 
L 18.3125 18.015625 
Q 18.3125 11.328125 20.140625 9.421875 
Q 21.96875 7.515625 27.59375 7.515625 
L 36.8125 7.515625 
L 36.8125 0 
L 27.59375 0 
Q 17.1875 0 13.234375 3.875 
Q 9.28125 7.765625 9.28125 18.015625 
L 9.28125 47.703125 
L 2.6875 47.703125 
L 2.6875 54.6875 
L 9.28125 54.6875 
L 9.28125 70.21875 
z
" id="DejaVuSans-116"/>
      <path d="M 10.984375 1.515625 
L 10.984375 10.5 
Q 14.703125 8.734375 18.5 7.8125 
Q 22.3125 6.890625 25.984375 6.890625 
Q 35.75 6.890625 40.890625 13.453125 
Q 46.046875 20.015625 46.78125 33.40625 
Q 43.953125 29.203125 39.59375 26.953125 
Q 35.25 24.703125 29.984375 24.703125 
Q 19.046875 24.703125 12.671875 31.3125 
Q 6.296875 37.9375 6.296875 49.421875 
Q 6.296875 60.640625 12.9375 67.421875 
Q 19.578125 74.21875 30.609375 74.21875 
Q 43.265625 74.21875 49.921875 64.515625 
Q 56.59375 54.828125 56.59375 36.375 
Q 56.59375 19.140625 48.40625 8.859375 
Q 40.234375 -1.421875 26.421875 -1.421875 
Q 22.703125 -1.421875 18.890625 -0.6875 
Q 15.09375 0.046875 10.984375 1.515625 
z
M 30.609375 32.421875 
Q 37.25 32.421875 41.125 36.953125 
Q 45.015625 41.5 45.015625 49.421875 
Q 45.015625 57.28125 41.125 61.84375 
Q 37.25 66.40625 30.609375 66.40625 
Q 23.96875 66.40625 20.09375 61.84375 
Q 16.21875 57.28125 16.21875 49.421875 
Q 16.21875 41.5 20.09375 36.953125 
Q 23.96875 32.421875 30.609375 32.421875 
z
" id="DejaVuSans-57"/>
      <path d="M 50.984375 -16.609375 
L 50.984375 -23.578125 
L -0.984375 -23.578125 
L -0.984375 -16.609375 
z
" id="DejaVuSans-95"/>
      <path d="M 45.40625 27.984375 
Q 45.40625 37.75 41.375 43.109375 
Q 37.359375 48.484375 30.078125 48.484375 
Q 22.859375 48.484375 18.828125 43.109375 
Q 14.796875 37.75 14.796875 27.984375 
Q 14.796875 18.265625 18.828125 12.890625 
Q 22.859375 7.515625 30.078125 7.515625 
Q 37.359375 7.515625 41.375 12.890625 
Q 45.40625 18.265625 45.40625 27.984375 
z
M 54.390625 6.78125 
Q 54.390625 -7.171875 48.1875 -13.984375 
Q 42 -20.796875 29.203125 -20.796875 
Q 24.46875 -20.796875 20.265625 -20.09375 
Q 16.0625 -19.390625 12.109375 -17.921875 
L 12.109375 -9.1875 
Q 16.0625 -11.328125 19.921875 -12.34375 
Q 23.78125 -13.375 27.78125 -13.375 
Q 36.625 -13.375 41.015625 -8.765625 
Q 45.40625 -4.15625 45.40625 5.171875 
L 45.40625 9.625 
Q 42.625 4.78125 38.28125 2.390625 
Q 33.9375 0 27.875 0 
Q 17.828125 0 11.671875 7.65625 
Q 5.515625 15.328125 5.515625 27.984375 
Q 5.515625 40.671875 11.671875 48.328125 
Q 17.828125 56 27.875 56 
Q 33.9375 56 38.28125 53.609375 
Q 42.625 51.21875 45.40625 46.390625 
L 45.40625 54.6875 
L 54.390625 54.6875 
z
" id="DejaVuSans-103"/>
     </defs>
     <g transform="translate(600.747009 313.978206)scale(0.13 -0.13)">
      <use xlink:href="#DejaVuSans-99"/>
      <use x="54.980469" xlink:href="#DejaVuSans-105"/>
      <use x="82.763672" xlink:href="#DejaVuSans-114"/>
      <use x="123.845703" xlink:href="#DejaVuSans-99"/>
      <use x="178.826172" xlink:href="#DejaVuSans-117"/>
      <use x="242.205078" xlink:href="#DejaVuSans-105"/>
      <use x="269.988281" xlink:href="#DejaVuSans-116"/>
      <use x="309.197266" xlink:href="#DejaVuSans-49"/>
      <use x="372.820312" xlink:href="#DejaVuSans-50"/>
      <use x="436.443359" xlink:href="#DejaVuSans-57"/>
      <use x="500.066406" xlink:href="#DejaVuSans-95"/>
      <use x="550.066406" xlink:href="#DejaVuSans-100"/>
      <use x="613.542969" xlink:href="#DejaVuSans-103"/>
     </g>
    </g>
   </g>
   <g id="text_13">
    <g clip-path="url(#p8804c25b3b)">
     <!-- 0 -->
     <g transform="translate(773.096677 244.627988)scale(0.13 -0.13)">
      <use xlink:href="#DejaVuSans-48"/>
     </g>
    </g>
   </g>
   <g id="text_14">
    <g clip-path="url(#p8804c25b3b)">
     <!-- 1 -->
     <g transform="translate(773.096677 290.981988)scale(0.13 -0.13)">
      <use xlink:href="#DejaVuSans-49"/>
     </g>
    </g>
   </g>
   <g id="text_15">
    <g clip-path="url(#p8804c25b3b)">
     <!-- 2 -->
     <g transform="translate(773.096677 337.335987)scale(0.13 -0.13)">
      <use xlink:href="#DejaVuSans-50"/>
     </g>
    </g>
   </g>
   <g id="text_16">
    <g clip-path="url(#p8804c25b3b)">
     <!-- 3 -->
     <g transform="translate(773.096677 383.689988)scale(0.13 -0.13)">
      <use xlink:href="#DejaVuSans-51"/>
     </g>
    </g>
   </g>
   <g id="text_17">
    <g clip-path="url(#p8804c25b3b)">
     <!-- QFT_dg -->
     <defs>
      <path d="M 39.40625 66.21875 
Q 28.65625 66.21875 22.328125 58.203125 
Q 16.015625 50.203125 16.015625 36.375 
Q 16.015625 22.609375 22.328125 14.59375 
Q 28.65625 6.59375 39.40625 6.59375 
Q 50.140625 6.59375 56.421875 14.59375 
Q 62.703125 22.609375 62.703125 36.375 
Q 62.703125 50.203125 56.421875 58.203125 
Q 50.140625 66.21875 39.40625 66.21875 
z
M 53.21875 1.3125 
L 66.21875 -12.890625 
L 54.296875 -12.890625 
L 43.5 -1.21875 
Q 41.890625 -1.3125 41.03125 -1.359375 
Q 40.1875 -1.421875 39.40625 -1.421875 
Q 24.03125 -1.421875 14.8125 8.859375 
Q 5.609375 19.140625 5.609375 36.375 
Q 5.609375 53.65625 14.8125 63.9375 
Q 24.03125 74.21875 39.40625 74.21875 
Q 54.734375 74.21875 63.90625 63.9375 
Q 73.09375 53.65625 73.09375 36.375 
Q 73.09375 23.6875 67.984375 14.640625 
Q 62.890625 5.609375 53.21875 1.3125 
z
" id="DejaVuSans-81"/>
      <path d="M 9.8125 72.90625 
L 51.703125 72.90625 
L 51.703125 64.59375 
L 19.671875 64.59375 
L 19.671875 43.109375 
L 48.578125 43.109375 
L 48.578125 34.8125 
L 19.671875 34.8125 
L 19.671875 0 
L 9.8125 0 
z
" id="DejaVuSans-70"/>
      <path d="M -0.296875 72.90625 
L 61.375 72.90625 
L 61.375 64.59375 
L 35.5 64.59375 
L 35.5 0 
L 25.59375 0 
L 25.59375 64.59375 
L -0.296875 64.59375 
z
" id="DejaVuSans-84"/>
     </defs>
     <g transform="translate(782.665774 313.978206)scale(0.13 -0.13)">
      <use xlink:href="#DejaVuSans-81"/>
      <use x="78.710938" xlink:href="#DejaVuSans-70"/>
      <use x="136.214844" xlink:href="#DejaVuSans-84"/>
      <use x="197.298828" xlink:href="#DejaVuSans-95"/>
      <use x="247.298828" xlink:href="#DejaVuSans-100"/>
      <use x="310.775391" xlink:href="#DejaVuSans-103"/>
     </g>
    </g>
   </g>
   <g id="text_18">
    <g clip-path="url(#p8804c25b3b)">
     <!-- 0 -->
     <g transform="translate(909.319495 244.627988)scale(0.13 -0.13)">
      <use xlink:href="#DejaVuSans-48"/>
     </g>
    </g>
   </g>
   <g id="text_19">
    <g clip-path="url(#p8804c25b3b)">
     <!-- 1 -->
     <g transform="translate(909.319495 290.981988)scale(0.13 -0.13)">
      <use xlink:href="#DejaVuSans-49"/>
     </g>
    </g>
   </g>
   <g id="text_20">
    <g clip-path="url(#p8804c25b3b)">
     <!-- 2 -->
     <g transform="translate(909.319495 337.335987)scale(0.13 -0.13)">
      <use xlink:href="#DejaVuSans-50"/>
     </g>
    </g>
   </g>
   <g id="text_21">
    <g clip-path="url(#p8804c25b3b)">
     <!-- 3 -->
     <g transform="translate(909.319495 383.689988)scale(0.13 -0.13)">
      <use xlink:href="#DejaVuSans-51"/>
     </g>
    </g>
   </g>
   <g id="text_22">
    <g clip-path="url(#p8804c25b3b)">
     <!-- QFT -->
     <g transform="translate(910.053743 314.158987)scale(0.13 -0.13)">
      <use xlink:href="#DejaVuSans-81"/>
      <use x="78.710938" xlink:href="#DejaVuSans-70"/>
      <use x="136.214844" xlink:href="#DejaVuSans-84"/>
     </g>
    </g>
   </g>
   <g id="text_23">
    <g clip-path="url(#p8804c25b3b)">
     <!-- 0 -->
     <g transform="translate(970.970315 244.627988)scale(0.13 -0.13)">
      <use xlink:href="#DejaVuSans-48"/>
     </g>
    </g>
   </g>
   <g id="text_24">
    <g clip-path="url(#p8804c25b3b)">
     <!-- 1 -->
     <g transform="translate(970.970315 290.981988)scale(0.13 -0.13)">
      <use xlink:href="#DejaVuSans-49"/>
     </g>
    </g>
   </g>
   <g id="text_25">
    <g clip-path="url(#p8804c25b3b)">
     <!-- 2 -->
     <g transform="translate(970.970315 337.335987)scale(0.13 -0.13)">
      <use xlink:href="#DejaVuSans-50"/>
     </g>
    </g>
   </g>
   <g id="text_26">
    <g clip-path="url(#p8804c25b3b)">
     <!-- 3 -->
     <g transform="translate(970.970315 383.689988)scale(0.13 -0.13)">
      <use xlink:href="#DejaVuSans-51"/>
     </g>
    </g>
   </g>
   <g id="text_27">
    <g clip-path="url(#p8804c25b3b)">
     <!-- circuit129 -->
     <g transform="translate(1006.258978 314.158987)scale(0.13 -0.13)">
      <use xlink:href="#DejaVuSans-99"/>
      <use x="54.980469" xlink:href="#DejaVuSans-105"/>
      <use x="82.763672" xlink:href="#DejaVuSans-114"/>
      <use x="123.845703" xlink:href="#DejaVuSans-99"/>
      <use x="178.826172" xlink:href="#DejaVuSans-117"/>
      <use x="242.205078" xlink:href="#DejaVuSans-105"/>
      <use x="269.988281" xlink:href="#DejaVuSans-116"/>
      <use x="309.197266" xlink:href="#DejaVuSans-49"/>
      <use x="372.820312" xlink:href="#DejaVuSans-50"/>
      <use x="436.443359" xlink:href="#DejaVuSans-57"/>
     </g>
    </g>
   </g>
   <g id="text_28">
    <g clip-path="url(#p8804c25b3b)">
     <!-- 0 -->
     <g transform="translate(1156.386315 151.919988)scale(0.13 -0.13)">
      <use xlink:href="#DejaVuSans-48"/>
     </g>
    </g>
   </g>
   <g id="text_29">
    <g clip-path="url(#p8804c25b3b)">
     <!-- 1 -->
     <g transform="translate(1156.386315 198.273988)scale(0.13 -0.13)">
      <use xlink:href="#DejaVuSans-49"/>
     </g>
    </g>
   </g>
   <g id="text_30">
    <g clip-path="url(#p8804c25b3b)">
     <!-- 2 -->
     <g transform="translate(1156.386315 244.627988)scale(0.13 -0.13)">
      <use xlink:href="#DejaVuSans-50"/>
     </g>
    </g>
   </g>
   <g id="text_31">
    <g clip-path="url(#p8804c25b3b)">
     <!-- 3 -->
     <g transform="translate(1156.386315 290.981988)scale(0.13 -0.13)">
      <use xlink:href="#DejaVuSans-51"/>
     </g>
    </g>
   </g>
   <g id="text_32">
    <g clip-path="url(#p8804c25b3b)">
     <!-- 4 -->
     <g transform="translate(1156.386315 337.335987)scale(0.13 -0.13)">
      <use xlink:href="#DejaVuSans-52"/>
     </g>
    </g>
   </g>
   <g id="text_33">
    <g clip-path="url(#p8804c25b3b)">
     <!-- 5 -->
     <g transform="translate(1156.386315 383.689988)scale(0.13 -0.13)">
      <use xlink:href="#DejaVuSans-53"/>
     </g>
    </g>
   </g>
   <g id="text_34">
    <g clip-path="url(#p8804c25b3b)">
     <!-- ccPhiAdd3_dg -->
     <g transform="translate(1178.849665 267.624206)scale(0.13 -0.13)">
      <use xlink:href="#DejaVuSans-99"/>
      <use x="54.980469" xlink:href="#DejaVuSans-99"/>
      <use x="109.960938" xlink:href="#DejaVuSans-80"/>
      <use x="170.263672" xlink:href="#DejaVuSans-104"/>
      <use x="233.642578" xlink:href="#DejaVuSans-105"/>
      <use x="261.425781" xlink:href="#DejaVuSans-65"/>
      <use x="329.818359" xlink:href="#DejaVuSans-100"/>
      <use x="393.294922" xlink:href="#DejaVuSans-100"/>
      <use x="456.771484" xlink:href="#DejaVuSans-51"/>
      <use x="520.394531" xlink:href="#DejaVuSans-95"/>
      <use x="570.394531" xlink:href="#DejaVuSans-100"/>
      <use x="633.871094" xlink:href="#DejaVuSans-103"/>
     </g>
    </g>
   </g>
   <g id="text_35">
    <g clip-path="url(#p8804c25b3b)">
     <!-- 0 -->
     <g transform="translate(1329.344677 244.627988)scale(0.13 -0.13)">
      <use xlink:href="#DejaVuSans-48"/>
     </g>
    </g>
   </g>
   <g id="text_36">
    <g clip-path="url(#p8804c25b3b)">
     <!-- 1 -->
     <g transform="translate(1329.344677 290.981988)scale(0.13 -0.13)">
      <use xlink:href="#DejaVuSans-49"/>
     </g>
    </g>
   </g>
   <g id="text_37">
    <g clip-path="url(#p8804c25b3b)">
     <!-- 2 -->
     <g transform="translate(1329.344677 337.335987)scale(0.13 -0.13)">
      <use xlink:href="#DejaVuSans-50"/>
     </g>
    </g>
   </g>
   <g id="text_38">
    <g clip-path="url(#p8804c25b3b)">
     <!-- 3 -->
     <g transform="translate(1329.344677 383.689988)scale(0.13 -0.13)">
      <use xlink:href="#DejaVuSans-51"/>
     </g>
    </g>
   </g>
   <g id="text_39">
    <g clip-path="url(#p8804c25b3b)">
     <!-- QFT_dg -->
     <g transform="translate(1338.913774 313.978206)scale(0.13 -0.13)">
      <use xlink:href="#DejaVuSans-81"/>
      <use x="78.710938" xlink:href="#DejaVuSans-70"/>
      <use x="136.214844" xlink:href="#DejaVuSans-84"/>
      <use x="197.298828" xlink:href="#DejaVuSans-95"/>
      <use x="247.298828" xlink:href="#DejaVuSans-100"/>
      <use x="310.775391" xlink:href="#DejaVuSans-103"/>
     </g>
    </g>
   </g>
   <g id="text_40">
    <g clip-path="url(#p8804c25b3b)">
     <!-- $X$ -->
     <defs>
      <path d="M 13.71875 72.90625 
L 23.6875 72.90625 
L 36.1875 46.578125 
L 58.796875 72.90625 
L 70.3125 72.90625 
L 40.28125 38.09375 
L 58.40625 0 
L 48.484375 0 
L 33.796875 30.71875 
L 7.171875 0 
L -4.296875 0 
L 29.78125 39.203125 
z
" id="DejaVuSans-Oblique-88"/>
     </defs>
     <g transform="translate(1428.28704 244.627988)scale(0.13 -0.13)">
      <use transform="translate(0 0.09375)" xlink:href="#DejaVuSans-Oblique-88"/>
     </g>
    </g>
   </g>
   <g id="text_41">
    <g clip-path="url(#p8804c25b3b)">
     <!-- $X$ -->
     <g transform="translate(362.14504 615.459987)scale(0.13 -0.13)">
      <use transform="translate(0 0.09375)" xlink:href="#DejaVuSans-Oblique-88"/>
     </g>
    </g>
   </g>
   <g id="text_42">
    <g clip-path="url(#p8804c25b3b)">
     <!-- 0 -->
     <g transform="translate(399.425495 615.459987)scale(0.13 -0.13)">
      <use xlink:href="#DejaVuSans-48"/>
     </g>
    </g>
   </g>
   <g id="text_43">
    <g clip-path="url(#p8804c25b3b)">
     <!-- 1 -->
     <g transform="translate(399.425495 661.813987)scale(0.13 -0.13)">
      <use xlink:href="#DejaVuSans-49"/>
     </g>
    </g>
   </g>
   <g id="text_44">
    <g clip-path="url(#p8804c25b3b)">
     <!-- 2 -->
     <g transform="translate(399.425495 708.167987)scale(0.13 -0.13)">
      <use xlink:href="#DejaVuSans-50"/>
     </g>
    </g>
   </g>
   <g id="text_45">
    <g clip-path="url(#p8804c25b3b)">
     <!-- 3 -->
     <g transform="translate(399.425495 754.521987)scale(0.13 -0.13)">
      <use xlink:href="#DejaVuSans-51"/>
     </g>
    </g>
   </g>
   <g id="text_46">
    <g clip-path="url(#p8804c25b3b)">
     <!-- QFT -->
     <g transform="translate(400.159743 684.990987)scale(0.13 -0.13)">
      <use xlink:href="#DejaVuSans-81"/>
      <use x="78.710938" xlink:href="#DejaVuSans-70"/>
      <use x="136.214844" xlink:href="#DejaVuSans-84"/>
     </g>
    </g>
   </g>
   <g id="text_47">
    <g clip-path="url(#p8804c25b3b)">
     <!-- 0 -->
     <g transform="translate(461.076315 522.751988)scale(0.13 -0.13)">
      <use xlink:href="#DejaVuSans-48"/>
     </g>
    </g>
   </g>
   <g id="text_48">
    <g clip-path="url(#p8804c25b3b)">
     <!-- 1 -->
     <g transform="translate(461.076315 569.105987)scale(0.13 -0.13)">
      <use xlink:href="#DejaVuSans-49"/>
     </g>
    </g>
   </g>
   <g id="text_49">
    <g clip-path="url(#p8804c25b3b)">
     <!-- 2 -->
     <g transform="translate(461.076315 615.459987)scale(0.13 -0.13)">
      <use xlink:href="#DejaVuSans-50"/>
     </g>
    </g>
   </g>
   <g id="text_50">
    <g clip-path="url(#p8804c25b3b)">
     <!-- 3 -->
     <g transform="translate(461.076315 661.813987)scale(0.13 -0.13)">
      <use xlink:href="#DejaVuSans-51"/>
     </g>
    </g>
   </g>
   <g id="text_51">
    <g clip-path="url(#p8804c25b3b)">
     <!-- 4 -->
     <g transform="translate(461.076315 708.167987)scale(0.13 -0.13)">
      <use xlink:href="#DejaVuSans-52"/>
     </g>
    </g>
   </g>
   <g id="text_52">
    <g clip-path="url(#p8804c25b3b)">
     <!-- 5 -->
     <g transform="translate(461.076315 754.521987)scale(0.13 -0.13)">
      <use xlink:href="#DejaVuSans-53"/>
     </g>
    </g>
   </g>
   <g id="text_53">
    <g clip-path="url(#p8804c25b3b)">
     <!-- ccPhiAdd3 -->
     <g transform="translate(495.042634 638.636988)scale(0.13 -0.13)">
      <use xlink:href="#DejaVuSans-99"/>
      <use x="54.980469" xlink:href="#DejaVuSans-99"/>
      <use x="109.960938" xlink:href="#DejaVuSans-80"/>
      <use x="170.263672" xlink:href="#DejaVuSans-104"/>
      <use x="233.642578" xlink:href="#DejaVuSans-105"/>
      <use x="261.425781" xlink:href="#DejaVuSans-65"/>
      <use x="329.818359" xlink:href="#DejaVuSans-100"/>
      <use x="393.294922" xlink:href="#DejaVuSans-100"/>
      <use x="456.771484" xlink:href="#DejaVuSans-51"/>
     </g>
    </g>
   </g>
   <g id="text_54">
    <g clip-path="url(#p8804c25b3b)">
     <!-- ${q50}_{0}$ -->
     <defs>
      <path d="M 41.703125 8.203125 
Q 38.09375 3.46875 33.171875 1.015625 
Q 28.265625 -1.421875 22.3125 -1.421875 
Q 14.015625 -1.421875 9.296875 4.171875 
Q 4.59375 9.765625 4.59375 19.578125 
Q 4.59375 27.484375 7.5 34.859375 
Q 10.40625 42.234375 15.828125 48.09375 
Q 19.34375 51.90625 23.90625 53.953125 
Q 28.46875 56 33.5 56 
Q 39.546875 56 43.453125 53.609375 
Q 47.359375 51.21875 49.125 46.390625 
L 50.6875 54.59375 
L 59.71875 54.59375 
L 45.125 -20.609375 
L 36.078125 -20.609375 
z
M 13.921875 20.90625 
Q 13.921875 13.671875 16.9375 9.890625 
Q 19.96875 6.109375 25.6875 6.109375 
Q 34.1875 6.109375 40.1875 14.234375 
Q 46.1875 22.359375 46.1875 33.984375 
Q 46.1875 41.015625 43.078125 44.75 
Q 39.984375 48.484375 34.1875 48.484375 
Q 29.9375 48.484375 26.3125 46.5 
Q 22.703125 44.53125 20.015625 40.71875 
Q 17.1875 36.71875 15.546875 31.34375 
Q 13.921875 25.984375 13.921875 20.90625 
z
" id="DejaVuSans-Oblique-113"/>
     </defs>
     <g transform="translate(281.43854 152.783777)scale(0.1625 -0.1625)">
      <use transform="translate(0 0.78125)" xlink:href="#DejaVuSans-Oblique-113"/>
      <use transform="translate(63.476562 0.78125)" xlink:href="#DejaVuSans-53"/>
      <use transform="translate(127.099609 0.78125)" xlink:href="#DejaVuSans-48"/>
      <use transform="translate(191.679688 -15.625)scale(0.7)" xlink:href="#DejaVuSans-48"/>
     </g>
    </g>
   </g>
   <g id="text_55">
    <g clip-path="url(#p8804c25b3b)">
     <!-- ${q50}_{1}$ -->
     <g transform="translate(281.43854 199.137777)scale(0.1625 -0.1625)">
      <use transform="translate(0 0.78125)" xlink:href="#DejaVuSans-Oblique-113"/>
      <use transform="translate(63.476562 0.78125)" xlink:href="#DejaVuSans-53"/>
      <use transform="translate(127.099609 0.78125)" xlink:href="#DejaVuSans-48"/>
      <use transform="translate(191.679688 -15.625)scale(0.7)" xlink:href="#DejaVuSans-49"/>
     </g>
    </g>
   </g>
   <g id="text_56">
    <g clip-path="url(#p8804c25b3b)">
     <!-- ${q50}_{2}$ -->
     <g transform="translate(281.43854 245.491777)scale(0.1625 -0.1625)">
      <use transform="translate(0 0.78125)" xlink:href="#DejaVuSans-Oblique-113"/>
      <use transform="translate(63.476562 0.78125)" xlink:href="#DejaVuSans-53"/>
      <use transform="translate(127.099609 0.78125)" xlink:href="#DejaVuSans-48"/>
      <use transform="translate(191.679688 -15.625)scale(0.7)" xlink:href="#DejaVuSans-50"/>
     </g>
    </g>
   </g>
   <g id="text_57">
    <g clip-path="url(#p8804c25b3b)">
     <!-- ${q50}_{3}$ -->
     <g transform="translate(281.43854 291.845777)scale(0.1625 -0.1625)">
      <use transform="translate(0 0.78125)" xlink:href="#DejaVuSans-Oblique-113"/>
      <use transform="translate(63.476562 0.78125)" xlink:href="#DejaVuSans-53"/>
      <use transform="translate(127.099609 0.78125)" xlink:href="#DejaVuSans-48"/>
      <use transform="translate(191.679688 -15.625)scale(0.7)" xlink:href="#DejaVuSans-51"/>
     </g>
    </g>
   </g>
   <g id="text_58">
    <g clip-path="url(#p8804c25b3b)">
     <!-- ${q50}_{4}$ -->
     <g transform="translate(281.43854 338.199777)scale(0.1625 -0.1625)">
      <use transform="translate(0 0.78125)" xlink:href="#DejaVuSans-Oblique-113"/>
      <use transform="translate(63.476562 0.78125)" xlink:href="#DejaVuSans-53"/>
      <use transform="translate(127.099609 0.78125)" xlink:href="#DejaVuSans-48"/>
      <use transform="translate(191.679688 -15.625)scale(0.7)" xlink:href="#DejaVuSans-52"/>
     </g>
    </g>
   </g>
   <g id="text_59">
    <g clip-path="url(#p8804c25b3b)">
     <!-- ${q50}_{5}$ -->
     <g transform="translate(281.43854 384.553777)scale(0.1625 -0.1625)">
      <use transform="translate(0 0.78125)" xlink:href="#DejaVuSans-Oblique-113"/>
      <use transform="translate(63.476562 0.78125)" xlink:href="#DejaVuSans-53"/>
      <use transform="translate(127.099609 0.78125)" xlink:href="#DejaVuSans-48"/>
      <use transform="translate(191.679688 -15.625)scale(0.7)" xlink:href="#DejaVuSans-53"/>
     </g>
    </g>
   </g>
   <g id="text_60">
    <g clip-path="url(#p8804c25b3b)">
     <!-- ${q50}_{6}$ -->
     <defs>
      <path d="M 33.015625 40.375 
Q 26.375 40.375 22.484375 35.828125 
Q 18.609375 31.296875 18.609375 23.390625 
Q 18.609375 15.53125 22.484375 10.953125 
Q 26.375 6.390625 33.015625 6.390625 
Q 39.65625 6.390625 43.53125 10.953125 
Q 47.40625 15.53125 47.40625 23.390625 
Q 47.40625 31.296875 43.53125 35.828125 
Q 39.65625 40.375 33.015625 40.375 
z
M 52.59375 71.296875 
L 52.59375 62.3125 
Q 48.875 64.0625 45.09375 64.984375 
Q 41.3125 65.921875 37.59375 65.921875 
Q 27.828125 65.921875 22.671875 59.328125 
Q 17.53125 52.734375 16.796875 39.40625 
Q 19.671875 43.65625 24.015625 45.921875 
Q 28.375 48.1875 33.59375 48.1875 
Q 44.578125 48.1875 50.953125 41.515625 
Q 57.328125 34.859375 57.328125 23.390625 
Q 57.328125 12.15625 50.6875 5.359375 
Q 44.046875 -1.421875 33.015625 -1.421875 
Q 20.359375 -1.421875 13.671875 8.265625 
Q 6.984375 17.96875 6.984375 36.375 
Q 6.984375 53.65625 15.1875 63.9375 
Q 23.390625 74.21875 37.203125 74.21875 
Q 40.921875 74.21875 44.703125 73.484375 
Q 48.484375 72.75 52.59375 71.296875 
z
" id="DejaVuSans-54"/>
     </defs>
     <g transform="translate(281.43854 430.907777)scale(0.1625 -0.1625)">
      <use transform="translate(0 0.78125)" xlink:href="#DejaVuSans-Oblique-113"/>
      <use transform="translate(63.476562 0.78125)" xlink:href="#DejaVuSans-53"/>
      <use transform="translate(127.099609 0.78125)" xlink:href="#DejaVuSans-48"/>
      <use transform="translate(191.679688 -15.625)scale(0.7)" xlink:href="#DejaVuSans-54"/>
     </g>
    </g>
   </g>
   <g id="text_61">
    <g clip-path="url(#p8804c25b3b)">
     <!-- ${q50}_{0}$ -->
     <g transform="translate(281.43854 523.615777)scale(0.1625 -0.1625)">
      <use transform="translate(0 0.78125)" xlink:href="#DejaVuSans-Oblique-113"/>
      <use transform="translate(63.476562 0.78125)" xlink:href="#DejaVuSans-53"/>
      <use transform="translate(127.099609 0.78125)" xlink:href="#DejaVuSans-48"/>
      <use transform="translate(191.679688 -15.625)scale(0.7)" xlink:href="#DejaVuSans-48"/>
     </g>
    </g>
   </g>
   <g id="text_62">
    <g clip-path="url(#p8804c25b3b)">
     <!-- ${q50}_{1}$ -->
     <g transform="translate(281.43854 569.969777)scale(0.1625 -0.1625)">
      <use transform="translate(0 0.78125)" xlink:href="#DejaVuSans-Oblique-113"/>
      <use transform="translate(63.476562 0.78125)" xlink:href="#DejaVuSans-53"/>
      <use transform="translate(127.099609 0.78125)" xlink:href="#DejaVuSans-48"/>
      <use transform="translate(191.679688 -15.625)scale(0.7)" xlink:href="#DejaVuSans-49"/>
     </g>
    </g>
   </g>
   <g id="text_63">
    <g clip-path="url(#p8804c25b3b)">
     <!-- ${q50}_{2}$ -->
     <g transform="translate(281.43854 616.323777)scale(0.1625 -0.1625)">
      <use transform="translate(0 0.78125)" xlink:href="#DejaVuSans-Oblique-113"/>
      <use transform="translate(63.476562 0.78125)" xlink:href="#DejaVuSans-53"/>
      <use transform="translate(127.099609 0.78125)" xlink:href="#DejaVuSans-48"/>
      <use transform="translate(191.679688 -15.625)scale(0.7)" xlink:href="#DejaVuSans-50"/>
     </g>
    </g>
   </g>
   <g id="text_64">
    <g clip-path="url(#p8804c25b3b)">
     <!-- ${q50}_{3}$ -->
     <g transform="translate(281.43854 662.677777)scale(0.1625 -0.1625)">
      <use transform="translate(0 0.78125)" xlink:href="#DejaVuSans-Oblique-113"/>
      <use transform="translate(63.476562 0.78125)" xlink:href="#DejaVuSans-53"/>
      <use transform="translate(127.099609 0.78125)" xlink:href="#DejaVuSans-48"/>
      <use transform="translate(191.679688 -15.625)scale(0.7)" xlink:href="#DejaVuSans-51"/>
     </g>
    </g>
   </g>
   <g id="text_65">
    <g clip-path="url(#p8804c25b3b)">
     <!-- ${q50}_{4}$ -->
     <g transform="translate(281.43854 709.031777)scale(0.1625 -0.1625)">
      <use transform="translate(0 0.78125)" xlink:href="#DejaVuSans-Oblique-113"/>
      <use transform="translate(63.476562 0.78125)" xlink:href="#DejaVuSans-53"/>
      <use transform="translate(127.099609 0.78125)" xlink:href="#DejaVuSans-48"/>
      <use transform="translate(191.679688 -15.625)scale(0.7)" xlink:href="#DejaVuSans-52"/>
     </g>
    </g>
   </g>
   <g id="text_66">
    <g clip-path="url(#p8804c25b3b)">
     <!-- ${q50}_{5}$ -->
     <g transform="translate(281.43854 755.385777)scale(0.1625 -0.1625)">
      <use transform="translate(0 0.78125)" xlink:href="#DejaVuSans-Oblique-113"/>
      <use transform="translate(63.476562 0.78125)" xlink:href="#DejaVuSans-53"/>
      <use transform="translate(127.099609 0.78125)" xlink:href="#DejaVuSans-48"/>
      <use transform="translate(191.679688 -15.625)scale(0.7)" xlink:href="#DejaVuSans-53"/>
     </g>
    </g>
   </g>
   <g id="text_67">
    <g clip-path="url(#p8804c25b3b)">
     <!-- ${q50}_{6}$ -->
     <g transform="translate(281.43854 801.739777)scale(0.1625 -0.1625)">
      <use transform="translate(0 0.78125)" xlink:href="#DejaVuSans-Oblique-113"/>
      <use transform="translate(63.476562 0.78125)" xlink:href="#DejaVuSans-53"/>
      <use transform="translate(127.099609 0.78125)" xlink:href="#DejaVuSans-48"/>
      <use transform="translate(191.679688 -15.625)scale(0.7)" xlink:href="#DejaVuSans-54"/>
     </g>
    </g>
   </g>
  </g>
 </g>
 <defs>
  <clipPath id="p8804c25b3b">
   <rect height="713.8516" width="1312.74528" x="217.37016" y="111.2496"/>
  </clipPath>
 </defs>
</svg>
