<?xml version="1.0" encoding="utf-8" standalone="no"?>
<!DOCTYPE svg PUBLIC "-//W3C//DTD SVG 1.1//EN"
  "http://www.w3.org/Graphics/SVG/1.1/DTD/svg11.dtd">
<!-- Created with matplotlib (https://matplotlib.org/) -->
<svg height="345.6pt" version="1.1" viewBox="0 0 460.8 345.6" width="460.8pt" xmlns="http://www.w3.org/2000/svg" xmlns:xlink="http://www.w3.org/1999/xlink">
 <defs>
  <style type="text/css">
*{stroke-linecap:butt;stroke-linejoin:round;}
  </style>
 </defs>
 <g id="figure_1">
  <g id="patch_1">
   <path d="M 0 345.6 
L 460.8 345.6 
L 460.8 0 
L 0 0 
z
" style="fill:#ffffff;"/>
  </g>
  <g id="axes_1">
   <g id="patch_2">
    <path d="M 57.6 307.584 
L 414.72 307.584 
L 414.72 41.472 
L 57.6 41.472 
z
" style="fill:#ffffff;"/>
   </g>
   <g id="matplotlib.axis_1">
    <g id="xtick_1">
     <g id="line2d_1">
      <defs>
       <path d="M 0 0 
L 0 3.5 
" id="mc5412ae461" style="stroke:#000000;stroke-width:0.8;"/>
      </defs>
      <g>
       <use style="stroke:#000000;stroke-width:0.8;" x="64.422451" xlink:href="#mc5412ae461" y="307.584"/>
      </g>
     </g>
     <g id="text_1">
      <!-- 0 -->
      <defs>
       <path d="M 31.78125 66.40625 
Q 24.171875 66.40625 20.328125 58.90625 
Q 16.5 51.421875 16.5 36.375 
Q 16.5 21.390625 20.328125 13.890625 
Q 24.171875 6.390625 31.78125 6.390625 
Q 39.453125 6.390625 43.28125 13.890625 
Q 47.125 21.390625 47.125 36.375 
Q 47.125 51.421875 43.28125 58.90625 
Q 39.453125 66.40625 31.78125 66.40625 
z
M 31.78125 74.21875 
Q 44.046875 74.21875 50.515625 64.515625 
Q 56.984375 54.828125 56.984375 36.375 
Q 56.984375 17.96875 50.515625 8.265625 
Q 44.046875 -1.421875 31.78125 -1.421875 
Q 19.53125 -1.421875 13.0625 8.265625 
Q 6.59375 17.96875 6.59375 36.375 
Q 6.59375 54.828125 13.0625 64.515625 
Q 19.53125 74.21875 31.78125 74.21875 
z
" id="DejaVuSans-48"/>
      </defs>
      <g transform="translate(61.241201 322.182437)scale(0.1 -0.1)">
       <use xlink:href="#DejaVuSans-48"/>
      </g>
     </g>
    </g>
    <g id="xtick_2">
     <g id="line2d_2">
      <g>
       <use style="stroke:#000000;stroke-width:0.8;" x="111.473834" xlink:href="#mc5412ae461" y="307.584"/>
      </g>
     </g>
     <g id="text_2">
      <!-- 10 -->
      <defs>
       <path d="M 12.40625 8.296875 
L 28.515625 8.296875 
L 28.515625 63.921875 
L 10.984375 60.40625 
L 10.984375 69.390625 
L 28.421875 72.90625 
L 38.28125 72.90625 
L 38.28125 8.296875 
L 54.390625 8.296875 
L 54.390625 0 
L 12.40625 0 
z
" id="DejaVuSans-49"/>
      </defs>
      <g transform="translate(105.111334 322.182437)scale(0.1 -0.1)">
       <use xlink:href="#DejaVuSans-49"/>
       <use x="63.623047" xlink:href="#DejaVuSans-48"/>
      </g>
     </g>
    </g>
    <g id="xtick_3">
     <g id="line2d_3">
      <g>
       <use style="stroke:#000000;stroke-width:0.8;" x="158.525217" xlink:href="#mc5412ae461" y="307.584"/>
      </g>
     </g>
     <g id="text_3">
      <!-- 20 -->
      <defs>
       <path d="M 19.1875 8.296875 
L 53.609375 8.296875 
L 53.609375 0 
L 7.328125 0 
L 7.328125 8.296875 
Q 12.9375 14.109375 22.625 23.890625 
Q 32.328125 33.6875 34.8125 36.53125 
Q 39.546875 41.84375 41.421875 45.53125 
Q 43.3125 49.21875 43.3125 52.78125 
Q 43.3125 58.59375 39.234375 62.25 
Q 35.15625 65.921875 28.609375 65.921875 
Q 23.96875 65.921875 18.8125 64.3125 
Q 13.671875 62.703125 7.8125 59.421875 
L 7.8125 69.390625 
Q 13.765625 71.78125 18.9375 73 
Q 24.125 74.21875 28.421875 74.21875 
Q 39.75 74.21875 46.484375 68.546875 
Q 53.21875 62.890625 53.21875 53.421875 
Q 53.21875 48.921875 51.53125 44.890625 
Q 49.859375 40.875 45.40625 35.40625 
Q 44.1875 33.984375 37.640625 27.21875 
Q 31.109375 20.453125 19.1875 8.296875 
z
" id="DejaVuSans-50"/>
      </defs>
      <g transform="translate(152.162717 322.182437)scale(0.1 -0.1)">
       <use xlink:href="#DejaVuSans-50"/>
       <use x="63.623047" xlink:href="#DejaVuSans-48"/>
      </g>
     </g>
    </g>
    <g id="xtick_4">
     <g id="line2d_4">
      <g>
       <use style="stroke:#000000;stroke-width:0.8;" x="205.576601" xlink:href="#mc5412ae461" y="307.584"/>
      </g>
     </g>
     <g id="text_4">
      <!-- 30 -->
      <defs>
       <path d="M 40.578125 39.3125 
Q 47.65625 37.796875 51.625 33 
Q 55.609375 28.21875 55.609375 21.1875 
Q 55.609375 10.40625 48.1875 4.484375 
Q 40.765625 -1.421875 27.09375 -1.421875 
Q 22.515625 -1.421875 17.65625 -0.515625 
Q 12.796875 0.390625 7.625 2.203125 
L 7.625 11.71875 
Q 11.71875 9.328125 16.59375 8.109375 
Q 21.484375 6.890625 26.8125 6.890625 
Q 36.078125 6.890625 40.9375 10.546875 
Q 45.796875 14.203125 45.796875 21.1875 
Q 45.796875 27.640625 41.28125 31.265625 
Q 36.765625 34.90625 28.71875 34.90625 
L 20.21875 34.90625 
L 20.21875 43.015625 
L 29.109375 43.015625 
Q 36.375 43.015625 40.234375 45.921875 
Q 44.09375 48.828125 44.09375 54.296875 
Q 44.09375 59.90625 40.109375 62.90625 
Q 36.140625 65.921875 28.71875 65.921875 
Q 24.65625 65.921875 20.015625 65.03125 
Q 15.375 64.15625 9.8125 62.3125 
L 9.8125 71.09375 
Q 15.4375 72.65625 20.34375 73.4375 
Q 25.25 74.21875 29.59375 74.21875 
Q 40.828125 74.21875 47.359375 69.109375 
Q 53.90625 64.015625 53.90625 55.328125 
Q 53.90625 49.265625 50.4375 45.09375 
Q 46.96875 40.921875 40.578125 39.3125 
z
" id="DejaVuSans-51"/>
      </defs>
      <g transform="translate(199.214101 322.182437)scale(0.1 -0.1)">
       <use xlink:href="#DejaVuSans-51"/>
       <use x="63.623047" xlink:href="#DejaVuSans-48"/>
      </g>
     </g>
    </g>
    <g id="xtick_5">
     <g id="line2d_5">
      <g>
       <use style="stroke:#000000;stroke-width:0.8;" x="252.627984" xlink:href="#mc5412ae461" y="307.584"/>
      </g>
     </g>
     <g id="text_5">
      <!-- 40 -->
      <defs>
       <path d="M 37.796875 64.3125 
L 12.890625 25.390625 
L 37.796875 25.390625 
z
M 35.203125 72.90625 
L 47.609375 72.90625 
L 47.609375 25.390625 
L 58.015625 25.390625 
L 58.015625 17.1875 
L 47.609375 17.1875 
L 47.609375 0 
L 37.796875 0 
L 37.796875 17.1875 
L 4.890625 17.1875 
L 4.890625 26.703125 
z
" id="DejaVuSans-52"/>
      </defs>
      <g transform="translate(246.265484 322.182437)scale(0.1 -0.1)">
       <use xlink:href="#DejaVuSans-52"/>
       <use x="63.623047" xlink:href="#DejaVuSans-48"/>
      </g>
     </g>
    </g>
    <g id="xtick_6">
     <g id="line2d_6">
      <g>
       <use style="stroke:#000000;stroke-width:0.8;" x="299.679368" xlink:href="#mc5412ae461" y="307.584"/>
      </g>
     </g>
     <g id="text_6">
      <!-- 50 -->
      <defs>
       <path d="M 10.796875 72.90625 
L 49.515625 72.90625 
L 49.515625 64.59375 
L 19.828125 64.59375 
L 19.828125 46.734375 
Q 21.96875 47.46875 24.109375 47.828125 
Q 26.265625 48.1875 28.421875 48.1875 
Q 40.625 48.1875 47.75 41.5 
Q 54.890625 34.8125 54.890625 23.390625 
Q 54.890625 11.625 47.5625 5.09375 
Q 40.234375 -1.421875 26.90625 -1.421875 
Q 22.3125 -1.421875 17.546875 -0.640625 
Q 12.796875 0.140625 7.71875 1.703125 
L 7.71875 11.625 
Q 12.109375 9.234375 16.796875 8.0625 
Q 21.484375 6.890625 26.703125 6.890625 
Q 35.15625 6.890625 40.078125 11.328125 
Q 45.015625 15.765625 45.015625 23.390625 
Q 45.015625 31 40.078125 35.4375 
Q 35.15625 39.890625 26.703125 39.890625 
Q 22.75 39.890625 18.8125 39.015625 
Q 14.890625 38.140625 10.796875 36.28125 
z
" id="DejaVuSans-53"/>
      </defs>
      <g transform="translate(293.316868 322.182437)scale(0.1 -0.1)">
       <use xlink:href="#DejaVuSans-53"/>
       <use x="63.623047" xlink:href="#DejaVuSans-48"/>
      </g>
     </g>
    </g>
    <g id="xtick_7">
     <g id="line2d_7">
      <g>
       <use style="stroke:#000000;stroke-width:0.8;" x="346.730751" xlink:href="#mc5412ae461" y="307.584"/>
      </g>
     </g>
     <g id="text_7">
      <!-- 60 -->
      <defs>
       <path d="M 33.015625 40.375 
Q 26.375 40.375 22.484375 35.828125 
Q 18.609375 31.296875 18.609375 23.390625 
Q 18.609375 15.53125 22.484375 10.953125 
Q 26.375 6.390625 33.015625 6.390625 
Q 39.65625 6.390625 43.53125 10.953125 
Q 47.40625 15.53125 47.40625 23.390625 
Q 47.40625 31.296875 43.53125 35.828125 
Q 39.65625 40.375 33.015625 40.375 
z
M 52.59375 71.296875 
L 52.59375 62.3125 
Q 48.875 64.0625 45.09375 64.984375 
Q 41.3125 65.921875 37.59375 65.921875 
Q 27.828125 65.921875 22.671875 59.328125 
Q 17.53125 52.734375 16.796875 39.40625 
Q 19.671875 43.65625 24.015625 45.921875 
Q 28.375 48.1875 33.59375 48.1875 
Q 44.578125 48.1875 50.953125 41.515625 
Q 57.328125 34.859375 57.328125 23.390625 
Q 57.328125 12.15625 50.6875 5.359375 
Q 44.046875 -1.421875 33.015625 -1.421875 
Q 20.359375 -1.421875 13.671875 8.265625 
Q 6.984375 17.96875 6.984375 36.375 
Q 6.984375 53.65625 15.1875 63.9375 
Q 23.390625 74.21875 37.203125 74.21875 
Q 40.921875 74.21875 44.703125 73.484375 
Q 48.484375 72.75 52.59375 71.296875 
z
" id="DejaVuSans-54"/>
      </defs>
      <g transform="translate(340.368251 322.182437)scale(0.1 -0.1)">
       <use xlink:href="#DejaVuSans-54"/>
       <use x="63.623047" xlink:href="#DejaVuSans-48"/>
      </g>
     </g>
    </g>
    <g id="xtick_8">
     <g id="line2d_8">
      <g>
       <use style="stroke:#000000;stroke-width:0.8;" x="393.782134" xlink:href="#mc5412ae461" y="307.584"/>
      </g>
     </g>
     <g id="text_8">
      <!-- 70 -->
      <defs>
       <path d="M 8.203125 72.90625 
L 55.078125 72.90625 
L 55.078125 68.703125 
L 28.609375 0 
L 18.3125 0 
L 43.21875 64.59375 
L 8.203125 64.59375 
z
" id="DejaVuSans-55"/>
      </defs>
      <g transform="translate(387.419634 322.182437)scale(0.1 -0.1)">
       <use xlink:href="#DejaVuSans-55"/>
       <use x="63.623047" xlink:href="#DejaVuSans-48"/>
      </g>
     </g>
    </g>
   </g>
   <g id="matplotlib.axis_2">
    <g id="ytick_1">
     <g id="line2d_9">
      <defs>
       <path d="M 0 0 
L -3.5 0 
" id="m597155651a" style="stroke:#000000;stroke-width:0.8;"/>
      </defs>
      <g>
       <use style="stroke:#000000;stroke-width:0.8;" x="57.6" xlink:href="#m597155651a" y="279.418186"/>
      </g>
     </g>
     <g id="text_9">
      <!-- 0.4 -->
      <defs>
       <path d="M 10.6875 12.40625 
L 21 12.40625 
L 21 0 
L 10.6875 0 
z
" id="DejaVuSans-46"/>
      </defs>
      <g transform="translate(34.696875 283.217405)scale(0.1 -0.1)">
       <use xlink:href="#DejaVuSans-48"/>
       <use x="63.623047" xlink:href="#DejaVuSans-46"/>
       <use x="95.410156" xlink:href="#DejaVuSans-52"/>
      </g>
     </g>
    </g>
    <g id="ytick_2">
     <g id="line2d_10">
      <g>
       <use style="stroke:#000000;stroke-width:0.8;" x="57.6" xlink:href="#m597155651a" y="239.416354"/>
      </g>
     </g>
     <g id="text_10">
      <!-- 0.5 -->
      <g transform="translate(34.696875 243.215573)scale(0.1 -0.1)">
       <use xlink:href="#DejaVuSans-48"/>
       <use x="63.623047" xlink:href="#DejaVuSans-46"/>
       <use x="95.410156" xlink:href="#DejaVuSans-53"/>
      </g>
     </g>
    </g>
    <g id="ytick_3">
     <g id="line2d_11">
      <g>
       <use style="stroke:#000000;stroke-width:0.8;" x="57.6" xlink:href="#m597155651a" y="199.414522"/>
      </g>
     </g>
     <g id="text_11">
      <!-- 0.6 -->
      <g transform="translate(34.696875 203.213741)scale(0.1 -0.1)">
       <use xlink:href="#DejaVuSans-48"/>
       <use x="63.623047" xlink:href="#DejaVuSans-46"/>
       <use x="95.410156" xlink:href="#DejaVuSans-54"/>
      </g>
     </g>
    </g>
    <g id="ytick_4">
     <g id="line2d_12">
      <g>
       <use style="stroke:#000000;stroke-width:0.8;" x="57.6" xlink:href="#m597155651a" y="159.412691"/>
      </g>
     </g>
     <g id="text_12">
      <!-- 0.7 -->
      <g transform="translate(34.696875 163.211909)scale(0.1 -0.1)">
       <use xlink:href="#DejaVuSans-48"/>
       <use x="63.623047" xlink:href="#DejaVuSans-46"/>
       <use x="95.410156" xlink:href="#DejaVuSans-55"/>
      </g>
     </g>
    </g>
    <g id="ytick_5">
     <g id="line2d_13">
      <g>
       <use style="stroke:#000000;stroke-width:0.8;" x="57.6" xlink:href="#m597155651a" y="119.410859"/>
      </g>
     </g>
     <g id="text_13">
      <!-- 0.8 -->
      <defs>
       <path d="M 31.78125 34.625 
Q 24.75 34.625 20.71875 30.859375 
Q 16.703125 27.09375 16.703125 20.515625 
Q 16.703125 13.921875 20.71875 10.15625 
Q 24.75 6.390625 31.78125 6.390625 
Q 38.8125 6.390625 42.859375 10.171875 
Q 46.921875 13.96875 46.921875 20.515625 
Q 46.921875 27.09375 42.890625 30.859375 
Q 38.875 34.625 31.78125 34.625 
z
M 21.921875 38.8125 
Q 15.578125 40.375 12.03125 44.71875 
Q 8.5 49.078125 8.5 55.328125 
Q 8.5 64.0625 14.71875 69.140625 
Q 20.953125 74.21875 31.78125 74.21875 
Q 42.671875 74.21875 48.875 69.140625 
Q 55.078125 64.0625 55.078125 55.328125 
Q 55.078125 49.078125 51.53125 44.71875 
Q 48 40.375 41.703125 38.8125 
Q 48.828125 37.15625 52.796875 32.3125 
Q 56.78125 27.484375 56.78125 20.515625 
Q 56.78125 9.90625 50.3125 4.234375 
Q 43.84375 -1.421875 31.78125 -1.421875 
Q 19.734375 -1.421875 13.25 4.234375 
Q 6.78125 9.90625 6.78125 20.515625 
Q 6.78125 27.484375 10.78125 32.3125 
Q 14.796875 37.15625 21.921875 38.8125 
z
M 18.3125 54.390625 
Q 18.3125 48.734375 21.84375 45.5625 
Q 25.390625 42.390625 31.78125 42.390625 
Q 38.140625 42.390625 41.71875 45.5625 
Q 45.3125 48.734375 45.3125 54.390625 
Q 45.3125 60.0625 41.71875 63.234375 
Q 38.140625 66.40625 31.78125 66.40625 
Q 25.390625 66.40625 21.84375 63.234375 
Q 18.3125 60.0625 18.3125 54.390625 
z
" id="DejaVuSans-56"/>
      </defs>
      <g transform="translate(34.696875 123.210078)scale(0.1 -0.1)">
       <use xlink:href="#DejaVuSans-48"/>
       <use x="63.623047" xlink:href="#DejaVuSans-46"/>
       <use x="95.410156" xlink:href="#DejaVuSans-56"/>
      </g>
     </g>
    </g>
    <g id="ytick_6">
     <g id="line2d_14">
      <g>
       <use style="stroke:#000000;stroke-width:0.8;" x="57.6" xlink:href="#m597155651a" y="79.409027"/>
      </g>
     </g>
     <g id="text_14">
      <!-- 0.9 -->
      <defs>
       <path d="M 10.984375 1.515625 
L 10.984375 10.5 
Q 14.703125 8.734375 18.5 7.8125 
Q 22.3125 6.890625 25.984375 6.890625 
Q 35.75 6.890625 40.890625 13.453125 
Q 46.046875 20.015625 46.78125 33.40625 
Q 43.953125 29.203125 39.59375 26.953125 
Q 35.25 24.703125 29.984375 24.703125 
Q 19.046875 24.703125 12.671875 31.3125 
Q 6.296875 37.9375 6.296875 49.421875 
Q 6.296875 60.640625 12.9375 67.421875 
Q 19.578125 74.21875 30.609375 74.21875 
Q 43.265625 74.21875 49.921875 64.515625 
Q 56.59375 54.828125 56.59375 36.375 
Q 56.59375 19.140625 48.40625 8.859375 
Q 40.234375 -1.421875 26.421875 -1.421875 
Q 22.703125 -1.421875 18.890625 -0.6875 
Q 15.09375 0.046875 10.984375 1.515625 
z
M 30.609375 32.421875 
Q 37.25 32.421875 41.125 36.953125 
Q 45.015625 41.5 45.015625 49.421875 
Q 45.015625 57.28125 41.125 61.84375 
Q 37.25 66.40625 30.609375 66.40625 
Q 23.96875 66.40625 20.09375 61.84375 
Q 16.21875 57.28125 16.21875 49.421875 
Q 16.21875 41.5 20.09375 36.953125 
Q 23.96875 32.421875 30.609375 32.421875 
z
" id="DejaVuSans-57"/>
      </defs>
      <g transform="translate(34.696875 83.208246)scale(0.1 -0.1)">
       <use xlink:href="#DejaVuSans-48"/>
       <use x="63.623047" xlink:href="#DejaVuSans-46"/>
       <use x="95.410156" xlink:href="#DejaVuSans-57"/>
      </g>
     </g>
    </g>
   </g>
   <g id="line2d_15">
    <defs>
     <path d="M 0 3 
C 0.795609 3 1.55874 2.683901 2.12132 2.12132 
C 2.683901 1.55874 3 0.795609 3 0 
C 3 -0.795609 2.683901 -1.55874 2.12132 -2.12132 
C 1.55874 -2.683901 0.795609 -3 0 -3 
C -0.795609 -3 -1.55874 -2.683901 -2.12132 -2.12132 
C -2.683901 -1.55874 -3 -0.795609 -3 0 
C -3 0.795609 -2.683901 1.55874 -2.12132 2.12132 
C -1.55874 2.683901 -0.795609 3 0 3 
z
" id="m903137899e" style="stroke:#1f77b4;"/>
    </defs>
    <g clip-path="url(#p0fa17d9c05)">
     <use style="fill:#1f77b4;stroke:#1f77b4;" x="73.832727" xlink:href="#m903137899e" y="63.236411"/>
     <use style="fill:#1f77b4;stroke:#1f77b4;" x="92.653281" xlink:href="#m903137899e" y="69.291376"/>
     <use style="fill:#1f77b4;stroke:#1f77b4;" x="106.768696" xlink:href="#m903137899e" y="98.833745"/>
     <use style="fill:#1f77b4;stroke:#1f77b4;" x="73.832727" xlink:href="#m903137899e" y="59.476474"/>
     <use style="fill:#1f77b4;stroke:#1f77b4;" x="73.832727" xlink:href="#m903137899e" y="59.037"/>
     <use style="fill:#1f77b4;stroke:#1f77b4;" x="73.832727" xlink:href="#m903137899e" y="62.601617"/>
     <use style="fill:#1f77b4;stroke:#1f77b4;" x="73.832727" xlink:href="#m903137899e" y="57.57209"/>
     <use style="fill:#1f77b4;stroke:#1f77b4;" x="106.768696" xlink:href="#m903137899e" y="81.694288"/>
     <use style="fill:#1f77b4;stroke:#1f77b4;" x="73.832727" xlink:href="#m903137899e" y="58.792849"/>
     <use style="fill:#1f77b4;stroke:#1f77b4;" x="73.832727" xlink:href="#m903137899e" y="62.601617"/>
     <use style="fill:#1f77b4;stroke:#1f77b4;" x="73.832727" xlink:href="#m903137899e" y="62.015652"/>
     <use style="fill:#1f77b4;stroke:#1f77b4;" x="78.537866" xlink:href="#m903137899e" y="63.968867"/>
     <use style="fill:#1f77b4;stroke:#1f77b4;" x="97.358419" xlink:href="#m903137899e" y="81.840779"/>
     <use style="fill:#1f77b4;stroke:#1f77b4;" x="92.653281" xlink:href="#m903137899e" y="64.261849"/>
     <use style="fill:#1f77b4;stroke:#1f77b4;" x="73.832727" xlink:href="#m903137899e" y="53.568"/>
     <use style="fill:#1f77b4;stroke:#1f77b4;" x="106.768696" xlink:href="#m903137899e" y="77.494877"/>
     <use style="fill:#1f77b4;stroke:#1f77b4;" x="73.832727" xlink:href="#m903137899e" y="58.890509"/>
     <use style="fill:#1f77b4;stroke:#1f77b4;" x="92.653281" xlink:href="#m903137899e" y="74.676842"/>
     <use style="fill:#1f77b4;stroke:#1f77b4;" x="106.768696" xlink:href="#m903137899e" y="96.685209"/>
     <use style="fill:#1f77b4;stroke:#1f77b4;" x="102.063557" xlink:href="#m903137899e" y="78.617975"/>
     <use style="fill:#1f77b4;stroke:#1f77b4;" x="92.653281" xlink:href="#m903137899e" y="72.855993"/>
     <use style="fill:#1f77b4;stroke:#1f77b4;" x="139.704664" xlink:href="#m903137899e" y="83.793993"/>
     <use style="fill:#1f77b4;stroke:#1f77b4;" x="111.473834" xlink:href="#m903137899e" y="95.317959"/>
     <use style="fill:#1f77b4;stroke:#1f77b4;" x="144.409802" xlink:href="#m903137899e" y="120.319104"/>
     <use style="fill:#1f77b4;stroke:#1f77b4;" x="134.999526" xlink:href="#m903137899e" y="105.491596"/>
     <use style="fill:#1f77b4;stroke:#1f77b4;" x="139.704664" xlink:href="#m903137899e" y="127.106524"/>
     <use style="fill:#1f77b4;stroke:#1f77b4;" x="106.768696" xlink:href="#m903137899e" y="92.632586"/>
     <use style="fill:#1f77b4;stroke:#1f77b4;" x="120.884111" xlink:href="#m903137899e" y="88.335217"/>
     <use style="fill:#1f77b4;stroke:#1f77b4;" x="92.653281" xlink:href="#m903137899e" y="85.747208"/>
     <use style="fill:#1f77b4;stroke:#1f77b4;" x="144.409802" xlink:href="#m903137899e" y="100.738129"/>
     <use style="fill:#1f77b4;stroke:#1f77b4;" x="125.589249" xlink:href="#m903137899e" y="94.408589"/>
     <use style="fill:#1f77b4;stroke:#1f77b4;" x="139.704664" xlink:href="#m903137899e" y="103.765611"/>
     <use style="fill:#1f77b4;stroke:#1f77b4;" x="158.525217" xlink:href="#m903137899e" y="115.77788"/>
     <use style="fill:#1f77b4;stroke:#1f77b4;" x="120.884111" xlink:href="#m903137899e" y="120.800016"/>
     <use style="fill:#1f77b4;stroke:#1f77b4;" x="144.409802" xlink:href="#m903137899e" y="106.500111"/>
     <use style="fill:#1f77b4;stroke:#1f77b4;" x="125.589249" xlink:href="#m903137899e" y="106.039481"/>
     <use style="fill:#1f77b4;stroke:#1f77b4;" x="92.653281" xlink:href="#m903137899e" y="68.168278"/>
     <use style="fill:#1f77b4;stroke:#1f77b4;" x="111.473834" xlink:href="#m903137899e" y="70.609796"/>
     <use style="fill:#1f77b4;stroke:#1f77b4;" x="125.589249" xlink:href="#m903137899e" y="76.420609"/>
     <use style="fill:#1f77b4;stroke:#1f77b4;" x="158.525217" xlink:href="#m903137899e" y="120.270273"/>
     <use style="fill:#1f77b4;stroke:#1f77b4;" x="144.409802" xlink:href="#m903137899e" y="99.029066"/>
     <use style="fill:#1f77b4;stroke:#1f77b4;" x="177.345771" xlink:href="#m903137899e" y="121.979336"/>
     <use style="fill:#1f77b4;stroke:#1f77b4;" x="92.653281" xlink:href="#m903137899e" y="84.526449"/>
     <use style="fill:#1f77b4;stroke:#1f77b4;" x="73.832727" xlink:href="#m903137899e" y="54.994847"/>
     <use style="fill:#1f77b4;stroke:#1f77b4;" x="92.653281" xlink:href="#m903137899e" y="58.93934"/>
     <use style="fill:#1f77b4;stroke:#1f77b4;" x="158.525217" xlink:href="#m903137899e" y="148.540099"/>
     <use style="fill:#1f77b4;stroke:#1f77b4;" x="120.884111" xlink:href="#m903137899e" y="83.105853"/>
     <use style="fill:#1f77b4;stroke:#1f77b4;" x="134.999526" xlink:href="#m903137899e" y="114.557121"/>
     <use style="fill:#1f77b4;stroke:#1f77b4;" x="120.884111" xlink:href="#m903137899e" y="116.74844"/>
     <use style="fill:#1f77b4;stroke:#1f77b4;" x="149.114941" xlink:href="#m903137899e" y="106.939585"/>
     <use style="fill:#1f77b4;stroke:#1f77b4;" x="120.884111" xlink:href="#m903137899e" y="101.758347"/>
     <use style="fill:#1f77b4;stroke:#1f77b4;" x="106.768696" xlink:href="#m903137899e" y="70.902778"/>
     <use style="fill:#1f77b4;stroke:#1f77b4;" x="130.294387" xlink:href="#m903137899e" y="96.78287"/>
     <use style="fill:#1f77b4;stroke:#1f77b4;" x="134.999526" xlink:href="#m903137899e" y="108.111513"/>
     <use style="fill:#1f77b4;stroke:#1f77b4;" x="92.653281" xlink:href="#m903137899e" y="64.718698"/>
     <use style="fill:#1f77b4;stroke:#1f77b4;" x="139.704664" xlink:href="#m903137899e" y="113.189871"/>
     <use style="fill:#1f77b4;stroke:#1f77b4;" x="158.525217" xlink:href="#m903137899e" y="115.484898"/>
     <use style="fill:#1f77b4;stroke:#1f77b4;" x="200.871462" xlink:href="#m903137899e" y="144.4571"/>
     <use style="fill:#1f77b4;stroke:#1f77b4;" x="153.820079" xlink:href="#m903137899e" y="114.217887"/>
     <use style="fill:#1f77b4;stroke:#1f77b4;" x="130.294387" xlink:href="#m903137899e" y="113.678174"/>
     <use style="fill:#1f77b4;stroke:#1f77b4;" x="191.461186" xlink:href="#m903137899e" y="125.2998"/>
     <use style="fill:#1f77b4;stroke:#1f77b4;" x="134.999526" xlink:href="#m903137899e" y="79.866486"/>
     <use style="fill:#1f77b4;stroke:#1f77b4;" x="144.409802" xlink:href="#m903137899e" y="103.977574"/>
     <use style="fill:#1f77b4;stroke:#1f77b4;" x="111.473834" xlink:href="#m903137899e" y="89.214164"/>
     <use style="fill:#1f77b4;stroke:#1f77b4;" x="106.768696" xlink:href="#m903137899e" y="75.660387"/>
     <use style="fill:#1f77b4;stroke:#1f77b4;" x="139.704664" xlink:href="#m903137899e" y="80.131716"/>
     <use style="fill:#1f77b4;stroke:#1f77b4;" x="134.999526" xlink:href="#m903137899e" y="122.050855"/>
     <use style="fill:#1f77b4;stroke:#1f77b4;" x="149.114941" xlink:href="#m903137899e" y="105.865317"/>
     <use style="fill:#1f77b4;stroke:#1f77b4;" x="134.999526" xlink:href="#m903137899e" y="92.572505"/>
     <use style="fill:#1f77b4;stroke:#1f77b4;" x="163.230356" xlink:href="#m903137899e" y="142.783851"/>
     <use style="fill:#1f77b4;stroke:#1f77b4;" x="125.589249" xlink:href="#m903137899e" y="104.185834"/>
     <use style="fill:#1f77b4;stroke:#1f77b4;" x="167.935494" xlink:href="#m903137899e" y="141.755632"/>
     <use style="fill:#1f77b4;stroke:#1f77b4;" x="144.409802" xlink:href="#m903137899e" y="125.836934"/>
     <use style="fill:#1f77b4;stroke:#1f77b4;" x="102.063557" xlink:href="#m903137899e" y="68.558921"/>
     <use style="fill:#1f77b4;stroke:#1f77b4;" x="116.178972" xlink:href="#m903137899e" y="111.056039"/>
     <use style="fill:#1f77b4;stroke:#1f77b4;" x="111.473834" xlink:href="#m903137899e" y="68.41243"/>
     <use style="fill:#1f77b4;stroke:#1f77b4;" x="238.512569" xlink:href="#m903137899e" y="181.747698"/>
     <use style="fill:#1f77b4;stroke:#1f77b4;" x="149.114941" xlink:href="#m903137899e" y="129.075801"/>
     <use style="fill:#1f77b4;stroke:#1f77b4;" x="210.281739" xlink:href="#m903137899e" y="149.56849"/>
     <use style="fill:#1f77b4;stroke:#1f77b4;" x="177.345771" xlink:href="#m903137899e" y="93.120592"/>
     <use style="fill:#1f77b4;stroke:#1f77b4;" x="134.999526" xlink:href="#m903137899e" y="119.488987"/>
     <use style="fill:#1f77b4;stroke:#1f77b4;" x="167.935494" xlink:href="#m903137899e" y="102.930542"/>
     <use style="fill:#1f77b4;stroke:#1f77b4;" x="182.050909" xlink:href="#m903137899e" y="145.469818"/>
     <use style="fill:#1f77b4;stroke:#1f77b4;" x="158.525217" xlink:href="#m903137899e" y="119.537818"/>
     <use style="fill:#1f77b4;stroke:#1f77b4;" x="116.178972" xlink:href="#m903137899e" y="105.377013"/>
     <use style="fill:#1f77b4;stroke:#1f77b4;" x="97.358419" xlink:href="#m903137899e" y="75.932305"/>
     <use style="fill:#1f77b4;stroke:#1f77b4;" x="106.768696" xlink:href="#m903137899e" y="72.720736"/>
     <use style="fill:#1f77b4;stroke:#1f77b4;" x="144.409802" xlink:href="#m903137899e" y="75.541662"/>
     <use style="fill:#1f77b4;stroke:#1f77b4;" x="120.884111" xlink:href="#m903137899e" y="83.03238"/>
     <use style="fill:#1f77b4;stroke:#1f77b4;" x="186.756047" xlink:href="#m903137899e" y="135.651837"/>
     <use style="fill:#1f77b4;stroke:#1f77b4;" x="116.178972" xlink:href="#m903137899e" y="83.940485"/>
     <use style="fill:#1f77b4;stroke:#1f77b4;" x="205.576601" xlink:href="#m903137899e" y="130.799896"/>
     <use style="fill:#1f77b4;stroke:#1f77b4;" x="182.050909" xlink:href="#m903137899e" y="101.763566"/>
     <use style="fill:#1f77b4;stroke:#1f77b4;" x="200.871462" xlink:href="#m903137899e" y="163.186785"/>
     <use style="fill:#1f77b4;stroke:#1f77b4;" x="149.114941" xlink:href="#m903137899e" y="117.535773"/>
     <use style="fill:#1f77b4;stroke:#1f77b4;" x="243.217708" xlink:href="#m903137899e" y="146.150365"/>
     <use style="fill:#1f77b4;stroke:#1f77b4;" x="130.294387" xlink:href="#m903137899e" y="113.482853"/>
     <use style="fill:#1f77b4;stroke:#1f77b4;" x="158.525217" xlink:href="#m903137899e" y="124.860327"/>
     <use style="fill:#1f77b4;stroke:#1f77b4;" x="130.294387" xlink:href="#m903137899e" y="94.487843"/>
     <use style="fill:#1f77b4;stroke:#1f77b4;" x="177.345771" xlink:href="#m903137899e" y="138.651068"/>
     <use style="fill:#1f77b4;stroke:#1f77b4;" x="177.345771" xlink:href="#m903137899e" y="95.806262"/>
     <use style="fill:#1f77b4;stroke:#1f77b4;" x="243.217708" xlink:href="#m903137899e" y="191.269618"/>
     <use style="fill:#1f77b4;stroke:#1f77b4;" x="186.756047" xlink:href="#m903137899e" y="127.545997"/>
     <use style="fill:#1f77b4;stroke:#1f77b4;" x="205.576601" xlink:href="#m903137899e" y="148.743499"/>
     <use style="fill:#1f77b4;stroke:#1f77b4;" x="224.397154" xlink:href="#m903137899e" y="195.904518"/>
     <use style="fill:#1f77b4;stroke:#1f77b4;" x="144.409802" xlink:href="#m903137899e" y="109.527594"/>
     <use style="fill:#1f77b4;stroke:#1f77b4;" x="177.345771" xlink:href="#m903137899e" y="110.797183"/>
     <use style="fill:#1f77b4;stroke:#1f77b4;" x="172.640632" xlink:href="#m903137899e" y="168.527999"/>
     <use style="fill:#1f77b4;stroke:#1f77b4;" x="167.935494" xlink:href="#m903137899e" y="167.475482"/>
     <use style="fill:#1f77b4;stroke:#1f77b4;" x="158.525217" xlink:href="#m903137899e" y="151.619365"/>
     <use style="fill:#1f77b4;stroke:#1f77b4;" x="158.525217" xlink:href="#m903137899e" y="113.678174"/>
     <use style="fill:#1f77b4;stroke:#1f77b4;" x="134.999526" xlink:href="#m903137899e" y="80.961833"/>
     <use style="fill:#1f77b4;stroke:#1f77b4;" x="276.153676" xlink:href="#m903137899e" y="219.879022"/>
     <use style="fill:#1f77b4;stroke:#1f77b4;" x="134.999526" xlink:href="#m903137899e" y="100.126241"/>
     <use style="fill:#1f77b4;stroke:#1f77b4;" x="106.768696" xlink:href="#m903137899e" y="65.72676"/>
     <use style="fill:#1f77b4;stroke:#1f77b4;" x="182.050909" xlink:href="#m903137899e" y="140.789916"/>
     <use style="fill:#1f77b4;stroke:#1f77b4;" x="153.820079" xlink:href="#m903137899e" y="104.102673"/>
     <use style="fill:#1f77b4;stroke:#1f77b4;" x="233.807431" xlink:href="#m903137899e" y="168.194733"/>
     <use style="fill:#1f77b4;stroke:#1f77b4;" x="252.627984" xlink:href="#m903137899e" y="136.172345"/>
     <use style="fill:#1f77b4;stroke:#1f77b4;" x="177.345771" xlink:href="#m903137899e" y="70.756287"/>
     <use style="fill:#1f77b4;stroke:#1f77b4;" x="153.820079" xlink:href="#m903137899e" y="94.536673"/>
     <use style="fill:#1f77b4;stroke:#1f77b4;" x="120.884111" xlink:href="#m903137899e" y="73.834709"/>
     <use style="fill:#1f77b4;stroke:#1f77b4;" x="238.512569" xlink:href="#m903137899e" y="131.626403"/>
     <use style="fill:#1f77b4;stroke:#1f77b4;" x="224.397154" xlink:href="#m903137899e" y="93.084356"/>
     <use style="fill:#1f77b4;stroke:#1f77b4;" x="247.922846" xlink:href="#m903137899e" y="209.397167"/>
     <use style="fill:#1f77b4;stroke:#1f77b4;" x="200.871462" xlink:href="#m903137899e" y="182.750853"/>
     <use style="fill:#1f77b4;stroke:#1f77b4;" x="158.525217" xlink:href="#m903137899e" y="142.683409"/>
     <use style="fill:#1f77b4;stroke:#1f77b4;" x="163.230356" xlink:href="#m903137899e" y="139.025616"/>
     <use style="fill:#1f77b4;stroke:#1f77b4;" x="219.692016" xlink:href="#m903137899e" y="201.098521"/>
     <use style="fill:#1f77b4;stroke:#1f77b4;" x="205.576601" xlink:href="#m903137899e" y="115.66564"/>
     <use style="fill:#1f77b4;stroke:#1f77b4;" x="149.114941" xlink:href="#m903137899e" y="110.455371"/>
     <use style="fill:#1f77b4;stroke:#1f77b4;" x="196.166324" xlink:href="#m903137899e" y="149.502799"/>
     <use style="fill:#1f77b4;stroke:#1f77b4;" x="205.576601" xlink:href="#m903137899e" y="96.817121"/>
     <use style="fill:#1f77b4;stroke:#1f77b4;" x="271.448538" xlink:href="#m903137899e" y="172.069692"/>
     <use style="fill:#1f77b4;stroke:#1f77b4;" x="120.884111" xlink:href="#m903137899e" y="81.401306"/>
     <use style="fill:#1f77b4;stroke:#1f77b4;" x="153.820079" xlink:href="#m903137899e" y="113.003831"/>
     <use style="fill:#1f77b4;stroke:#1f77b4;" x="205.576601" xlink:href="#m903137899e" y="119.245023"/>
     <use style="fill:#1f77b4;stroke:#1f77b4;" x="205.576601" xlink:href="#m903137899e" y="200.17387"/>
     <use style="fill:#1f77b4;stroke:#1f77b4;" x="210.281739" xlink:href="#m903137899e" y="133.86088"/>
     <use style="fill:#1f77b4;stroke:#1f77b4;" x="271.448538" xlink:href="#m903137899e" y="155.201451"/>
     <use style="fill:#1f77b4;stroke:#1f77b4;" x="163.230356" xlink:href="#m903137899e" y="93.706557"/>
     <use style="fill:#1f77b4;stroke:#1f77b4;" x="276.153676" xlink:href="#m903137899e" y="161.092455"/>
     <use style="fill:#1f77b4;stroke:#1f77b4;" x="196.166324" xlink:href="#m903137899e" y="137.588707"/>
     <use style="fill:#1f77b4;stroke:#1f77b4;" x="177.345771" xlink:href="#m903137899e" y="106.107859"/>
     <use style="fill:#1f77b4;stroke:#1f77b4;" x="186.756047" xlink:href="#m903137899e" y="95.055009"/>
     <use style="fill:#1f77b4;stroke:#1f77b4;" x="177.345771" xlink:href="#m903137899e" y="122.028166"/>
     <use style="fill:#1f77b4;stroke:#1f77b4;" x="177.345771" xlink:href="#m903137899e" y="124.888828"/>
     <use style="fill:#1f77b4;stroke:#1f77b4;" x="158.525217" xlink:href="#m903137899e" y="105.940133"/>
     <use style="fill:#1f77b4;stroke:#1f77b4;" x="243.217708" xlink:href="#m903137899e" y="117.83263"/>
     <use style="fill:#1f77b4;stroke:#1f77b4;" x="200.871462" xlink:href="#m903137899e" y="173.819038"/>
     <use style="fill:#1f77b4;stroke:#1f77b4;" x="167.935494" xlink:href="#m903137899e" y="151.668195"/>
     <use style="fill:#1f77b4;stroke:#1f77b4;" x="257.333123" xlink:href="#m903137899e" y="192.392717"/>
     <use style="fill:#1f77b4;stroke:#1f77b4;" x="252.627984" xlink:href="#m903137899e" y="150.98457"/>
     <use style="fill:#1f77b4;stroke:#1f77b4;" x="182.050909" xlink:href="#m903137899e" y="111.681302"/>
     <use style="fill:#1f77b4;stroke:#1f77b4;" x="219.692016" xlink:href="#m903137899e" y="144.734284"/>
     <use style="fill:#1f77b4;stroke:#1f77b4;" x="153.820079" xlink:href="#m903137899e" y="124.697898"/>
     <use style="fill:#1f77b4;stroke:#1f77b4;" x="172.640632" xlink:href="#m903137899e" y="119.000684"/>
     <use style="fill:#1f77b4;stroke:#1f77b4;" x="172.640632" xlink:href="#m903137899e" y="164.458484"/>
     <use style="fill:#1f77b4;stroke:#1f77b4;" x="285.563953" xlink:href="#m903137899e" y="197.647191"/>
     <use style="fill:#1f77b4;stroke:#1f77b4;" x="243.217708" xlink:href="#m903137899e" y="224.365337"/>
     <use style="fill:#1f77b4;stroke:#1f77b4;" x="200.871462" xlink:href="#m903137899e" y="178.84383"/>
     <use style="fill:#1f77b4;stroke:#1f77b4;" x="247.922846" xlink:href="#m903137899e" y="134.323526"/>
     <use style="fill:#1f77b4;stroke:#1f77b4;" x="252.627984" xlink:href="#m903137899e" y="136.04248"/>
     <use style="fill:#1f77b4;stroke:#1f77b4;" x="214.986877" xlink:href="#m903137899e" y="161.01803"/>
     <use style="fill:#1f77b4;stroke:#1f77b4;" x="309.089644" xlink:href="#m903137899e" y="180.917582"/>
     <use style="fill:#1f77b4;stroke:#1f77b4;" x="196.166324" xlink:href="#m903137899e" y="109.478763"/>
     <use style="fill:#1f77b4;stroke:#1f77b4;" x="139.704664" xlink:href="#m903137899e" y="60.233211"/>
     <use style="fill:#1f77b4;stroke:#1f77b4;" x="177.345771" xlink:href="#m903137899e" y="136.262959"/>
     <use style="fill:#1f77b4;stroke:#1f77b4;" x="177.345771" xlink:href="#m903137899e" y="108.39962"/>
     <use style="fill:#1f77b4;stroke:#1f77b4;" x="262.038261" xlink:href="#m903137899e" y="175.009108"/>
     <use style="fill:#1f77b4;stroke:#1f77b4;" x="224.397154" xlink:href="#m903137899e" y="142.063599"/>
     <use style="fill:#1f77b4;stroke:#1f77b4;" x="172.640632" xlink:href="#m903137899e" y="107.769701"/>
     <use style="fill:#1f77b4;stroke:#1f77b4;" x="200.871462" xlink:href="#m903137899e" y="143.355408"/>
     <use style="fill:#1f77b4;stroke:#1f77b4;" x="233.807431" xlink:href="#m903137899e" y="162.698154"/>
     <use style="fill:#1f77b4;stroke:#1f77b4;" x="172.640632" xlink:href="#m903137899e" y="136.809156"/>
     <use style="fill:#1f77b4;stroke:#1f77b4;" x="257.333123" xlink:href="#m903137899e" y="149.781718"/>
     <use style="fill:#1f77b4;stroke:#1f77b4;" x="186.756047" xlink:href="#m903137899e" y="179.627163"/>
     <use style="fill:#1f77b4;stroke:#1f77b4;" x="177.345771" xlink:href="#m903137899e" y="116.607996"/>
     <use style="fill:#1f77b4;stroke:#1f77b4;" x="290.269091" xlink:href="#m903137899e" y="179.612491"/>
     <use style="fill:#1f77b4;stroke:#1f77b4;" x="224.397154" xlink:href="#m903137899e" y="129.258216"/>
     <use style="fill:#1f77b4;stroke:#1f77b4;" x="229.102292" xlink:href="#m903137899e" y="175.34803"/>
     <use style="fill:#1f77b4;stroke:#1f77b4;" x="229.102292" xlink:href="#m903137899e" y="214.322736"/>
     <use style="fill:#1f77b4;stroke:#1f77b4;" x="205.576601" xlink:href="#m903137899e" y="145.950684"/>
     <use style="fill:#1f77b4;stroke:#1f77b4;" x="351.435889" xlink:href="#m903137899e" y="151.971975"/>
     <use style="fill:#1f77b4;stroke:#1f77b4;" x="233.807431" xlink:href="#m903137899e" y="161.098893"/>
     <use style="fill:#1f77b4;stroke:#1f77b4;" x="294.974229" xlink:href="#m903137899e" y="181.240175"/>
     <use style="fill:#1f77b4;stroke:#1f77b4;" x="313.794783" xlink:href="#m903137899e" y="244.702643"/>
     <use style="fill:#1f77b4;stroke:#1f77b4;" x="210.281739" xlink:href="#m903137899e" y="150.599818"/>
     <use style="fill:#1f77b4;stroke:#1f77b4;" x="398.487273" xlink:href="#m903137899e" y="295.488"/>
     <use style="fill:#1f77b4;stroke:#1f77b4;" x="219.692016" xlink:href="#m903137899e" y="100.957701"/>
     <use style="fill:#1f77b4;stroke:#1f77b4;" x="238.512569" xlink:href="#m903137899e" y="169.068242"/>
     <use style="fill:#1f77b4;stroke:#1f77b4;" x="370.256443" xlink:href="#m903137899e" y="255.07504"/>
     <use style="fill:#1f77b4;stroke:#1f77b4;" x="318.499921" xlink:href="#m903137899e" y="279.317463"/>
     <use style="fill:#1f77b4;stroke:#1f77b4;" x="257.333123" xlink:href="#m903137899e" y="154.582891"/>
     <use style="fill:#1f77b4;stroke:#1f77b4;" x="299.679368" xlink:href="#m903137899e" y="164.41292"/>
     <use style="fill:#1f77b4;stroke:#1f77b4;" x="219.692016" xlink:href="#m903137899e" y="113.419616"/>
     <use style="fill:#1f77b4;stroke:#1f77b4;" x="229.102292" xlink:href="#m903137899e" y="192.785344"/>
     <use style="fill:#1f77b4;stroke:#1f77b4;" x="191.461186" xlink:href="#m903137899e" y="207.750935"/>
     <use style="fill:#1f77b4;stroke:#1f77b4;" x="356.141028" xlink:href="#m903137899e" y="245.100505"/>
     <use style="fill:#1f77b4;stroke:#1f77b4;" x="247.922846" xlink:href="#m903137899e" y="170.615797"/>
    </g>
   </g>
   <g id="patch_3">
    <path d="M 57.6 307.584 
L 57.6 41.472 
" style="fill:none;stroke:#000000;stroke-linecap:square;stroke-linejoin:miter;stroke-width:0.8;"/>
   </g>
   <g id="patch_4">
    <path d="M 414.72 307.584 
L 414.72 41.472 
" style="fill:none;stroke:#000000;stroke-linecap:square;stroke-linejoin:miter;stroke-width:0.8;"/>
   </g>
   <g id="patch_5">
    <path d="M 57.6 307.584 
L 414.72 307.584 
" style="fill:none;stroke:#000000;stroke-linecap:square;stroke-linejoin:miter;stroke-width:0.8;"/>
   </g>
   <g id="patch_6">
    <path d="M 57.6 41.472 
L 414.72 41.472 
" style="fill:none;stroke:#000000;stroke-linecap:square;stroke-linejoin:miter;stroke-width:0.8;"/>
   </g>
  </g>
 </g>
 <defs>
  <clipPath id="p0fa17d9c05">
   <rect height="266.112" width="357.12" x="57.6" y="41.472"/>
  </clipPath>
 </defs>
</svg>
