<?xml version="1.0" encoding="utf-8" standalone="no"?>
<!DOCTYPE svg PUBLIC "-//W3C//DTD SVG 1.1//EN"
  "http://www.w3.org/Graphics/SVG/1.1/DTD/svg11.dtd">
<!-- Created with matplotlib (https://matplotlib.org/) -->
<svg height="345.6pt" version="1.1" viewBox="0 0 460.8 345.6" width="460.8pt" xmlns="http://www.w3.org/2000/svg" xmlns:xlink="http://www.w3.org/1999/xlink">
 <defs>
  <style type="text/css">
*{stroke-linecap:butt;stroke-linejoin:round;}
  </style>
 </defs>
 <g id="figure_1">
  <g id="patch_1">
   <path d="M 0 345.6 
L 460.8 345.6 
L 460.8 0 
L 0 0 
z
" style="fill:#ffffff;"/>
  </g>
  <g id="axes_1">
   <g id="patch_2">
    <path d="M 57.6 307.584 
L 414.72 307.584 
L 414.72 41.472 
L 57.6 41.472 
z
" style="fill:#ffffff;"/>
   </g>
   <g id="matplotlib.axis_1">
    <g id="xtick_1">
     <g id="line2d_1">
      <defs>
       <path d="M 0 0 
L 0 3.5 
" id="mfd83b329d0" style="stroke:#000000;stroke-width:0.8;"/>
      </defs>
      <g>
       <use style="stroke:#000000;stroke-width:0.8;" x="65.508252" xlink:href="#mfd83b329d0" y="307.584"/>
      </g>
     </g>
     <g id="text_1">
      <!-- 0 -->
      <defs>
       <path d="M 31.78125 66.40625 
Q 24.171875 66.40625 20.328125 58.90625 
Q 16.5 51.421875 16.5 36.375 
Q 16.5 21.390625 20.328125 13.890625 
Q 24.171875 6.390625 31.78125 6.390625 
Q 39.453125 6.390625 43.28125 13.890625 
Q 47.125 21.390625 47.125 36.375 
Q 47.125 51.421875 43.28125 58.90625 
Q 39.453125 66.40625 31.78125 66.40625 
z
M 31.78125 74.21875 
Q 44.046875 74.21875 50.515625 64.515625 
Q 56.984375 54.828125 56.984375 36.375 
Q 56.984375 17.96875 50.515625 8.265625 
Q 44.046875 -1.421875 31.78125 -1.421875 
Q 19.53125 -1.421875 13.0625 8.265625 
Q 6.59375 17.96875 6.59375 36.375 
Q 6.59375 54.828125 13.0625 64.515625 
Q 19.53125 74.21875 31.78125 74.21875 
z
" id="DejaVuSans-48"/>
      </defs>
      <g transform="translate(62.327002 322.182437)scale(0.1 -0.1)">
       <use xlink:href="#DejaVuSans-48"/>
      </g>
     </g>
    </g>
    <g id="xtick_2">
     <g id="line2d_2">
      <g>
       <use style="stroke:#000000;stroke-width:0.8;" x="107.130629" xlink:href="#mfd83b329d0" y="307.584"/>
      </g>
     </g>
     <g id="text_2">
      <!-- 10 -->
      <defs>
       <path d="M 12.40625 8.296875 
L 28.515625 8.296875 
L 28.515625 63.921875 
L 10.984375 60.40625 
L 10.984375 69.390625 
L 28.421875 72.90625 
L 38.28125 72.90625 
L 38.28125 8.296875 
L 54.390625 8.296875 
L 54.390625 0 
L 12.40625 0 
z
" id="DejaVuSans-49"/>
      </defs>
      <g transform="translate(100.768129 322.182437)scale(0.1 -0.1)">
       <use xlink:href="#DejaVuSans-49"/>
       <use x="63.623047" xlink:href="#DejaVuSans-48"/>
      </g>
     </g>
    </g>
    <g id="xtick_3">
     <g id="line2d_3">
      <g>
       <use style="stroke:#000000;stroke-width:0.8;" x="148.753007" xlink:href="#mfd83b329d0" y="307.584"/>
      </g>
     </g>
     <g id="text_3">
      <!-- 20 -->
      <defs>
       <path d="M 19.1875 8.296875 
L 53.609375 8.296875 
L 53.609375 0 
L 7.328125 0 
L 7.328125 8.296875 
Q 12.9375 14.109375 22.625 23.890625 
Q 32.328125 33.6875 34.8125 36.53125 
Q 39.546875 41.84375 41.421875 45.53125 
Q 43.3125 49.21875 43.3125 52.78125 
Q 43.3125 58.59375 39.234375 62.25 
Q 35.15625 65.921875 28.609375 65.921875 
Q 23.96875 65.921875 18.8125 64.3125 
Q 13.671875 62.703125 7.8125 59.421875 
L 7.8125 69.390625 
Q 13.765625 71.78125 18.9375 73 
Q 24.125 74.21875 28.421875 74.21875 
Q 39.75 74.21875 46.484375 68.546875 
Q 53.21875 62.890625 53.21875 53.421875 
Q 53.21875 48.921875 51.53125 44.890625 
Q 49.859375 40.875 45.40625 35.40625 
Q 44.1875 33.984375 37.640625 27.21875 
Q 31.109375 20.453125 19.1875 8.296875 
z
" id="DejaVuSans-50"/>
      </defs>
      <g transform="translate(142.390507 322.182437)scale(0.1 -0.1)">
       <use xlink:href="#DejaVuSans-50"/>
       <use x="63.623047" xlink:href="#DejaVuSans-48"/>
      </g>
     </g>
    </g>
    <g id="xtick_4">
     <g id="line2d_4">
      <g>
       <use style="stroke:#000000;stroke-width:0.8;" x="190.375385" xlink:href="#mfd83b329d0" y="307.584"/>
      </g>
     </g>
     <g id="text_4">
      <!-- 30 -->
      <defs>
       <path d="M 40.578125 39.3125 
Q 47.65625 37.796875 51.625 33 
Q 55.609375 28.21875 55.609375 21.1875 
Q 55.609375 10.40625 48.1875 4.484375 
Q 40.765625 -1.421875 27.09375 -1.421875 
Q 22.515625 -1.421875 17.65625 -0.515625 
Q 12.796875 0.390625 7.625 2.203125 
L 7.625 11.71875 
Q 11.71875 9.328125 16.59375 8.109375 
Q 21.484375 6.890625 26.8125 6.890625 
Q 36.078125 6.890625 40.9375 10.546875 
Q 45.796875 14.203125 45.796875 21.1875 
Q 45.796875 27.640625 41.28125 31.265625 
Q 36.765625 34.90625 28.71875 34.90625 
L 20.21875 34.90625 
L 20.21875 43.015625 
L 29.109375 43.015625 
Q 36.375 43.015625 40.234375 45.921875 
Q 44.09375 48.828125 44.09375 54.296875 
Q 44.09375 59.90625 40.109375 62.90625 
Q 36.140625 65.921875 28.71875 65.921875 
Q 24.65625 65.921875 20.015625 65.03125 
Q 15.375 64.15625 9.8125 62.3125 
L 9.8125 71.09375 
Q 15.4375 72.65625 20.34375 73.4375 
Q 25.25 74.21875 29.59375 74.21875 
Q 40.828125 74.21875 47.359375 69.109375 
Q 53.90625 64.015625 53.90625 55.328125 
Q 53.90625 49.265625 50.4375 45.09375 
Q 46.96875 40.921875 40.578125 39.3125 
z
" id="DejaVuSans-51"/>
      </defs>
      <g transform="translate(184.012885 322.182437)scale(0.1 -0.1)">
       <use xlink:href="#DejaVuSans-51"/>
       <use x="63.623047" xlink:href="#DejaVuSans-48"/>
      </g>
     </g>
    </g>
    <g id="xtick_5">
     <g id="line2d_5">
      <g>
       <use style="stroke:#000000;stroke-width:0.8;" x="231.997762" xlink:href="#mfd83b329d0" y="307.584"/>
      </g>
     </g>
     <g id="text_5">
      <!-- 40 -->
      <defs>
       <path d="M 37.796875 64.3125 
L 12.890625 25.390625 
L 37.796875 25.390625 
z
M 35.203125 72.90625 
L 47.609375 72.90625 
L 47.609375 25.390625 
L 58.015625 25.390625 
L 58.015625 17.1875 
L 47.609375 17.1875 
L 47.609375 0 
L 37.796875 0 
L 37.796875 17.1875 
L 4.890625 17.1875 
L 4.890625 26.703125 
z
" id="DejaVuSans-52"/>
      </defs>
      <g transform="translate(225.635262 322.182437)scale(0.1 -0.1)">
       <use xlink:href="#DejaVuSans-52"/>
       <use x="63.623047" xlink:href="#DejaVuSans-48"/>
      </g>
     </g>
    </g>
    <g id="xtick_6">
     <g id="line2d_6">
      <g>
       <use style="stroke:#000000;stroke-width:0.8;" x="273.62014" xlink:href="#mfd83b329d0" y="307.584"/>
      </g>
     </g>
     <g id="text_6">
      <!-- 50 -->
      <defs>
       <path d="M 10.796875 72.90625 
L 49.515625 72.90625 
L 49.515625 64.59375 
L 19.828125 64.59375 
L 19.828125 46.734375 
Q 21.96875 47.46875 24.109375 47.828125 
Q 26.265625 48.1875 28.421875 48.1875 
Q 40.625 48.1875 47.75 41.5 
Q 54.890625 34.8125 54.890625 23.390625 
Q 54.890625 11.625 47.5625 5.09375 
Q 40.234375 -1.421875 26.90625 -1.421875 
Q 22.3125 -1.421875 17.546875 -0.640625 
Q 12.796875 0.140625 7.71875 1.703125 
L 7.71875 11.625 
Q 12.109375 9.234375 16.796875 8.0625 
Q 21.484375 6.890625 26.703125 6.890625 
Q 35.15625 6.890625 40.078125 11.328125 
Q 45.015625 15.765625 45.015625 23.390625 
Q 45.015625 31 40.078125 35.4375 
Q 35.15625 39.890625 26.703125 39.890625 
Q 22.75 39.890625 18.8125 39.015625 
Q 14.890625 38.140625 10.796875 36.28125 
z
" id="DejaVuSans-53"/>
      </defs>
      <g transform="translate(267.25764 322.182437)scale(0.1 -0.1)">
       <use xlink:href="#DejaVuSans-53"/>
       <use x="63.623047" xlink:href="#DejaVuSans-48"/>
      </g>
     </g>
    </g>
    <g id="xtick_7">
     <g id="line2d_7">
      <g>
       <use style="stroke:#000000;stroke-width:0.8;" x="315.242517" xlink:href="#mfd83b329d0" y="307.584"/>
      </g>
     </g>
     <g id="text_7">
      <!-- 60 -->
      <defs>
       <path d="M 33.015625 40.375 
Q 26.375 40.375 22.484375 35.828125 
Q 18.609375 31.296875 18.609375 23.390625 
Q 18.609375 15.53125 22.484375 10.953125 
Q 26.375 6.390625 33.015625 6.390625 
Q 39.65625 6.390625 43.53125 10.953125 
Q 47.40625 15.53125 47.40625 23.390625 
Q 47.40625 31.296875 43.53125 35.828125 
Q 39.65625 40.375 33.015625 40.375 
z
M 52.59375 71.296875 
L 52.59375 62.3125 
Q 48.875 64.0625 45.09375 64.984375 
Q 41.3125 65.921875 37.59375 65.921875 
Q 27.828125 65.921875 22.671875 59.328125 
Q 17.53125 52.734375 16.796875 39.40625 
Q 19.671875 43.65625 24.015625 45.921875 
Q 28.375 48.1875 33.59375 48.1875 
Q 44.578125 48.1875 50.953125 41.515625 
Q 57.328125 34.859375 57.328125 23.390625 
Q 57.328125 12.15625 50.6875 5.359375 
Q 44.046875 -1.421875 33.015625 -1.421875 
Q 20.359375 -1.421875 13.671875 8.265625 
Q 6.984375 17.96875 6.984375 36.375 
Q 6.984375 53.65625 15.1875 63.9375 
Q 23.390625 74.21875 37.203125 74.21875 
Q 40.921875 74.21875 44.703125 73.484375 
Q 48.484375 72.75 52.59375 71.296875 
z
" id="DejaVuSans-54"/>
      </defs>
      <g transform="translate(308.880017 322.182437)scale(0.1 -0.1)">
       <use xlink:href="#DejaVuSans-54"/>
       <use x="63.623047" xlink:href="#DejaVuSans-48"/>
      </g>
     </g>
    </g>
    <g id="xtick_8">
     <g id="line2d_8">
      <g>
       <use style="stroke:#000000;stroke-width:0.8;" x="356.864895" xlink:href="#mfd83b329d0" y="307.584"/>
      </g>
     </g>
     <g id="text_8">
      <!-- 70 -->
      <defs>
       <path d="M 8.203125 72.90625 
L 55.078125 72.90625 
L 55.078125 68.703125 
L 28.609375 0 
L 18.3125 0 
L 43.21875 64.59375 
L 8.203125 64.59375 
z
" id="DejaVuSans-55"/>
      </defs>
      <g transform="translate(350.502395 322.182437)scale(0.1 -0.1)">
       <use xlink:href="#DejaVuSans-55"/>
       <use x="63.623047" xlink:href="#DejaVuSans-48"/>
      </g>
     </g>
    </g>
    <g id="xtick_9">
     <g id="line2d_9">
      <g>
       <use style="stroke:#000000;stroke-width:0.8;" x="398.487273" xlink:href="#mfd83b329d0" y="307.584"/>
      </g>
     </g>
     <g id="text_9">
      <!-- 80 -->
      <defs>
       <path d="M 31.78125 34.625 
Q 24.75 34.625 20.71875 30.859375 
Q 16.703125 27.09375 16.703125 20.515625 
Q 16.703125 13.921875 20.71875 10.15625 
Q 24.75 6.390625 31.78125 6.390625 
Q 38.8125 6.390625 42.859375 10.171875 
Q 46.921875 13.96875 46.921875 20.515625 
Q 46.921875 27.09375 42.890625 30.859375 
Q 38.875 34.625 31.78125 34.625 
z
M 21.921875 38.8125 
Q 15.578125 40.375 12.03125 44.71875 
Q 8.5 49.078125 8.5 55.328125 
Q 8.5 64.0625 14.71875 69.140625 
Q 20.953125 74.21875 31.78125 74.21875 
Q 42.671875 74.21875 48.875 69.140625 
Q 55.078125 64.0625 55.078125 55.328125 
Q 55.078125 49.078125 51.53125 44.71875 
Q 48 40.375 41.703125 38.8125 
Q 48.828125 37.15625 52.796875 32.3125 
Q 56.78125 27.484375 56.78125 20.515625 
Q 56.78125 9.90625 50.3125 4.234375 
Q 43.84375 -1.421875 31.78125 -1.421875 
Q 19.734375 -1.421875 13.25 4.234375 
Q 6.78125 9.90625 6.78125 20.515625 
Q 6.78125 27.484375 10.78125 32.3125 
Q 14.796875 37.15625 21.921875 38.8125 
z
M 18.3125 54.390625 
Q 18.3125 48.734375 21.84375 45.5625 
Q 25.390625 42.390625 31.78125 42.390625 
Q 38.140625 42.390625 41.71875 45.5625 
Q 45.3125 48.734375 45.3125 54.390625 
Q 45.3125 60.0625 41.71875 63.234375 
Q 38.140625 66.40625 31.78125 66.40625 
Q 25.390625 66.40625 21.84375 63.234375 
Q 18.3125 60.0625 18.3125 54.390625 
z
" id="DejaVuSans-56"/>
      </defs>
      <g transform="translate(392.124773 322.182437)scale(0.1 -0.1)">
       <use xlink:href="#DejaVuSans-56"/>
       <use x="63.623047" xlink:href="#DejaVuSans-48"/>
      </g>
     </g>
    </g>
   </g>
   <g id="matplotlib.axis_2">
    <g id="ytick_1">
     <g id="line2d_10">
      <defs>
       <path d="M 0 0 
L -3.5 0 
" id="m70091102a2" style="stroke:#000000;stroke-width:0.8;"/>
      </defs>
      <g>
       <use style="stroke:#000000;stroke-width:0.8;" x="57.6" xlink:href="#m70091102a2" y="255.705306"/>
      </g>
     </g>
     <g id="text_10">
      <!-- 0.2 -->
      <defs>
       <path d="M 10.6875 12.40625 
L 21 12.40625 
L 21 0 
L 10.6875 0 
z
" id="DejaVuSans-46"/>
      </defs>
      <g transform="translate(34.696875 259.504525)scale(0.1 -0.1)">
       <use xlink:href="#DejaVuSans-48"/>
       <use x="63.623047" xlink:href="#DejaVuSans-46"/>
       <use x="95.410156" xlink:href="#DejaVuSans-50"/>
      </g>
     </g>
    </g>
    <g id="ytick_2">
     <g id="line2d_11">
      <g>
       <use style="stroke:#000000;stroke-width:0.8;" x="57.6" xlink:href="#m70091102a2" y="201.587102"/>
      </g>
     </g>
     <g id="text_11">
      <!-- 0.4 -->
      <g transform="translate(34.696875 205.386321)scale(0.1 -0.1)">
       <use xlink:href="#DejaVuSans-48"/>
       <use x="63.623047" xlink:href="#DejaVuSans-46"/>
       <use x="95.410156" xlink:href="#DejaVuSans-52"/>
      </g>
     </g>
    </g>
    <g id="ytick_3">
     <g id="line2d_12">
      <g>
       <use style="stroke:#000000;stroke-width:0.8;" x="57.6" xlink:href="#m70091102a2" y="147.468898"/>
      </g>
     </g>
     <g id="text_12">
      <!-- 0.6 -->
      <g transform="translate(34.696875 151.268117)scale(0.1 -0.1)">
       <use xlink:href="#DejaVuSans-48"/>
       <use x="63.623047" xlink:href="#DejaVuSans-46"/>
       <use x="95.410156" xlink:href="#DejaVuSans-54"/>
      </g>
     </g>
    </g>
    <g id="ytick_4">
     <g id="line2d_13">
      <g>
       <use style="stroke:#000000;stroke-width:0.8;" x="57.6" xlink:href="#m70091102a2" y="93.350694"/>
      </g>
     </g>
     <g id="text_13">
      <!-- 0.8 -->
      <g transform="translate(34.696875 97.149912)scale(0.1 -0.1)">
       <use xlink:href="#DejaVuSans-48"/>
       <use x="63.623047" xlink:href="#DejaVuSans-46"/>
       <use x="95.410156" xlink:href="#DejaVuSans-56"/>
      </g>
     </g>
    </g>
   </g>
   <g id="line2d_14">
    <defs>
     <path d="M 0 3 
C 0.795609 3 1.55874 2.683901 2.12132 2.12132 
C 2.683901 1.55874 3 0.795609 3 0 
C 3 -0.795609 2.683901 -1.55874 2.12132 -2.12132 
C 1.55874 -2.683901 0.795609 -3 0 -3 
C -0.795609 -3 -1.55874 -2.683901 -2.12132 -2.12132 
C -2.683901 -1.55874 -3 -0.795609 -3 0 
C -3 0.795609 -2.683901 1.55874 -2.12132 2.12132 
C -1.55874 2.683901 -0.795609 3 0 3 
z
" id="m01eef819e8" style="stroke:#1f77b4;"/>
    </defs>
    <g clip-path="url(#p8ebceec9e9)">
     <use style="fill:#1f77b4;stroke:#1f77b4;" x="73.832727" xlink:href="#m01eef819e8" y="53.568"/>
     <use style="fill:#1f77b4;stroke:#1f77b4;" x="102.968392" xlink:href="#m01eef819e8" y="70.182659"/>
     <use style="fill:#1f77b4;stroke:#1f77b4;" x="119.617343" xlink:href="#m01eef819e8" y="62.453374"/>
     <use style="fill:#1f77b4;stroke:#1f77b4;" x="102.968392" xlink:href="#m01eef819e8" y="75.996138"/>
     <use style="fill:#1f77b4;stroke:#1f77b4;" x="136.266294" xlink:href="#m01eef819e8" y="80.653527"/>
     <use style="fill:#1f77b4;stroke:#1f77b4;" x="123.77958" xlink:href="#m01eef819e8" y="80.917776"/>
     <use style="fill:#1f77b4;stroke:#1f77b4;" x="144.590769" xlink:href="#m01eef819e8" y="90.761053"/>
     <use style="fill:#1f77b4;stroke:#1f77b4;" x="165.401958" xlink:href="#m01eef819e8" y="107.802358"/>
     <use style="fill:#1f77b4;stroke:#1f77b4;" x="144.590769" xlink:href="#m01eef819e8" y="78.209223"/>
     <use style="fill:#1f77b4;stroke:#1f77b4;" x="136.266294" xlink:href="#m01eef819e8" y="110.018202"/>
     <use style="fill:#1f77b4;stroke:#1f77b4;" x="144.590769" xlink:href="#m01eef819e8" y="95.583598"/>
     <use style="fill:#1f77b4;stroke:#1f77b4;" x="198.69986" xlink:href="#m01eef819e8" y="78.473472"/>
     <use style="fill:#1f77b4;stroke:#1f77b4;" x="157.077483" xlink:href="#m01eef819e8" y="93.766886"/>
     <use style="fill:#1f77b4;stroke:#1f77b4;" x="219.511049" xlink:href="#m01eef819e8" y="125.807082"/>
     <use style="fill:#1f77b4;stroke:#1f77b4;" x="240.322238" xlink:href="#m01eef819e8" y="145.427574"/>
     <use style="fill:#1f77b4;stroke:#1f77b4;" x="231.997762" xlink:href="#m01eef819e8" y="158.991245"/>
     <use style="fill:#1f77b4;stroke:#1f77b4;" x="194.537622" xlink:href="#m01eef819e8" y="118.342047"/>
     <use style="fill:#1f77b4;stroke:#1f77b4;" x="215.348811" xlink:href="#m01eef819e8" y="80.54138"/>
     <use style="fill:#1f77b4;stroke:#1f77b4;" x="198.69986" xlink:href="#m01eef819e8" y="122.378578"/>
     <use style="fill:#1f77b4;stroke:#1f77b4;" x="248.646713" xlink:href="#m01eef819e8" y="121.513035"/>
     <use style="fill:#1f77b4;stroke:#1f77b4;" x="281.944615" xlink:href="#m01eef819e8" y="133.481509"/>
     <use style="fill:#1f77b4;stroke:#1f77b4;" x="223.673287" xlink:href="#m01eef819e8" y="97.664559"/>
     <use style="fill:#1f77b4;stroke:#1f77b4;" x="227.835524" xlink:href="#m01eef819e8" y="125.111568"/>
     <use style="fill:#1f77b4;stroke:#1f77b4;" x="190.375385" xlink:href="#m01eef819e8" y="160.930019"/>
     <use style="fill:#1f77b4;stroke:#1f77b4;" x="281.944615" xlink:href="#m01eef819e8" y="109.489704"/>
     <use style="fill:#1f77b4;stroke:#1f77b4;" x="277.782378" xlink:href="#m01eef819e8" y="199.285377"/>
     <use style="fill:#1f77b4;stroke:#1f77b4;" x="298.593566" xlink:href="#m01eef819e8" y="176.729924"/>
     <use style="fill:#1f77b4;stroke:#1f77b4;" x="398.487273" xlink:href="#m01eef819e8" y="160.75182"/>
     <use style="fill:#1f77b4;stroke:#1f77b4;" x="227.835524" xlink:href="#m01eef819e8" y="92.342087"/>
     <use style="fill:#1f77b4;stroke:#1f77b4;" x="315.242517" xlink:href="#m01eef819e8" y="171.585502"/>
    </g>
   </g>
   <g id="line2d_15">
    <defs>
     <path d="M 0 3 
C 0.795609 3 1.55874 2.683901 2.12132 2.12132 
C 2.683901 1.55874 3 0.795609 3 0 
C 3 -0.795609 2.683901 -1.55874 2.12132 -2.12132 
C 1.55874 -2.683901 0.795609 -3 0 -3 
C -0.795609 -3 -1.55874 -2.683901 -2.12132 -2.12132 
C -2.683901 -1.55874 -3 -0.795609 -3 0 
C -3 0.795609 -2.683901 1.55874 -2.12132 2.12132 
C -1.55874 2.683901 -0.795609 3 0 3 
z
" id="m8df9f0c06d" style="stroke:#ff7f0e;"/>
    </defs>
    <g clip-path="url(#p8ebceec9e9)">
     <use style="fill:#ff7f0e;stroke:#ff7f0e;" x="73.832727" xlink:href="#m8df9f0c06d" y="295.488"/>
     <use style="fill:#ff7f0e;stroke:#ff7f0e;" x="102.968392" xlink:href="#m8df9f0c06d" y="278.873341"/>
     <use style="fill:#ff7f0e;stroke:#ff7f0e;" x="119.617343" xlink:href="#m8df9f0c06d" y="286.602626"/>
     <use style="fill:#ff7f0e;stroke:#ff7f0e;" x="102.968392" xlink:href="#m8df9f0c06d" y="273.059862"/>
     <use style="fill:#ff7f0e;stroke:#ff7f0e;" x="136.266294" xlink:href="#m8df9f0c06d" y="268.402473"/>
     <use style="fill:#ff7f0e;stroke:#ff7f0e;" x="123.77958" xlink:href="#m8df9f0c06d" y="268.138224"/>
     <use style="fill:#ff7f0e;stroke:#ff7f0e;" x="144.590769" xlink:href="#m8df9f0c06d" y="258.294947"/>
     <use style="fill:#ff7f0e;stroke:#ff7f0e;" x="165.401958" xlink:href="#m8df9f0c06d" y="241.253642"/>
     <use style="fill:#ff7f0e;stroke:#ff7f0e;" x="144.590769" xlink:href="#m8df9f0c06d" y="270.846777"/>
     <use style="fill:#ff7f0e;stroke:#ff7f0e;" x="136.266294" xlink:href="#m8df9f0c06d" y="239.037798"/>
     <use style="fill:#ff7f0e;stroke:#ff7f0e;" x="144.590769" xlink:href="#m8df9f0c06d" y="253.472402"/>
     <use style="fill:#ff7f0e;stroke:#ff7f0e;" x="198.69986" xlink:href="#m8df9f0c06d" y="270.582528"/>
     <use style="fill:#ff7f0e;stroke:#ff7f0e;" x="157.077483" xlink:href="#m8df9f0c06d" y="255.289114"/>
     <use style="fill:#ff7f0e;stroke:#ff7f0e;" x="219.511049" xlink:href="#m8df9f0c06d" y="223.248918"/>
     <use style="fill:#ff7f0e;stroke:#ff7f0e;" x="240.322238" xlink:href="#m8df9f0c06d" y="203.628426"/>
     <use style="fill:#ff7f0e;stroke:#ff7f0e;" x="231.997762" xlink:href="#m8df9f0c06d" y="190.064755"/>
     <use style="fill:#ff7f0e;stroke:#ff7f0e;" x="194.537622" xlink:href="#m8df9f0c06d" y="230.713953"/>
     <use style="fill:#ff7f0e;stroke:#ff7f0e;" x="215.348811" xlink:href="#m8df9f0c06d" y="268.51462"/>
     <use style="fill:#ff7f0e;stroke:#ff7f0e;" x="198.69986" xlink:href="#m8df9f0c06d" y="226.677422"/>
     <use style="fill:#ff7f0e;stroke:#ff7f0e;" x="248.646713" xlink:href="#m8df9f0c06d" y="227.542965"/>
     <use style="fill:#ff7f0e;stroke:#ff7f0e;" x="281.944615" xlink:href="#m8df9f0c06d" y="215.574491"/>
     <use style="fill:#ff7f0e;stroke:#ff7f0e;" x="223.673287" xlink:href="#m8df9f0c06d" y="251.391441"/>
     <use style="fill:#ff7f0e;stroke:#ff7f0e;" x="227.835524" xlink:href="#m8df9f0c06d" y="223.944432"/>
     <use style="fill:#ff7f0e;stroke:#ff7f0e;" x="190.375385" xlink:href="#m8df9f0c06d" y="188.125981"/>
     <use style="fill:#ff7f0e;stroke:#ff7f0e;" x="281.944615" xlink:href="#m8df9f0c06d" y="239.566296"/>
     <use style="fill:#ff7f0e;stroke:#ff7f0e;" x="277.782378" xlink:href="#m8df9f0c06d" y="149.770623"/>
     <use style="fill:#ff7f0e;stroke:#ff7f0e;" x="298.593566" xlink:href="#m8df9f0c06d" y="172.326076"/>
     <use style="fill:#ff7f0e;stroke:#ff7f0e;" x="398.487273" xlink:href="#m8df9f0c06d" y="188.30418"/>
     <use style="fill:#ff7f0e;stroke:#ff7f0e;" x="227.835524" xlink:href="#m8df9f0c06d" y="256.713913"/>
     <use style="fill:#ff7f0e;stroke:#ff7f0e;" x="315.242517" xlink:href="#m8df9f0c06d" y="177.470498"/>
    </g>
   </g>
   <g id="patch_3">
    <path d="M 57.6 307.584 
L 57.6 41.472 
" style="fill:none;stroke:#000000;stroke-linecap:square;stroke-linejoin:miter;stroke-width:0.8;"/>
   </g>
   <g id="patch_4">
    <path d="M 414.72 307.584 
L 414.72 41.472 
" style="fill:none;stroke:#000000;stroke-linecap:square;stroke-linejoin:miter;stroke-width:0.8;"/>
   </g>
   <g id="patch_5">
    <path d="M 57.6 307.584 
L 414.72 307.584 
" style="fill:none;stroke:#000000;stroke-linecap:square;stroke-linejoin:miter;stroke-width:0.8;"/>
   </g>
   <g id="patch_6">
    <path d="M 57.6 41.472 
L 414.72 41.472 
" style="fill:none;stroke:#000000;stroke-linecap:square;stroke-linejoin:miter;stroke-width:0.8;"/>
   </g>
  </g>
 </g>
 <defs>
  <clipPath id="p8ebceec9e9">
   <rect height="266.112" width="357.12" x="57.6" y="41.472"/>
  </clipPath>
 </defs>
</svg>
