<?xml version="1.0" encoding="utf-8" standalone="no"?>
<!DOCTYPE svg PUBLIC "-//W3C//DTD SVG 1.1//EN"
  "http://www.w3.org/Graphics/SVG/1.1/DTD/svg11.dtd">
<!-- Created with matplotlib (https://matplotlib.org/) -->
<svg height="204.68pt" version="1.1" viewBox="0 0 610.428 204.68" width="610.428pt" xmlns="http://www.w3.org/2000/svg" xmlns:xlink="http://www.w3.org/1999/xlink">
 <defs>
  <style type="text/css">
*{stroke-linecap:butt;stroke-linejoin:round;}
  </style>
 </defs>
 <g id="figure_1">
  <g id="patch_1">
   <path d="M 0 204.68 
L 610.428 204.68 
L 610.428 0 
L 0 0 
z
" style="fill:#ffffff;"/>
  </g>
  <g id="axes_1">
   <g id="line2d_1">
    <path clip-path="url(#pb2c66f98ae)" d="M 195.56873 61.6448 
L 543.22373 61.6448 
" style="fill:none;stroke:#000000;stroke-linecap:square;stroke-width:2;"/>
   </g>
   <g id="line2d_2">
    <path clip-path="url(#pb2c66f98ae)" d="M 195.56873 107.9988 
L 543.22373 107.9988 
" style="fill:none;stroke:#000000;stroke-linecap:square;stroke-width:2;"/>
   </g>
   <g id="line2d_3">
    <path clip-path="url(#pb2c66f98ae)" d="M 195.56873 152.846295 
L 543.22373 152.846295 
" style="fill:none;stroke:#778899;stroke-linecap:square;stroke-width:2;"/>
   </g>
   <g id="line2d_4">
    <path clip-path="url(#pb2c66f98ae)" d="M 195.56873 155.859305 
L 543.22373 155.859305 
" style="fill:none;stroke:#778899;stroke-linecap:square;stroke-width:2;"/>
   </g>
   <g id="line2d_5">
    <path clip-path="url(#pb2c66f98ae)" d="M 265.09973 107.9988 
L 265.09973 61.6448 
" style="fill:none;stroke:#bb8bff;stroke-linecap:square;stroke-width:2;"/>
   </g>
   <g id="line2d_6">
    <path clip-path="url(#pb2c66f98ae)" d="M 450.51573 107.9988 
L 450.51573 61.6448 
" style="fill:none;stroke:#bb8bff;stroke-linecap:square;stroke-width:2;"/>
   </g>
   <g id="line2d_7">
    <path clip-path="url(#pb2c66f98ae)" d="M 223.38113 158.9882 
L 228.01653 149.7174 
" style="fill:none;stroke:#778899;stroke-linecap:square;stroke-width:1.5;"/>
   </g>
   <g id="patch_2">
    <path clip-path="url(#pb2c66f98ae)" d="M 203.68068 76.70985 
L 233.81078 76.70985 
L 233.81078 46.57975 
L 203.68068 46.57975 
z
" style="fill:#05bab6;"/>
   </g>
   <g id="patch_3">
    <path clip-path="url(#pb2c66f98ae)" d="M 203.68068 123.06385 
L 233.81078 123.06385 
L 233.81078 92.93375 
L 203.68068 92.93375 
z
" style="fill:#05bab6;"/>
   </g>
   <g id="patch_4">
    <path clip-path="url(#pb2c66f98ae)" d="M 265.09973 66.164315 
C 266.298319 66.164315 267.447979 65.68811 268.29551 64.84058 
C 269.14304 63.993049 269.619245 62.843389 269.619245 61.6448 
C 269.619245 60.446211 269.14304 59.296551 268.29551 58.44902 
C 267.447979 57.60149 266.298319 57.125285 265.09973 57.125285 
C 263.901141 57.125285 262.751481 57.60149 261.90395 58.44902 
C 261.05642 59.296551 260.580215 60.446211 260.580215 61.6448 
C 260.580215 62.843389 261.05642 63.993049 261.90395 64.84058 
C 262.751481 65.68811 263.901141 66.164315 265.09973 66.164315 
z
" style="fill:#bb8bff;stroke:#bb8bff;stroke-linejoin:miter;stroke-width:1.5;"/>
   </g>
   <g id="patch_5">
    <path clip-path="url(#pb2c66f98ae)" d="M 250.03468 123.06385 
L 280.16478 123.06385 
L 280.16478 92.93375 
L 250.03468 92.93375 
z
" style="fill:#bb8bff;"/>
   </g>
   <g id="patch_6">
    <path clip-path="url(#pb2c66f98ae)" d="M 296.38868 76.70985 
L 326.51878 76.70985 
L 326.51878 46.57975 
L 296.38868 46.57975 
z
" style="fill:#05bab6;"/>
   </g>
   <g id="patch_7">
    <path clip-path="url(#pb2c66f98ae)" d="M 296.38868 123.06385 
L 326.51878 123.06385 
L 326.51878 92.93375 
L 296.38868 92.93375 
z
" style="fill:#05bab6;"/>
   </g>
   <g id="patch_8">
    <path clip-path="url(#pb2c66f98ae)" d="M 342.74268 76.70985 
L 372.87278 76.70985 
L 372.87278 46.57975 
L 342.74268 46.57975 
z
" style="fill:#6fa4ff;"/>
   </g>
   <g id="patch_9">
    <path clip-path="url(#pb2c66f98ae)" d="M 342.74268 123.06385 
L 372.87278 123.06385 
L 372.87278 92.93375 
L 342.74268 92.93375 
z
" style="fill:#6fa4ff;"/>
   </g>
   <g id="patch_10">
    <path clip-path="url(#pb2c66f98ae)" d="M 389.09668 76.70985 
L 419.22678 76.70985 
L 419.22678 46.57975 
L 389.09668 46.57975 
z
" style="fill:#05bab6;"/>
   </g>
   <g id="patch_11">
    <path clip-path="url(#pb2c66f98ae)" d="M 389.09668 123.06385 
L 419.22678 123.06385 
L 419.22678 92.93375 
L 389.09668 92.93375 
z
" style="fill:#05bab6;"/>
   </g>
   <g id="patch_12">
    <path clip-path="url(#pb2c66f98ae)" d="M 450.51573 66.164315 
C 451.714319 66.164315 452.863979 65.68811 453.71151 64.84058 
C 454.55904 63.993049 455.035245 62.843389 455.035245 61.6448 
C 455.035245 60.446211 454.55904 59.296551 453.71151 58.44902 
C 452.863979 57.60149 451.714319 57.125285 450.51573 57.125285 
C 449.317141 57.125285 448.167481 57.60149 447.31995 58.44902 
C 446.47242 59.296551 445.996215 60.446211 445.996215 61.6448 
C 445.996215 62.843389 446.47242 63.993049 447.31995 64.84058 
C 448.167481 65.68811 449.317141 66.164315 450.51573 66.164315 
z
" style="fill:#bb8bff;stroke:#bb8bff;stroke-linejoin:miter;stroke-width:1.5;"/>
   </g>
   <g id="patch_13">
    <path clip-path="url(#pb2c66f98ae)" d="M 435.45068 123.06385 
L 465.58078 123.06385 
L 465.58078 92.93375 
L 435.45068 92.93375 
z
" style="fill:#bb8bff;"/>
   </g>
   <g id="patch_14">
    <path clip-path="url(#pb2c66f98ae)" d="M 481.80468 76.70985 
L 511.93478 76.70985 
L 511.93478 46.57975 
L 481.80468 46.57975 
z
" style="fill:#6fa4ff;"/>
   </g>
   <g id="patch_15">
    <path clip-path="url(#pb2c66f98ae)" d="M 481.80468 123.06385 
L 511.93478 123.06385 
L 511.93478 92.93375 
L 481.80468 92.93375 
z
" style="fill:#6fa4ff;"/>
   </g>
   <g id="text_1">
    <g clip-path="url(#pb2c66f98ae)">
     <!-- $X$ -->
     <defs>
      <path d="M 13.71875 72.90625 
L 23.6875 72.90625 
L 36.1875 46.578125 
L 58.796875 72.90625 
L 70.3125 72.90625 
L 40.28125 38.09375 
L 58.40625 0 
L 48.484375 0 
L 33.796875 30.71875 
L 7.171875 0 
L -4.296875 0 
L 29.78125 39.203125 
z
" id="DejaVuSans-Oblique-88"/>
     </defs>
     <g transform="translate(214.26073 65.231988)scale(0.13 -0.13)">
      <use transform="translate(0 0.09375)" xlink:href="#DejaVuSans-Oblique-88"/>
     </g>
    </g>
   </g>
   <g id="text_2">
    <g clip-path="url(#pb2c66f98ae)">
     <!-- $X$ -->
     <g transform="translate(214.26073 111.585987)scale(0.13 -0.13)">
      <use transform="translate(0 0.09375)" xlink:href="#DejaVuSans-Oblique-88"/>
     </g>
    </g>
   </g>
   <g id="text_3">
    <g clip-path="url(#pb2c66f98ae)">
     <!-- $Z$ -->
     <defs>
      <path d="M 13.09375 72.90625 
L 70.3125 72.90625 
L 68.890625 65.375 
L 12.40625 8.296875 
L 58.890625 8.296875 
L 57.328125 0 
L -2.203125 0 
L -0.78125 7.515625 
L 55.71875 64.59375 
L 11.53125 64.59375 
z
" id="DejaVuSans-Oblique-90"/>
     </defs>
     <g transform="translate(260.61473 111.585987)scale(0.13 -0.13)">
      <use transform="translate(0 0.09375)" xlink:href="#DejaVuSans-Oblique-90"/>
     </g>
    </g>
   </g>
   <g id="text_4">
    <g clip-path="url(#pb2c66f98ae)">
     <!-- $X$ -->
     <g transform="translate(306.96873 65.231988)scale(0.13 -0.13)">
      <use transform="translate(0 0.09375)" xlink:href="#DejaVuSans-Oblique-88"/>
     </g>
    </g>
   </g>
   <g id="text_5">
    <g clip-path="url(#pb2c66f98ae)">
     <!-- $X$ -->
     <g transform="translate(306.96873 111.585987)scale(0.13 -0.13)">
      <use transform="translate(0 0.09375)" xlink:href="#DejaVuSans-Oblique-88"/>
     </g>
    </g>
   </g>
   <g id="text_6">
    <g clip-path="url(#pb2c66f98ae)">
     <!-- $H$ -->
     <defs>
      <path d="M 16.890625 72.90625 
L 26.8125 72.90625 
L 21 43.015625 
L 56.78125 43.015625 
L 62.59375 72.90625 
L 72.515625 72.90625 
L 58.296875 0 
L 48.390625 0 
L 55.171875 34.71875 
L 19.390625 34.71875 
L 12.59375 0 
L 2.6875 0 
z
" id="DejaVuSans-Oblique-72"/>
     </defs>
     <g transform="translate(352.86773 65.231988)scale(0.13 -0.13)">
      <use transform="translate(0 0.09375)" xlink:href="#DejaVuSans-Oblique-72"/>
     </g>
    </g>
   </g>
   <g id="text_7">
    <g clip-path="url(#pb2c66f98ae)">
     <!-- $H$ -->
     <g transform="translate(352.86773 111.585987)scale(0.13 -0.13)">
      <use transform="translate(0 0.09375)" xlink:href="#DejaVuSans-Oblique-72"/>
     </g>
    </g>
   </g>
   <g id="text_8">
    <g clip-path="url(#pb2c66f98ae)">
     <!-- $Z$ -->
     <g transform="translate(399.67673 65.231988)scale(0.13 -0.13)">
      <use transform="translate(0 0.09375)" xlink:href="#DejaVuSans-Oblique-90"/>
     </g>
    </g>
   </g>
   <g id="text_9">
    <g clip-path="url(#pb2c66f98ae)">
     <!-- $Z$ -->
     <g transform="translate(399.67673 111.585987)scale(0.13 -0.13)">
      <use transform="translate(0 0.09375)" xlink:href="#DejaVuSans-Oblique-90"/>
     </g>
    </g>
   </g>
   <g id="text_10">
    <g clip-path="url(#pb2c66f98ae)">
     <!-- $Z$ -->
     <g transform="translate(446.03073 111.585987)scale(0.13 -0.13)">
      <use transform="translate(0 0.09375)" xlink:href="#DejaVuSans-Oblique-90"/>
     </g>
    </g>
   </g>
   <g id="text_11">
    <g clip-path="url(#pb2c66f98ae)">
     <!-- $H$ -->
     <g transform="translate(491.92973 65.231988)scale(0.13 -0.13)">
      <use transform="translate(0 0.09375)" xlink:href="#DejaVuSans-Oblique-72"/>
     </g>
    </g>
   </g>
   <g id="text_12">
    <g clip-path="url(#pb2c66f98ae)">
     <!-- $H$ -->
     <g transform="translate(491.92973 111.585987)scale(0.13 -0.13)">
      <use transform="translate(0 0.09375)" xlink:href="#DejaVuSans-Oblique-72"/>
     </g>
    </g>
   </g>
   <g id="text_13">
    <g clip-path="url(#pb2c66f98ae)">
     <!-- ${q0}_{0}$ -->
     <defs>
      <path d="M 41.703125 8.203125 
Q 38.09375 3.46875 33.171875 1.015625 
Q 28.265625 -1.421875 22.3125 -1.421875 
Q 14.015625 -1.421875 9.296875 4.171875 
Q 4.59375 9.765625 4.59375 19.578125 
Q 4.59375 27.484375 7.5 34.859375 
Q 10.40625 42.234375 15.828125 48.09375 
Q 19.34375 51.90625 23.90625 53.953125 
Q 28.46875 56 33.5 56 
Q 39.546875 56 43.453125 53.609375 
Q 47.359375 51.21875 49.125 46.390625 
L 50.6875 54.59375 
L 59.71875 54.59375 
L 45.125 -20.609375 
L 36.078125 -20.609375 
z
M 13.921875 20.90625 
Q 13.921875 13.671875 16.9375 9.890625 
Q 19.96875 6.109375 25.6875 6.109375 
Q 34.1875 6.109375 40.1875 14.234375 
Q 46.1875 22.359375 46.1875 33.984375 
Q 46.1875 41.015625 43.078125 44.75 
Q 39.984375 48.484375 34.1875 48.484375 
Q 29.9375 48.484375 26.3125 46.5 
Q 22.703125 44.53125 20.015625 40.71875 
Q 17.1875 36.71875 15.546875 31.34375 
Q 13.921875 25.984375 13.921875 20.90625 
z
" id="DejaVuSans-Oblique-113"/>
      <path d="M 31.78125 66.40625 
Q 24.171875 66.40625 20.328125 58.90625 
Q 16.5 51.421875 16.5 36.375 
Q 16.5 21.390625 20.328125 13.890625 
Q 24.171875 6.390625 31.78125 6.390625 
Q 39.453125 6.390625 43.28125 13.890625 
Q 47.125 21.390625 47.125 36.375 
Q 47.125 51.421875 43.28125 58.90625 
Q 39.453125 66.40625 31.78125 66.40625 
z
M 31.78125 74.21875 
Q 44.046875 74.21875 50.515625 64.515625 
Q 56.984375 54.828125 56.984375 36.375 
Q 56.984375 17.96875 50.515625 8.265625 
Q 44.046875 -1.421875 31.78125 -1.421875 
Q 19.53125 -1.421875 13.0625 8.265625 
Q 6.59375 17.96875 6.59375 36.375 
Q 6.59375 54.828125 13.0625 64.515625 
Q 19.53125 74.21875 31.78125 74.21875 
z
" id="DejaVuSans-48"/>
     </defs>
     <g transform="translate(143.79173 66.095777)scale(0.1625 -0.1625)">
      <use transform="translate(0 0.78125)" xlink:href="#DejaVuSans-Oblique-113"/>
      <use transform="translate(63.476562 0.78125)" xlink:href="#DejaVuSans-48"/>
      <use transform="translate(128.056641 -15.625)scale(0.7)" xlink:href="#DejaVuSans-48"/>
     </g>
    </g>
   </g>
   <g id="text_14">
    <g clip-path="url(#pb2c66f98ae)">
     <!-- ${q0}_{1}$ -->
     <defs>
      <path d="M 12.40625 8.296875 
L 28.515625 8.296875 
L 28.515625 63.921875 
L 10.984375 60.40625 
L 10.984375 69.390625 
L 28.421875 72.90625 
L 38.28125 72.90625 
L 38.28125 8.296875 
L 54.390625 8.296875 
L 54.390625 0 
L 12.40625 0 
z
" id="DejaVuSans-49"/>
     </defs>
     <g transform="translate(143.79173 112.449777)scale(0.1625 -0.1625)">
      <use transform="translate(0 0.78125)" xlink:href="#DejaVuSans-Oblique-113"/>
      <use transform="translate(63.476562 0.78125)" xlink:href="#DejaVuSans-48"/>
      <use transform="translate(128.056641 -15.625)scale(0.7)" xlink:href="#DejaVuSans-49"/>
     </g>
    </g>
   </g>
   <g id="text_15">
    <g clip-path="url(#pb2c66f98ae)">
     <!-- 2 -->
     <defs>
      <path d="M 19.1875 8.296875 
L 53.609375 8.296875 
L 53.609375 0 
L 7.328125 0 
L 7.328125 8.296875 
Q 12.9375 14.109375 22.625 23.890625 
Q 32.328125 33.6875 34.8125 36.53125 
Q 39.546875 41.84375 41.421875 45.53125 
Q 43.3125 49.21875 43.3125 52.78125 
Q 43.3125 58.59375 39.234375 62.25 
Q 35.15625 65.921875 28.609375 65.921875 
Q 23.96875 65.921875 18.8125 64.3125 
Q 13.671875 62.703125 7.8125 59.421875 
L 7.8125 69.390625 
Q 13.765625 71.78125 18.9375 73 
Q 24.125 74.21875 28.421875 74.21875 
Q 39.75 74.21875 46.484375 68.546875 
Q 53.21875 62.890625 53.21875 53.421875 
Q 53.21875 48.921875 51.53125 44.890625 
Q 49.859375 40.875 45.40625 35.40625 
Q 44.1875 33.984375 37.640625 27.21875 
Q 31.109375 20.453125 19.1875 8.296875 
z
" id="DejaVuSans-50"/>
     </defs>
     <g transform="translate(218.74573 147.554525)scale(0.104 -0.104)">
      <use xlink:href="#DejaVuSans-50"/>
     </g>
    </g>
   </g>
   <g id="text_16">
    <g clip-path="url(#pb2c66f98ae)">
     <!-- $c0$ -->
     <defs>
      <path d="M 53.609375 52.59375 
L 51.8125 43.703125 
Q 48.578125 46.046875 44.9375 47.21875 
Q 41.3125 48.390625 37.40625 48.390625 
Q 33.109375 48.390625 29.21875 46.875 
Q 25.34375 45.359375 22.703125 42.578125 
Q 18.5 38.328125 16.203125 32.609375 
Q 13.921875 26.90625 13.921875 20.796875 
Q 13.921875 13.421875 17.609375 9.8125 
Q 21.296875 6.203125 28.8125 6.203125 
Q 32.515625 6.203125 36.6875 7.328125 
Q 40.875 8.453125 45.40625 10.6875 
L 43.703125 1.8125 
Q 39.796875 0.203125 35.671875 -0.609375 
Q 31.546875 -1.421875 27.203125 -1.421875 
Q 16.3125 -1.421875 10.453125 4.015625 
Q 4.59375 9.46875 4.59375 19.578125 
Q 4.59375 28.078125 7.640625 35.234375 
Q 10.6875 42.390625 16.703125 48.09375 
Q 20.796875 52 26.3125 54 
Q 31.84375 56 38.375 56 
Q 42.1875 56 45.9375 55.140625 
Q 49.703125 54.296875 53.609375 52.59375 
z
" id="DejaVuSans-Oblique-99"/>
     </defs>
     <g transform="translate(149.18673 159.733581)scale(0.195 -0.195)">
      <use transform="translate(0 0.78125)" xlink:href="#DejaVuSans-Oblique-99"/>
      <use transform="translate(54.980469 0.78125)" xlink:href="#DejaVuSans-48"/>
     </g>
    </g>
   </g>
  </g>
 </g>
 <defs>
  <clipPath id="pb2c66f98ae">
   <rect height="157.6036" width="470.02956" x="77.82957" y="24.5616"/>
  </clipPath>
 </defs>
</svg>
