<?xml version="1.0" encoding="utf-8" standalone="no"?>
<!DOCTYPE svg PUBLIC "-//W3C//DTD SVG 1.1//EN"
  "http://www.w3.org/Graphics/SVG/1.1/DTD/svg11.dtd">
<!-- Created with matplotlib (https://matplotlib.org/) -->
<svg height="1047.48pt" version="1.1" viewBox="0 0 1715.7 1047.48" width="1715.7pt" xmlns="http://www.w3.org/2000/svg" xmlns:xlink="http://www.w3.org/1999/xlink">
 <defs>
  <style type="text/css">
*{stroke-linecap:butt;stroke-linejoin:round;}
  </style>
 </defs>
 <g id="figure_1">
  <g id="patch_1">
   <path d="M 0 1047.48 
L 1715.7 1047.48 
L 1715.7 0 
L 0 0 
z
" style="fill:#ffffff;"/>
  </g>
  <g id="axes_1">
   <g id="line2d_1">
    <path clip-path="url(#pfbc7329420)" d="M 353.17835 162.7808 
L 1535.20535 162.7808 
" style="fill:none;stroke:#000000;stroke-linecap:square;stroke-width:2;"/>
   </g>
   <g id="line2d_2">
    <path clip-path="url(#pfbc7329420)" d="M 353.17835 209.1348 
L 1535.20535 209.1348 
" style="fill:none;stroke:#000000;stroke-linecap:square;stroke-width:2;"/>
   </g>
   <g id="line2d_3">
    <path clip-path="url(#pfbc7329420)" d="M 353.17835 255.4888 
L 1535.20535 255.4888 
" style="fill:none;stroke:#000000;stroke-linecap:square;stroke-width:2;"/>
   </g>
   <g id="line2d_4">
    <path clip-path="url(#pfbc7329420)" d="M 353.17835 301.8428 
L 1535.20535 301.8428 
" style="fill:none;stroke:#000000;stroke-linecap:square;stroke-width:2;"/>
   </g>
   <g id="line2d_5">
    <path clip-path="url(#pfbc7329420)" d="M 353.17835 348.1968 
L 1535.20535 348.1968 
" style="fill:none;stroke:#000000;stroke-linecap:square;stroke-width:2;"/>
   </g>
   <g id="line2d_6">
    <path clip-path="url(#pfbc7329420)" d="M 353.17835 394.5508 
L 1535.20535 394.5508 
" style="fill:none;stroke:#000000;stroke-linecap:square;stroke-width:2;"/>
   </g>
   <g id="line2d_7">
    <path clip-path="url(#pfbc7329420)" d="M 353.17835 440.9048 
L 1535.20535 440.9048 
" style="fill:none;stroke:#000000;stroke-linecap:square;stroke-width:2;"/>
   </g>
   <g id="line2d_8">
    <path clip-path="url(#pfbc7329420)" d="M 353.17835 487.2588 
L 1535.20535 487.2588 
" style="fill:none;stroke:#000000;stroke-linecap:square;stroke-width:2;"/>
   </g>
   <g id="line2d_9">
    <path clip-path="url(#pfbc7329420)" d="M 353.17835 579.9668 
L 1535.20535 579.9668 
" style="fill:none;stroke:#000000;stroke-linecap:square;stroke-width:2;"/>
   </g>
   <g id="line2d_10">
    <path clip-path="url(#pfbc7329420)" d="M 353.17835 626.3208 
L 1535.20535 626.3208 
" style="fill:none;stroke:#000000;stroke-linecap:square;stroke-width:2;"/>
   </g>
   <g id="line2d_11">
    <path clip-path="url(#pfbc7329420)" d="M 353.17835 672.6748 
L 1535.20535 672.6748 
" style="fill:none;stroke:#000000;stroke-linecap:square;stroke-width:2;"/>
   </g>
   <g id="line2d_12">
    <path clip-path="url(#pfbc7329420)" d="M 353.17835 719.0288 
L 1535.20535 719.0288 
" style="fill:none;stroke:#000000;stroke-linecap:square;stroke-width:2;"/>
   </g>
   <g id="line2d_13">
    <path clip-path="url(#pfbc7329420)" d="M 353.17835 765.3828 
L 1535.20535 765.3828 
" style="fill:none;stroke:#000000;stroke-linecap:square;stroke-width:2;"/>
   </g>
   <g id="line2d_14">
    <path clip-path="url(#pfbc7329420)" d="M 353.17835 811.7368 
L 1535.20535 811.7368 
" style="fill:none;stroke:#000000;stroke-linecap:square;stroke-width:2;"/>
   </g>
   <g id="line2d_15">
    <path clip-path="url(#pfbc7329420)" d="M 353.17835 858.0908 
L 1535.20535 858.0908 
" style="fill:none;stroke:#000000;stroke-linecap:square;stroke-width:2;"/>
   </g>
   <g id="line2d_16">
    <path clip-path="url(#pfbc7329420)" d="M 353.17835 904.4448 
L 1535.20535 904.4448 
" style="fill:none;stroke:#000000;stroke-linecap:square;stroke-width:2;"/>
   </g>
   <g id="line2d_17">
    <path clip-path="url(#pfbc7329420)" d="M 886.24935 487.2588 
L 886.24935 255.4888 
" style="fill:none;stroke:#6fa4ff;stroke-linecap:square;stroke-width:2;"/>
   </g>
   <g id="line2d_18">
    <path clip-path="url(#pfbc7329420)" d="M 1048.48835 487.2588 
L 1048.48835 255.4888 
" style="fill:none;stroke:#bb8bff;stroke-linecap:square;stroke-width:2;"/>
   </g>
   <g id="line2d_19">
    <path clip-path="url(#pfbc7329420)" d="M 1488.85135 487.2588 
L 1488.85135 255.4888 
" style="fill:none;stroke:#6fa4ff;stroke-linecap:square;stroke-width:2;"/>
   </g>
   <g id="line2d_20">
    <path clip-path="url(#pfbc7329420)" d="M 1507.39295 162.7808 
L 1507.39295 487.2588 
" style="fill:none;stroke:#000000;stroke-linecap:square;stroke-width:1.5;"/>
   </g>
   <g id="line2d_21">
    <path clip-path="url(#pfbc7329420)" d="M 1516.66375 162.7808 
L 1516.66375 487.2588 
" style="fill:none;stroke:#000000;stroke-linecap:square;stroke-width:1.5;"/>
   </g>
   <g id="line2d_22">
    <path clip-path="url(#pfbc7329420)" d="M 311.45975 579.9668 
L 311.45975 904.4448 
" style="fill:none;stroke:#000000;stroke-linecap:square;stroke-width:1.5;"/>
   </g>
   <g id="line2d_23">
    <path clip-path="url(#pfbc7329420)" d="M 320.73055 579.9668 
L 320.73055 904.4448 
" style="fill:none;stroke:#000000;stroke-linecap:square;stroke-width:1.5;"/>
   </g>
   <g id="patch_2">
    <path clip-path="url(#pfbc7329420)" d="M 370.5611 455.96985 
L 521.2116 455.96985 
L 521.2116 147.71575 
L 370.5611 147.71575 
z
" style="fill:#bb8bff;stroke:#bb8bff;stroke-linejoin:miter;stroke-width:1.5;"/>
   </g>
   <g id="patch_3">
    <path clip-path="url(#pfbc7329420)" d="M 579.1541 455.96985 
L 729.8046 455.96985 
L 729.8046 240.42375 
L 579.1541 240.42375 
z
" style="fill:#bb8bff;stroke:#bb8bff;stroke-linejoin:miter;stroke-width:1.5;"/>
   </g>
   <g id="patch_4">
    <path clip-path="url(#pfbc7329420)" d="M 779.055725 455.96985 
L 854.380975 455.96985 
L 854.380975 240.42375 
L 779.055725 240.42375 
z
" style="fill:#bb8bff;stroke:#bb8bff;stroke-linejoin:miter;stroke-width:1.5;"/>
   </g>
   <g id="patch_5">
    <path clip-path="url(#pfbc7329420)" d="M 886.24935 260.008315 
C 887.447939 260.008315 888.597599 259.53211 889.44513 258.68458 
C 890.29266 257.837049 890.768865 256.687389 890.768865 255.4888 
C 890.768865 254.290211 890.29266 253.140551 889.44513 252.29302 
C 888.597599 251.44549 887.447939 250.969285 886.24935 250.969285 
C 885.050761 250.969285 883.901101 251.44549 883.05357 252.29302 
C 882.20604 253.140551 881.729835 254.290211 881.729835 255.4888 
C 881.729835 256.687389 882.20604 257.837049 883.05357 258.68458 
C 883.901101 259.53211 885.050761 260.008315 886.24935 260.008315 
z
" style="fill:#6fa4ff;stroke:#6fa4ff;stroke-linejoin:miter;stroke-width:1.5;"/>
   </g>
   <g id="patch_6">
    <path clip-path="url(#pfbc7329420)" d="M 886.24935 497.804335 
C 889.046059 497.804335 891.728598 496.693191 893.706169 494.715619 
C 895.683741 492.738048 896.794885 490.055509 896.794885 487.2588 
C 896.794885 484.462091 895.683741 481.779552 893.706169 479.801981 
C 891.728598 477.824409 889.046059 476.713265 886.24935 476.713265 
C 883.452641 476.713265 880.770102 477.824409 878.792531 479.801981 
C 876.814959 481.779552 875.703815 484.462091 875.703815 487.2588 
C 875.703815 490.055509 876.814959 492.738048 878.792531 494.715619 
C 880.770102 496.693191 883.452641 497.804335 886.24935 497.804335 
z
" style="fill:#6fa4ff;stroke:#6fa4ff;stroke-linejoin:miter;stroke-width:2;"/>
   </g>
   <g id="patch_7">
    <path clip-path="url(#pfbc7329420)" d="M 917.5383 455.96985 
L 947.6684 455.96985 
L 947.6684 240.42375 
L 917.5383 240.42375 
z
" style="fill:#bb8bff;stroke:#bb8bff;stroke-linejoin:miter;stroke-width:1.5;"/>
   </g>
   <g id="patch_8">
    <path clip-path="url(#pfbc7329420)" d="M 1048.48835 491.778315 
C 1049.686939 491.778315 1050.836599 491.30211 1051.68413 490.45458 
C 1052.53166 489.607049 1053.007865 488.457389 1053.007865 487.2588 
C 1053.007865 486.060211 1052.53166 484.910551 1051.68413 484.06302 
C 1050.836599 483.21549 1049.686939 482.739285 1048.48835 482.739285 
C 1047.289761 482.739285 1046.140101 483.21549 1045.29257 484.06302 
C 1044.44504 484.910551 1043.968835 486.060211 1043.968835 487.2588 
C 1043.968835 488.457389 1044.44504 489.607049 1045.29257 490.45458 
C 1046.140101 491.30211 1047.289761 491.778315 1048.48835 491.778315 
z
" style="fill:#bb8bff;stroke:#bb8bff;stroke-linejoin:miter;stroke-width:1.5;"/>
   </g>
   <g id="patch_9">
    <path clip-path="url(#pfbc7329420)" d="M 973.1631 455.96985 
L 1123.8136 455.96985 
L 1123.8136 240.42375 
L 973.1631 240.42375 
z
" style="fill:#bb8bff;stroke:#bb8bff;stroke-linejoin:miter;stroke-width:1.5;"/>
   </g>
   <g id="patch_10">
    <path clip-path="url(#pfbc7329420)" d="M 1158.5791 455.96985 
L 1309.2296 455.96985 
L 1309.2296 147.71575 
L 1158.5791 147.71575 
z
" style="fill:#bb8bff;stroke:#bb8bff;stroke-linejoin:miter;stroke-width:1.5;"/>
   </g>
   <g id="patch_11">
    <path clip-path="url(#pfbc7329420)" d="M 1335.303725 455.96985 
L 1410.628975 455.96985 
L 1410.628975 240.42375 
L 1335.303725 240.42375 
z
" style="fill:#bb8bff;stroke:#bb8bff;stroke-linejoin:miter;stroke-width:1.5;"/>
   </g>
   <g id="patch_12">
    <path clip-path="url(#pfbc7329420)" d="M 1427.4323 270.55385 
L 1457.5624 270.55385 
L 1457.5624 240.42375 
L 1427.4323 240.42375 
z
" style="fill:#05bab6;"/>
   </g>
   <g id="patch_13">
    <path clip-path="url(#pfbc7329420)" d="M 1488.85135 260.008315 
C 1490.049939 260.008315 1491.199599 259.53211 1492.04713 258.68458 
C 1492.89466 257.837049 1493.370865 256.687389 1493.370865 255.4888 
C 1493.370865 254.290211 1492.89466 253.140551 1492.04713 252.29302 
C 1491.199599 251.44549 1490.049939 250.969285 1488.85135 250.969285 
C 1487.652761 250.969285 1486.503101 251.44549 1485.65557 252.29302 
C 1484.80804 253.140551 1484.331835 254.290211 1484.331835 255.4888 
C 1484.331835 256.687389 1484.80804 257.837049 1485.65557 258.68458 
C 1486.503101 259.53211 1487.652761 260.008315 1488.85135 260.008315 
z
" style="fill:#6fa4ff;stroke:#6fa4ff;stroke-linejoin:miter;stroke-width:1.5;"/>
   </g>
   <g id="patch_14">
    <path clip-path="url(#pfbc7329420)" d="M 1488.85135 497.804335 
C 1491.648059 497.804335 1494.330598 496.693191 1496.308169 494.715619 
C 1498.285741 492.738048 1499.396885 490.055509 1499.396885 487.2588 
C 1499.396885 484.462091 1498.285741 481.779552 1496.308169 479.801981 
C 1494.330598 477.824409 1491.648059 476.713265 1488.85135 476.713265 
C 1486.054641 476.713265 1483.372102 477.824409 1481.394531 479.801981 
C 1479.416959 481.779552 1478.305815 484.462091 1478.305815 487.2588 
C 1478.305815 490.055509 1479.416959 492.738048 1481.394531 494.715619 
C 1483.372102 496.693191 1486.054641 497.804335 1488.85135 497.804335 
z
" style="fill:#6fa4ff;stroke:#6fa4ff;stroke-linejoin:miter;stroke-width:2;"/>
   </g>
   <g id="patch_15">
    <path clip-path="url(#pfbc7329420)" d="M 361.2903 687.73985 
L 391.4204 687.73985 
L 391.4204 657.60975 
L 361.2903 657.60975 
z
" style="fill:#05bab6;"/>
   </g>
   <g id="patch_16">
    <path clip-path="url(#pfbc7329420)" d="M 407.6443 873.15585 
L 437.7744 873.15585 
L 437.7744 657.60975 
L 407.6443 657.60975 
z
" style="fill:#bb8bff;stroke:#bb8bff;stroke-linejoin:miter;stroke-width:1.5;"/>
   </g>
   <g id="patch_17">
    <path clip-path="url(#pfbc7329420)" d="M 463.2691 873.15585 
L 613.9196 873.15585 
L 613.9196 564.90175 
L 463.2691 564.90175 
z
" style="fill:#bb8bff;stroke:#bb8bff;stroke-linejoin:miter;stroke-width:1.5;"/>
   </g>
   <g id="line2d_24">
    <path clip-path="url(#pfbc7329420)" d="M 886.24935 493.28482 
L 886.24935 481.23278 
" style="fill:none;stroke:#ffffff;stroke-linecap:square;stroke-width:2;"/>
   </g>
   <g id="line2d_25">
    <path clip-path="url(#pfbc7329420)" d="M 880.22333 487.2588 
L 892.27537 487.2588 
" style="fill:none;stroke:#ffffff;stroke-linecap:square;stroke-width:2;"/>
   </g>
   <g id="line2d_26">
    <path clip-path="url(#pfbc7329420)" d="M 1488.85135 493.28482 
L 1488.85135 481.23278 
" style="fill:none;stroke:#ffffff;stroke-linecap:square;stroke-width:2;"/>
   </g>
   <g id="line2d_27">
    <path clip-path="url(#pfbc7329420)" d="M 1482.82533 487.2588 
L 1494.87737 487.2588 
" style="fill:none;stroke:#ffffff;stroke-linecap:square;stroke-width:2;"/>
   </g>
   <g id="text_1">
    <g clip-path="url(#pfbc7329420)">
     <!-- 0 -->
     <defs>
      <path d="M 31.78125 66.40625 
Q 24.171875 66.40625 20.328125 58.90625 
Q 16.5 51.421875 16.5 36.375 
Q 16.5 21.390625 20.328125 13.890625 
Q 24.171875 6.390625 31.78125 6.390625 
Q 39.453125 6.390625 43.28125 13.890625 
Q 47.125 21.390625 47.125 36.375 
Q 47.125 51.421875 43.28125 58.90625 
Q 39.453125 66.40625 31.78125 66.40625 
z
M 31.78125 74.21875 
Q 44.046875 74.21875 50.515625 64.515625 
Q 56.984375 54.828125 56.984375 36.375 
Q 56.984375 17.96875 50.515625 8.265625 
Q 44.046875 -1.421875 31.78125 -1.421875 
Q 19.53125 -1.421875 13.0625 8.265625 
Q 6.59375 17.96875 6.59375 36.375 
Q 6.59375 54.828125 13.0625 64.515625 
Q 19.53125 74.21875 31.78125 74.21875 
z
" id="DejaVuSans-48"/>
     </defs>
     <g transform="translate(378.093625 166.367988)scale(0.13 -0.13)">
      <use xlink:href="#DejaVuSans-48"/>
     </g>
    </g>
   </g>
   <g id="text_2">
    <g clip-path="url(#pfbc7329420)">
     <!-- 1 -->
     <defs>
      <path d="M 12.40625 8.296875 
L 28.515625 8.296875 
L 28.515625 63.921875 
L 10.984375 60.40625 
L 10.984375 69.390625 
L 28.421875 72.90625 
L 38.28125 72.90625 
L 38.28125 8.296875 
L 54.390625 8.296875 
L 54.390625 0 
L 12.40625 0 
z
" id="DejaVuSans-49"/>
     </defs>
     <g transform="translate(378.093625 212.721988)scale(0.13 -0.13)">
      <use xlink:href="#DejaVuSans-49"/>
     </g>
    </g>
   </g>
   <g id="text_3">
    <g clip-path="url(#pfbc7329420)">
     <!-- 2 -->
     <defs>
      <path d="M 19.1875 8.296875 
L 53.609375 8.296875 
L 53.609375 0 
L 7.328125 0 
L 7.328125 8.296875 
Q 12.9375 14.109375 22.625 23.890625 
Q 32.328125 33.6875 34.8125 36.53125 
Q 39.546875 41.84375 41.421875 45.53125 
Q 43.3125 49.21875 43.3125 52.78125 
Q 43.3125 58.59375 39.234375 62.25 
Q 35.15625 65.921875 28.609375 65.921875 
Q 23.96875 65.921875 18.8125 64.3125 
Q 13.671875 62.703125 7.8125 59.421875 
L 7.8125 69.390625 
Q 13.765625 71.78125 18.9375 73 
Q 24.125 74.21875 28.421875 74.21875 
Q 39.75 74.21875 46.484375 68.546875 
Q 53.21875 62.890625 53.21875 53.421875 
Q 53.21875 48.921875 51.53125 44.890625 
Q 49.859375 40.875 45.40625 35.40625 
Q 44.1875 33.984375 37.640625 27.21875 
Q 31.109375 20.453125 19.1875 8.296875 
z
" id="DejaVuSans-50"/>
     </defs>
     <g transform="translate(378.093625 259.075988)scale(0.13 -0.13)">
      <use xlink:href="#DejaVuSans-50"/>
     </g>
    </g>
   </g>
   <g id="text_4">
    <g clip-path="url(#pfbc7329420)">
     <!-- 3 -->
     <defs>
      <path d="M 40.578125 39.3125 
Q 47.65625 37.796875 51.625 33 
Q 55.609375 28.21875 55.609375 21.1875 
Q 55.609375 10.40625 48.1875 4.484375 
Q 40.765625 -1.421875 27.09375 -1.421875 
Q 22.515625 -1.421875 17.65625 -0.515625 
Q 12.796875 0.390625 7.625 2.203125 
L 7.625 11.71875 
Q 11.71875 9.328125 16.59375 8.109375 
Q 21.484375 6.890625 26.8125 6.890625 
Q 36.078125 6.890625 40.9375 10.546875 
Q 45.796875 14.203125 45.796875 21.1875 
Q 45.796875 27.640625 41.28125 31.265625 
Q 36.765625 34.90625 28.71875 34.90625 
L 20.21875 34.90625 
L 20.21875 43.015625 
L 29.109375 43.015625 
Q 36.375 43.015625 40.234375 45.921875 
Q 44.09375 48.828125 44.09375 54.296875 
Q 44.09375 59.90625 40.109375 62.90625 
Q 36.140625 65.921875 28.71875 65.921875 
Q 24.65625 65.921875 20.015625 65.03125 
Q 15.375 64.15625 9.8125 62.3125 
L 9.8125 71.09375 
Q 15.4375 72.65625 20.34375 73.4375 
Q 25.25 74.21875 29.59375 74.21875 
Q 40.828125 74.21875 47.359375 69.109375 
Q 53.90625 64.015625 53.90625 55.328125 
Q 53.90625 49.265625 50.4375 45.09375 
Q 46.96875 40.921875 40.578125 39.3125 
z
" id="DejaVuSans-51"/>
     </defs>
     <g transform="translate(378.093625 305.429988)scale(0.13 -0.13)">
      <use xlink:href="#DejaVuSans-51"/>
     </g>
    </g>
   </g>
   <g id="text_5">
    <g clip-path="url(#pfbc7329420)">
     <!-- 4 -->
     <defs>
      <path d="M 37.796875 64.3125 
L 12.890625 25.390625 
L 37.796875 25.390625 
z
M 35.203125 72.90625 
L 47.609375 72.90625 
L 47.609375 25.390625 
L 58.015625 25.390625 
L 58.015625 17.1875 
L 47.609375 17.1875 
L 47.609375 0 
L 37.796875 0 
L 37.796875 17.1875 
L 4.890625 17.1875 
L 4.890625 26.703125 
z
" id="DejaVuSans-52"/>
     </defs>
     <g transform="translate(378.093625 351.783988)scale(0.13 -0.13)">
      <use xlink:href="#DejaVuSans-52"/>
     </g>
    </g>
   </g>
   <g id="text_6">
    <g clip-path="url(#pfbc7329420)">
     <!-- 5 -->
     <defs>
      <path d="M 10.796875 72.90625 
L 49.515625 72.90625 
L 49.515625 64.59375 
L 19.828125 64.59375 
L 19.828125 46.734375 
Q 21.96875 47.46875 24.109375 47.828125 
Q 26.265625 48.1875 28.421875 48.1875 
Q 40.625 48.1875 47.75 41.5 
Q 54.890625 34.8125 54.890625 23.390625 
Q 54.890625 11.625 47.5625 5.09375 
Q 40.234375 -1.421875 26.90625 -1.421875 
Q 22.3125 -1.421875 17.546875 -0.640625 
Q 12.796875 0.140625 7.71875 1.703125 
L 7.71875 11.625 
Q 12.109375 9.234375 16.796875 8.0625 
Q 21.484375 6.890625 26.703125 6.890625 
Q 35.15625 6.890625 40.078125 11.328125 
Q 45.015625 15.765625 45.015625 23.390625 
Q 45.015625 31 40.078125 35.4375 
Q 35.15625 39.890625 26.703125 39.890625 
Q 22.75 39.890625 18.8125 39.015625 
Q 14.890625 38.140625 10.796875 36.28125 
z
" id="DejaVuSans-53"/>
     </defs>
     <g transform="translate(378.093625 398.137988)scale(0.13 -0.13)">
      <use xlink:href="#DejaVuSans-53"/>
     </g>
    </g>
   </g>
   <g id="text_7">
    <g clip-path="url(#pfbc7329420)">
     <!-- 6 -->
     <defs>
      <path d="M 33.015625 40.375 
Q 26.375 40.375 22.484375 35.828125 
Q 18.609375 31.296875 18.609375 23.390625 
Q 18.609375 15.53125 22.484375 10.953125 
Q 26.375 6.390625 33.015625 6.390625 
Q 39.65625 6.390625 43.53125 10.953125 
Q 47.40625 15.53125 47.40625 23.390625 
Q 47.40625 31.296875 43.53125 35.828125 
Q 39.65625 40.375 33.015625 40.375 
z
M 52.59375 71.296875 
L 52.59375 62.3125 
Q 48.875 64.0625 45.09375 64.984375 
Q 41.3125 65.921875 37.59375 65.921875 
Q 27.828125 65.921875 22.671875 59.328125 
Q 17.53125 52.734375 16.796875 39.40625 
Q 19.671875 43.65625 24.015625 45.921875 
Q 28.375 48.1875 33.59375 48.1875 
Q 44.578125 48.1875 50.953125 41.515625 
Q 57.328125 34.859375 57.328125 23.390625 
Q 57.328125 12.15625 50.6875 5.359375 
Q 44.046875 -1.421875 33.015625 -1.421875 
Q 20.359375 -1.421875 13.671875 8.265625 
Q 6.984375 17.96875 6.984375 36.375 
Q 6.984375 53.65625 15.1875 63.9375 
Q 23.390625 74.21875 37.203125 74.21875 
Q 40.921875 74.21875 44.703125 73.484375 
Q 48.484375 72.75 52.59375 71.296875 
z
" id="DejaVuSans-54"/>
     </defs>
     <g transform="translate(378.093625 444.491988)scale(0.13 -0.13)">
      <use xlink:href="#DejaVuSans-54"/>
     </g>
    </g>
   </g>
   <g id="text_8">
    <g clip-path="url(#pfbc7329420)">
     <!-- ccPhiAdd6 -->
     <defs>
      <path d="M 48.78125 52.59375 
L 48.78125 44.1875 
Q 44.96875 46.296875 41.140625 47.34375 
Q 37.3125 48.390625 33.40625 48.390625 
Q 24.65625 48.390625 19.8125 42.84375 
Q 14.984375 37.3125 14.984375 27.296875 
Q 14.984375 17.28125 19.8125 11.734375 
Q 24.65625 6.203125 33.40625 6.203125 
Q 37.3125 6.203125 41.140625 7.25 
Q 44.96875 8.296875 48.78125 10.40625 
L 48.78125 2.09375 
Q 45.015625 0.34375 40.984375 -0.53125 
Q 36.96875 -1.421875 32.421875 -1.421875 
Q 20.0625 -1.421875 12.78125 6.34375 
Q 5.515625 14.109375 5.515625 27.296875 
Q 5.515625 40.671875 12.859375 48.328125 
Q 20.21875 56 33.015625 56 
Q 37.15625 56 41.109375 55.140625 
Q 45.0625 54.296875 48.78125 52.59375 
z
" id="DejaVuSans-99"/>
      <path d="M 19.671875 64.796875 
L 19.671875 37.40625 
L 32.078125 37.40625 
Q 38.96875 37.40625 42.71875 40.96875 
Q 46.484375 44.53125 46.484375 51.125 
Q 46.484375 57.671875 42.71875 61.234375 
Q 38.96875 64.796875 32.078125 64.796875 
z
M 9.8125 72.90625 
L 32.078125 72.90625 
Q 44.34375 72.90625 50.609375 67.359375 
Q 56.890625 61.8125 56.890625 51.125 
Q 56.890625 40.328125 50.609375 34.8125 
Q 44.34375 29.296875 32.078125 29.296875 
L 19.671875 29.296875 
L 19.671875 0 
L 9.8125 0 
z
" id="DejaVuSans-80"/>
      <path d="M 54.890625 33.015625 
L 54.890625 0 
L 45.90625 0 
L 45.90625 32.71875 
Q 45.90625 40.484375 42.875 44.328125 
Q 39.84375 48.1875 33.796875 48.1875 
Q 26.515625 48.1875 22.3125 43.546875 
Q 18.109375 38.921875 18.109375 30.90625 
L 18.109375 0 
L 9.078125 0 
L 9.078125 75.984375 
L 18.109375 75.984375 
L 18.109375 46.1875 
Q 21.34375 51.125 25.703125 53.5625 
Q 30.078125 56 35.796875 56 
Q 45.21875 56 50.046875 50.171875 
Q 54.890625 44.34375 54.890625 33.015625 
z
" id="DejaVuSans-104"/>
      <path d="M 9.421875 54.6875 
L 18.40625 54.6875 
L 18.40625 0 
L 9.421875 0 
z
M 9.421875 75.984375 
L 18.40625 75.984375 
L 18.40625 64.59375 
L 9.421875 64.59375 
z
" id="DejaVuSans-105"/>
      <path d="M 34.1875 63.1875 
L 20.796875 26.90625 
L 47.609375 26.90625 
z
M 28.609375 72.90625 
L 39.796875 72.90625 
L 67.578125 0 
L 57.328125 0 
L 50.6875 18.703125 
L 17.828125 18.703125 
L 11.1875 0 
L 0.78125 0 
z
" id="DejaVuSans-65"/>
      <path d="M 45.40625 46.390625 
L 45.40625 75.984375 
L 54.390625 75.984375 
L 54.390625 0 
L 45.40625 0 
L 45.40625 8.203125 
Q 42.578125 3.328125 38.25 0.953125 
Q 33.9375 -1.421875 27.875 -1.421875 
Q 17.96875 -1.421875 11.734375 6.484375 
Q 5.515625 14.40625 5.515625 27.296875 
Q 5.515625 40.1875 11.734375 48.09375 
Q 17.96875 56 27.875 56 
Q 33.9375 56 38.25 53.625 
Q 42.578125 51.265625 45.40625 46.390625 
z
M 14.796875 27.296875 
Q 14.796875 17.390625 18.875 11.75 
Q 22.953125 6.109375 30.078125 6.109375 
Q 37.203125 6.109375 41.296875 11.75 
Q 45.40625 17.390625 45.40625 27.296875 
Q 45.40625 37.203125 41.296875 42.84375 
Q 37.203125 48.484375 30.078125 48.484375 
Q 22.953125 48.484375 18.875 42.84375 
Q 14.796875 37.203125 14.796875 27.296875 
z
" id="DejaVuSans-100"/>
     </defs>
     <g transform="translate(412.059944 305.429988)scale(0.13 -0.13)">
      <use xlink:href="#DejaVuSans-99"/>
      <use x="54.980469" xlink:href="#DejaVuSans-99"/>
      <use x="109.960938" xlink:href="#DejaVuSans-80"/>
      <use x="170.263672" xlink:href="#DejaVuSans-104"/>
      <use x="233.642578" xlink:href="#DejaVuSans-105"/>
      <use x="261.425781" xlink:href="#DejaVuSans-65"/>
      <use x="329.818359" xlink:href="#DejaVuSans-100"/>
      <use x="393.294922" xlink:href="#DejaVuSans-100"/>
      <use x="456.771484" xlink:href="#DejaVuSans-54"/>
     </g>
    </g>
   </g>
   <g id="text_9">
    <g clip-path="url(#pfbc7329420)">
     <!-- 0 -->
     <g transform="translate(586.686625 259.075988)scale(0.13 -0.13)">
      <use xlink:href="#DejaVuSans-48"/>
     </g>
    </g>
   </g>
   <g id="text_10">
    <g clip-path="url(#pfbc7329420)">
     <!-- 1 -->
     <g transform="translate(586.686625 305.429988)scale(0.13 -0.13)">
      <use xlink:href="#DejaVuSans-49"/>
     </g>
    </g>
   </g>
   <g id="text_11">
    <g clip-path="url(#pfbc7329420)">
     <!-- 2 -->
     <g transform="translate(586.686625 351.783988)scale(0.13 -0.13)">
      <use xlink:href="#DejaVuSans-50"/>
     </g>
    </g>
   </g>
   <g id="text_12">
    <g clip-path="url(#pfbc7329420)">
     <!-- 3 -->
     <g transform="translate(586.686625 398.137988)scale(0.13 -0.13)">
      <use xlink:href="#DejaVuSans-51"/>
     </g>
    </g>
   </g>
   <g id="text_13">
    <g clip-path="url(#pfbc7329420)">
     <!-- 4 -->
     <g transform="translate(586.686625 444.491988)scale(0.13 -0.13)">
      <use xlink:href="#DejaVuSans-52"/>
     </g>
    </g>
   </g>
   <g id="text_14">
    <g clip-path="url(#pfbc7329420)">
     <!-- circuit334_dg -->
     <defs>
      <path d="M 41.109375 46.296875 
Q 39.59375 47.171875 37.8125 47.578125 
Q 36.03125 48 33.890625 48 
Q 26.265625 48 22.1875 43.046875 
Q 18.109375 38.09375 18.109375 28.8125 
L 18.109375 0 
L 9.078125 0 
L 9.078125 54.6875 
L 18.109375 54.6875 
L 18.109375 46.1875 
Q 20.953125 51.171875 25.484375 53.578125 
Q 30.03125 56 36.53125 56 
Q 37.453125 56 38.578125 55.875 
Q 39.703125 55.765625 41.0625 55.515625 
z
" id="DejaVuSans-114"/>
      <path d="M 8.5 21.578125 
L 8.5 54.6875 
L 17.484375 54.6875 
L 17.484375 21.921875 
Q 17.484375 14.15625 20.5 10.265625 
Q 23.53125 6.390625 29.59375 6.390625 
Q 36.859375 6.390625 41.078125 11.03125 
Q 45.3125 15.671875 45.3125 23.6875 
L 45.3125 54.6875 
L 54.296875 54.6875 
L 54.296875 0 
L 45.3125 0 
L 45.3125 8.40625 
Q 42.046875 3.421875 37.71875 1 
Q 33.40625 -1.421875 27.6875 -1.421875 
Q 18.265625 -1.421875 13.375 4.4375 
Q 8.5 10.296875 8.5 21.578125 
z
M 31.109375 56 
z
" id="DejaVuSans-117"/>
      <path d="M 18.3125 70.21875 
L 18.3125 54.6875 
L 36.8125 54.6875 
L 36.8125 47.703125 
L 18.3125 47.703125 
L 18.3125 18.015625 
Q 18.3125 11.328125 20.140625 9.421875 
Q 21.96875 7.515625 27.59375 7.515625 
L 36.8125 7.515625 
L 36.8125 0 
L 27.59375 0 
Q 17.1875 0 13.234375 3.875 
Q 9.28125 7.765625 9.28125 18.015625 
L 9.28125 47.703125 
L 2.6875 47.703125 
L 2.6875 54.6875 
L 9.28125 54.6875 
L 9.28125 70.21875 
z
" id="DejaVuSans-116"/>
      <path d="M 50.984375 -16.609375 
L 50.984375 -23.578125 
L -0.984375 -23.578125 
L -0.984375 -16.609375 
z
" id="DejaVuSans-95"/>
      <path d="M 45.40625 27.984375 
Q 45.40625 37.75 41.375 43.109375 
Q 37.359375 48.484375 30.078125 48.484375 
Q 22.859375 48.484375 18.828125 43.109375 
Q 14.796875 37.75 14.796875 27.984375 
Q 14.796875 18.265625 18.828125 12.890625 
Q 22.859375 7.515625 30.078125 7.515625 
Q 37.359375 7.515625 41.375 12.890625 
Q 45.40625 18.265625 45.40625 27.984375 
z
M 54.390625 6.78125 
Q 54.390625 -7.171875 48.1875 -13.984375 
Q 42 -20.796875 29.203125 -20.796875 
Q 24.46875 -20.796875 20.265625 -20.09375 
Q 16.0625 -19.390625 12.109375 -17.921875 
L 12.109375 -9.1875 
Q 16.0625 -11.328125 19.921875 -12.34375 
Q 23.78125 -13.375 27.78125 -13.375 
Q 36.625 -13.375 41.015625 -8.765625 
Q 45.40625 -4.15625 45.40625 5.171875 
L 45.40625 9.625 
Q 42.625 4.78125 38.28125 2.390625 
Q 33.9375 0 27.875 0 
Q 17.828125 0 11.671875 7.65625 
Q 5.515625 15.328125 5.515625 27.984375 
Q 5.515625 40.671875 11.671875 48.328125 
Q 17.828125 56 27.875 56 
Q 33.9375 56 38.28125 53.609375 
Q 42.625 51.21875 45.40625 46.390625 
L 45.40625 54.6875 
L 54.390625 54.6875 
z
" id="DejaVuSans-103"/>
     </defs>
     <g transform="translate(610.472319 351.603206)scale(0.13 -0.13)">
      <use xlink:href="#DejaVuSans-99"/>
      <use x="54.980469" xlink:href="#DejaVuSans-105"/>
      <use x="82.763672" xlink:href="#DejaVuSans-114"/>
      <use x="123.845703" xlink:href="#DejaVuSans-99"/>
      <use x="178.826172" xlink:href="#DejaVuSans-117"/>
      <use x="242.205078" xlink:href="#DejaVuSans-105"/>
      <use x="269.988281" xlink:href="#DejaVuSans-116"/>
      <use x="309.197266" xlink:href="#DejaVuSans-51"/>
      <use x="372.820312" xlink:href="#DejaVuSans-51"/>
      <use x="436.443359" xlink:href="#DejaVuSans-52"/>
      <use x="500.066406" xlink:href="#DejaVuSans-95"/>
      <use x="550.066406" xlink:href="#DejaVuSans-100"/>
      <use x="613.542969" xlink:href="#DejaVuSans-103"/>
     </g>
    </g>
   </g>
   <g id="text_15">
    <g clip-path="url(#pfbc7329420)">
     <!-- 0 -->
     <g transform="translate(782.821987 259.075988)scale(0.13 -0.13)">
      <use xlink:href="#DejaVuSans-48"/>
     </g>
    </g>
   </g>
   <g id="text_16">
    <g clip-path="url(#pfbc7329420)">
     <!-- 1 -->
     <g transform="translate(782.821987 305.429988)scale(0.13 -0.13)">
      <use xlink:href="#DejaVuSans-49"/>
     </g>
    </g>
   </g>
   <g id="text_17">
    <g clip-path="url(#pfbc7329420)">
     <!-- 2 -->
     <g transform="translate(782.821987 351.783988)scale(0.13 -0.13)">
      <use xlink:href="#DejaVuSans-50"/>
     </g>
    </g>
   </g>
   <g id="text_18">
    <g clip-path="url(#pfbc7329420)">
     <!-- 3 -->
     <g transform="translate(782.821987 398.137988)scale(0.13 -0.13)">
      <use xlink:href="#DejaVuSans-51"/>
     </g>
    </g>
   </g>
   <g id="text_19">
    <g clip-path="url(#pfbc7329420)">
     <!-- 4 -->
     <g transform="translate(782.821987 444.491988)scale(0.13 -0.13)">
      <use xlink:href="#DejaVuSans-52"/>
     </g>
    </g>
   </g>
   <g id="text_20">
    <g clip-path="url(#pfbc7329420)">
     <!-- QFT_dg -->
     <defs>
      <path d="M 39.40625 66.21875 
Q 28.65625 66.21875 22.328125 58.203125 
Q 16.015625 50.203125 16.015625 36.375 
Q 16.015625 22.609375 22.328125 14.59375 
Q 28.65625 6.59375 39.40625 6.59375 
Q 50.140625 6.59375 56.421875 14.59375 
Q 62.703125 22.609375 62.703125 36.375 
Q 62.703125 50.203125 56.421875 58.203125 
Q 50.140625 66.21875 39.40625 66.21875 
z
M 53.21875 1.3125 
L 66.21875 -12.890625 
L 54.296875 -12.890625 
L 43.5 -1.21875 
Q 41.890625 -1.3125 41.03125 -1.359375 
Q 40.1875 -1.421875 39.40625 -1.421875 
Q 24.03125 -1.421875 14.8125 8.859375 
Q 5.609375 19.140625 5.609375 36.375 
Q 5.609375 53.65625 14.8125 63.9375 
Q 24.03125 74.21875 39.40625 74.21875 
Q 54.734375 74.21875 63.90625 63.9375 
Q 73.09375 53.65625 73.09375 36.375 
Q 73.09375 23.6875 67.984375 14.640625 
Q 62.890625 5.609375 53.21875 1.3125 
z
" id="DejaVuSans-81"/>
      <path d="M 9.8125 72.90625 
L 51.703125 72.90625 
L 51.703125 64.59375 
L 19.671875 64.59375 
L 19.671875 43.109375 
L 48.578125 43.109375 
L 48.578125 34.8125 
L 19.671875 34.8125 
L 19.671875 0 
L 9.8125 0 
z
" id="DejaVuSans-70"/>
      <path d="M -0.296875 72.90625 
L 61.375 72.90625 
L 61.375 64.59375 
L 35.5 64.59375 
L 35.5 0 
L 25.59375 0 
L 25.59375 64.59375 
L -0.296875 64.59375 
z
" id="DejaVuSans-84"/>
     </defs>
     <g transform="translate(792.391084 351.603206)scale(0.13 -0.13)">
      <use xlink:href="#DejaVuSans-81"/>
      <use x="78.710938" xlink:href="#DejaVuSans-70"/>
      <use x="136.214844" xlink:href="#DejaVuSans-84"/>
      <use x="197.298828" xlink:href="#DejaVuSans-95"/>
      <use x="247.298828" xlink:href="#DejaVuSans-100"/>
      <use x="310.775391" xlink:href="#DejaVuSans-103"/>
     </g>
    </g>
   </g>
   <g id="text_21">
    <g clip-path="url(#pfbc7329420)">
     <!-- 0 -->
     <g transform="translate(919.044805 259.075988)scale(0.13 -0.13)">
      <use xlink:href="#DejaVuSans-48"/>
     </g>
    </g>
   </g>
   <g id="text_22">
    <g clip-path="url(#pfbc7329420)">
     <!-- 1 -->
     <g transform="translate(919.044805 305.429988)scale(0.13 -0.13)">
      <use xlink:href="#DejaVuSans-49"/>
     </g>
    </g>
   </g>
   <g id="text_23">
    <g clip-path="url(#pfbc7329420)">
     <!-- 2 -->
     <g transform="translate(919.044805 351.783988)scale(0.13 -0.13)">
      <use xlink:href="#DejaVuSans-50"/>
     </g>
    </g>
   </g>
   <g id="text_24">
    <g clip-path="url(#pfbc7329420)">
     <!-- 3 -->
     <g transform="translate(919.044805 398.137988)scale(0.13 -0.13)">
      <use xlink:href="#DejaVuSans-51"/>
     </g>
    </g>
   </g>
   <g id="text_25">
    <g clip-path="url(#pfbc7329420)">
     <!-- 4 -->
     <g transform="translate(919.044805 444.491988)scale(0.13 -0.13)">
      <use xlink:href="#DejaVuSans-52"/>
     </g>
    </g>
   </g>
   <g id="text_26">
    <g clip-path="url(#pfbc7329420)">
     <!-- QFT -->
     <g transform="translate(919.779053 351.783988)scale(0.13 -0.13)">
      <use xlink:href="#DejaVuSans-81"/>
      <use x="78.710938" xlink:href="#DejaVuSans-70"/>
      <use x="136.214844" xlink:href="#DejaVuSans-84"/>
     </g>
    </g>
   </g>
   <g id="text_27">
    <g clip-path="url(#pfbc7329420)">
     <!-- 0 -->
     <g transform="translate(980.695625 259.075988)scale(0.13 -0.13)">
      <use xlink:href="#DejaVuSans-48"/>
     </g>
    </g>
   </g>
   <g id="text_28">
    <g clip-path="url(#pfbc7329420)">
     <!-- 1 -->
     <g transform="translate(980.695625 305.429988)scale(0.13 -0.13)">
      <use xlink:href="#DejaVuSans-49"/>
     </g>
    </g>
   </g>
   <g id="text_29">
    <g clip-path="url(#pfbc7329420)">
     <!-- 2 -->
     <g transform="translate(980.695625 351.783988)scale(0.13 -0.13)">
      <use xlink:href="#DejaVuSans-50"/>
     </g>
    </g>
   </g>
   <g id="text_30">
    <g clip-path="url(#pfbc7329420)">
     <!-- 3 -->
     <g transform="translate(980.695625 398.137988)scale(0.13 -0.13)">
      <use xlink:href="#DejaVuSans-51"/>
     </g>
    </g>
   </g>
   <g id="text_31">
    <g clip-path="url(#pfbc7329420)">
     <!-- 4 -->
     <g transform="translate(980.695625 444.491988)scale(0.13 -0.13)">
      <use xlink:href="#DejaVuSans-52"/>
     </g>
    </g>
   </g>
   <g id="text_32">
    <g clip-path="url(#pfbc7329420)">
     <!-- circuit334 -->
     <g transform="translate(1015.984287 351.783988)scale(0.13 -0.13)">
      <use xlink:href="#DejaVuSans-99"/>
      <use x="54.980469" xlink:href="#DejaVuSans-105"/>
      <use x="82.763672" xlink:href="#DejaVuSans-114"/>
      <use x="123.845703" xlink:href="#DejaVuSans-99"/>
      <use x="178.826172" xlink:href="#DejaVuSans-117"/>
      <use x="242.205078" xlink:href="#DejaVuSans-105"/>
      <use x="269.988281" xlink:href="#DejaVuSans-116"/>
      <use x="309.197266" xlink:href="#DejaVuSans-51"/>
      <use x="372.820312" xlink:href="#DejaVuSans-51"/>
      <use x="436.443359" xlink:href="#DejaVuSans-52"/>
     </g>
    </g>
   </g>
   <g id="text_33">
    <g clip-path="url(#pfbc7329420)">
     <!-- 0 -->
     <g transform="translate(1166.111625 166.367988)scale(0.13 -0.13)">
      <use xlink:href="#DejaVuSans-48"/>
     </g>
    </g>
   </g>
   <g id="text_34">
    <g clip-path="url(#pfbc7329420)">
     <!-- 1 -->
     <g transform="translate(1166.111625 212.721988)scale(0.13 -0.13)">
      <use xlink:href="#DejaVuSans-49"/>
     </g>
    </g>
   </g>
   <g id="text_35">
    <g clip-path="url(#pfbc7329420)">
     <!-- 2 -->
     <g transform="translate(1166.111625 259.075988)scale(0.13 -0.13)">
      <use xlink:href="#DejaVuSans-50"/>
     </g>
    </g>
   </g>
   <g id="text_36">
    <g clip-path="url(#pfbc7329420)">
     <!-- 3 -->
     <g transform="translate(1166.111625 305.429988)scale(0.13 -0.13)">
      <use xlink:href="#DejaVuSans-51"/>
     </g>
    </g>
   </g>
   <g id="text_37">
    <g clip-path="url(#pfbc7329420)">
     <!-- 4 -->
     <g transform="translate(1166.111625 351.783988)scale(0.13 -0.13)">
      <use xlink:href="#DejaVuSans-52"/>
     </g>
    </g>
   </g>
   <g id="text_38">
    <g clip-path="url(#pfbc7329420)">
     <!-- 5 -->
     <g transform="translate(1166.111625 398.137988)scale(0.13 -0.13)">
      <use xlink:href="#DejaVuSans-53"/>
     </g>
    </g>
   </g>
   <g id="text_39">
    <g clip-path="url(#pfbc7329420)">
     <!-- 6 -->
     <g transform="translate(1166.111625 444.491988)scale(0.13 -0.13)">
      <use xlink:href="#DejaVuSans-54"/>
     </g>
    </g>
   </g>
   <g id="text_40">
    <g clip-path="url(#pfbc7329420)">
     <!-- ccPhiAdd6_dg -->
     <g transform="translate(1188.574975 305.249206)scale(0.13 -0.13)">
      <use xlink:href="#DejaVuSans-99"/>
      <use x="54.980469" xlink:href="#DejaVuSans-99"/>
      <use x="109.960938" xlink:href="#DejaVuSans-80"/>
      <use x="170.263672" xlink:href="#DejaVuSans-104"/>
      <use x="233.642578" xlink:href="#DejaVuSans-105"/>
      <use x="261.425781" xlink:href="#DejaVuSans-65"/>
      <use x="329.818359" xlink:href="#DejaVuSans-100"/>
      <use x="393.294922" xlink:href="#DejaVuSans-100"/>
      <use x="456.771484" xlink:href="#DejaVuSans-54"/>
      <use x="520.394531" xlink:href="#DejaVuSans-95"/>
      <use x="570.394531" xlink:href="#DejaVuSans-100"/>
      <use x="633.871094" xlink:href="#DejaVuSans-103"/>
     </g>
    </g>
   </g>
   <g id="text_41">
    <g clip-path="url(#pfbc7329420)">
     <!-- 0 -->
     <g transform="translate(1339.069987 259.075988)scale(0.13 -0.13)">
      <use xlink:href="#DejaVuSans-48"/>
     </g>
    </g>
   </g>
   <g id="text_42">
    <g clip-path="url(#pfbc7329420)">
     <!-- 1 -->
     <g transform="translate(1339.069987 305.429988)scale(0.13 -0.13)">
      <use xlink:href="#DejaVuSans-49"/>
     </g>
    </g>
   </g>
   <g id="text_43">
    <g clip-path="url(#pfbc7329420)">
     <!-- 2 -->
     <g transform="translate(1339.069987 351.783988)scale(0.13 -0.13)">
      <use xlink:href="#DejaVuSans-50"/>
     </g>
    </g>
   </g>
   <g id="text_44">
    <g clip-path="url(#pfbc7329420)">
     <!-- 3 -->
     <g transform="translate(1339.069987 398.137988)scale(0.13 -0.13)">
      <use xlink:href="#DejaVuSans-51"/>
     </g>
    </g>
   </g>
   <g id="text_45">
    <g clip-path="url(#pfbc7329420)">
     <!-- 4 -->
     <g transform="translate(1339.069987 444.491988)scale(0.13 -0.13)">
      <use xlink:href="#DejaVuSans-52"/>
     </g>
    </g>
   </g>
   <g id="text_46">
    <g clip-path="url(#pfbc7329420)">
     <!-- QFT_dg -->
     <g transform="translate(1348.639084 351.603206)scale(0.13 -0.13)">
      <use xlink:href="#DejaVuSans-81"/>
      <use x="78.710938" xlink:href="#DejaVuSans-70"/>
      <use x="136.214844" xlink:href="#DejaVuSans-84"/>
      <use x="197.298828" xlink:href="#DejaVuSans-95"/>
      <use x="247.298828" xlink:href="#DejaVuSans-100"/>
      <use x="310.775391" xlink:href="#DejaVuSans-103"/>
     </g>
    </g>
   </g>
   <g id="text_47">
    <g clip-path="url(#pfbc7329420)">
     <!-- $X$ -->
     <defs>
      <path d="M 13.71875 72.90625 
L 23.6875 72.90625 
L 36.1875 46.578125 
L 58.796875 72.90625 
L 70.3125 72.90625 
L 40.28125 38.09375 
L 58.40625 0 
L 48.484375 0 
L 33.796875 30.71875 
L 7.171875 0 
L -4.296875 0 
L 29.78125 39.203125 
z
" id="DejaVuSans-Oblique-88"/>
     </defs>
     <g transform="translate(1438.01235 259.075988)scale(0.13 -0.13)">
      <use transform="translate(0 0.09375)" xlink:href="#DejaVuSans-Oblique-88"/>
     </g>
    </g>
   </g>
   <g id="text_48">
    <g clip-path="url(#pfbc7329420)">
     <!-- $X$ -->
     <g transform="translate(371.87035 676.261988)scale(0.13 -0.13)">
      <use transform="translate(0 0.09375)" xlink:href="#DejaVuSans-Oblique-88"/>
     </g>
    </g>
   </g>
   <g id="text_49">
    <g clip-path="url(#pfbc7329420)">
     <!-- 0 -->
     <g transform="translate(409.150805 676.261988)scale(0.13 -0.13)">
      <use xlink:href="#DejaVuSans-48"/>
     </g>
    </g>
   </g>
   <g id="text_50">
    <g clip-path="url(#pfbc7329420)">
     <!-- 1 -->
     <g transform="translate(409.150805 722.615988)scale(0.13 -0.13)">
      <use xlink:href="#DejaVuSans-49"/>
     </g>
    </g>
   </g>
   <g id="text_51">
    <g clip-path="url(#pfbc7329420)">
     <!-- 2 -->
     <g transform="translate(409.150805 768.969988)scale(0.13 -0.13)">
      <use xlink:href="#DejaVuSans-50"/>
     </g>
    </g>
   </g>
   <g id="text_52">
    <g clip-path="url(#pfbc7329420)">
     <!-- 3 -->
     <g transform="translate(409.150805 815.323988)scale(0.13 -0.13)">
      <use xlink:href="#DejaVuSans-51"/>
     </g>
    </g>
   </g>
   <g id="text_53">
    <g clip-path="url(#pfbc7329420)">
     <!-- 4 -->
     <g transform="translate(409.150805 861.677988)scale(0.13 -0.13)">
      <use xlink:href="#DejaVuSans-52"/>
     </g>
    </g>
   </g>
   <g id="text_54">
    <g clip-path="url(#pfbc7329420)">
     <!-- QFT -->
     <g transform="translate(409.885053 768.969988)scale(0.13 -0.13)">
      <use xlink:href="#DejaVuSans-81"/>
      <use x="78.710938" xlink:href="#DejaVuSans-70"/>
      <use x="136.214844" xlink:href="#DejaVuSans-84"/>
     </g>
    </g>
   </g>
   <g id="text_55">
    <g clip-path="url(#pfbc7329420)">
     <!-- 0 -->
     <g transform="translate(470.801625 583.553988)scale(0.13 -0.13)">
      <use xlink:href="#DejaVuSans-48"/>
     </g>
    </g>
   </g>
   <g id="text_56">
    <g clip-path="url(#pfbc7329420)">
     <!-- 1 -->
     <g transform="translate(470.801625 629.907988)scale(0.13 -0.13)">
      <use xlink:href="#DejaVuSans-49"/>
     </g>
    </g>
   </g>
   <g id="text_57">
    <g clip-path="url(#pfbc7329420)">
     <!-- 2 -->
     <g transform="translate(470.801625 676.261988)scale(0.13 -0.13)">
      <use xlink:href="#DejaVuSans-50"/>
     </g>
    </g>
   </g>
   <g id="text_58">
    <g clip-path="url(#pfbc7329420)">
     <!-- 3 -->
     <g transform="translate(470.801625 722.615988)scale(0.13 -0.13)">
      <use xlink:href="#DejaVuSans-51"/>
     </g>
    </g>
   </g>
   <g id="text_59">
    <g clip-path="url(#pfbc7329420)">
     <!-- 4 -->
     <g transform="translate(470.801625 768.969988)scale(0.13 -0.13)">
      <use xlink:href="#DejaVuSans-52"/>
     </g>
    </g>
   </g>
   <g id="text_60">
    <g clip-path="url(#pfbc7329420)">
     <!-- 5 -->
     <g transform="translate(470.801625 815.323988)scale(0.13 -0.13)">
      <use xlink:href="#DejaVuSans-53"/>
     </g>
    </g>
   </g>
   <g id="text_61">
    <g clip-path="url(#pfbc7329420)">
     <!-- 6 -->
     <g transform="translate(470.801625 861.677988)scale(0.13 -0.13)">
      <use xlink:href="#DejaVuSans-54"/>
     </g>
    </g>
   </g>
   <g id="text_62">
    <g clip-path="url(#pfbc7329420)">
     <!-- ccPhiAdd6 -->
     <g transform="translate(504.767944 722.615988)scale(0.13 -0.13)">
      <use xlink:href="#DejaVuSans-99"/>
      <use x="54.980469" xlink:href="#DejaVuSans-99"/>
      <use x="109.960938" xlink:href="#DejaVuSans-80"/>
      <use x="170.263672" xlink:href="#DejaVuSans-104"/>
      <use x="233.642578" xlink:href="#DejaVuSans-105"/>
      <use x="261.425781" xlink:href="#DejaVuSans-65"/>
      <use x="329.818359" xlink:href="#DejaVuSans-100"/>
      <use x="393.294922" xlink:href="#DejaVuSans-100"/>
      <use x="456.771484" xlink:href="#DejaVuSans-54"/>
     </g>
    </g>
   </g>
   <g id="text_63">
    <g clip-path="url(#pfbc7329420)">
     <!-- ${q134}_{0}$ -->
     <defs>
      <path d="M 41.703125 8.203125 
Q 38.09375 3.46875 33.171875 1.015625 
Q 28.265625 -1.421875 22.3125 -1.421875 
Q 14.015625 -1.421875 9.296875 4.171875 
Q 4.59375 9.765625 4.59375 19.578125 
Q 4.59375 27.484375 7.5 34.859375 
Q 10.40625 42.234375 15.828125 48.09375 
Q 19.34375 51.90625 23.90625 53.953125 
Q 28.46875 56 33.5 56 
Q 39.546875 56 43.453125 53.609375 
Q 47.359375 51.21875 49.125 46.390625 
L 50.6875 54.59375 
L 59.71875 54.59375 
L 45.125 -20.609375 
L 36.078125 -20.609375 
z
M 13.921875 20.90625 
Q 13.921875 13.671875 16.9375 9.890625 
Q 19.96875 6.109375 25.6875 6.109375 
Q 34.1875 6.109375 40.1875 14.234375 
Q 46.1875 22.359375 46.1875 33.984375 
Q 46.1875 41.015625 43.078125 44.75 
Q 39.984375 48.484375 34.1875 48.484375 
Q 29.9375 48.484375 26.3125 46.5 
Q 22.703125 44.53125 20.015625 40.71875 
Q 17.1875 36.71875 15.546875 31.34375 
Q 13.921875 25.984375 13.921875 20.90625 
z
" id="DejaVuSans-Oblique-113"/>
     </defs>
     <g transform="translate(280.76385 167.231777)scale(0.1625 -0.1625)">
      <use transform="translate(0 0.78125)" xlink:href="#DejaVuSans-Oblique-113"/>
      <use transform="translate(63.476562 0.78125)" xlink:href="#DejaVuSans-49"/>
      <use transform="translate(127.099609 0.78125)" xlink:href="#DejaVuSans-51"/>
      <use transform="translate(190.722656 0.78125)" xlink:href="#DejaVuSans-52"/>
      <use transform="translate(255.302734 -15.625)scale(0.7)" xlink:href="#DejaVuSans-48"/>
     </g>
    </g>
   </g>
   <g id="text_64">
    <g clip-path="url(#pfbc7329420)">
     <!-- ${q134}_{1}$ -->
     <g transform="translate(280.76385 213.585777)scale(0.1625 -0.1625)">
      <use transform="translate(0 0.78125)" xlink:href="#DejaVuSans-Oblique-113"/>
      <use transform="translate(63.476562 0.78125)" xlink:href="#DejaVuSans-49"/>
      <use transform="translate(127.099609 0.78125)" xlink:href="#DejaVuSans-51"/>
      <use transform="translate(190.722656 0.78125)" xlink:href="#DejaVuSans-52"/>
      <use transform="translate(255.302734 -15.625)scale(0.7)" xlink:href="#DejaVuSans-49"/>
     </g>
    </g>
   </g>
   <g id="text_65">
    <g clip-path="url(#pfbc7329420)">
     <!-- ${q134}_{2}$ -->
     <g transform="translate(280.76385 259.939777)scale(0.1625 -0.1625)">
      <use transform="translate(0 0.78125)" xlink:href="#DejaVuSans-Oblique-113"/>
      <use transform="translate(63.476562 0.78125)" xlink:href="#DejaVuSans-49"/>
      <use transform="translate(127.099609 0.78125)" xlink:href="#DejaVuSans-51"/>
      <use transform="translate(190.722656 0.78125)" xlink:href="#DejaVuSans-52"/>
      <use transform="translate(255.302734 -15.625)scale(0.7)" xlink:href="#DejaVuSans-50"/>
     </g>
    </g>
   </g>
   <g id="text_66">
    <g clip-path="url(#pfbc7329420)">
     <!-- ${q134}_{3}$ -->
     <g transform="translate(280.76385 306.293777)scale(0.1625 -0.1625)">
      <use transform="translate(0 0.78125)" xlink:href="#DejaVuSans-Oblique-113"/>
      <use transform="translate(63.476562 0.78125)" xlink:href="#DejaVuSans-49"/>
      <use transform="translate(127.099609 0.78125)" xlink:href="#DejaVuSans-51"/>
      <use transform="translate(190.722656 0.78125)" xlink:href="#DejaVuSans-52"/>
      <use transform="translate(255.302734 -15.625)scale(0.7)" xlink:href="#DejaVuSans-51"/>
     </g>
    </g>
   </g>
   <g id="text_67">
    <g clip-path="url(#pfbc7329420)">
     <!-- ${q134}_{4}$ -->
     <g transform="translate(280.76385 352.647777)scale(0.1625 -0.1625)">
      <use transform="translate(0 0.78125)" xlink:href="#DejaVuSans-Oblique-113"/>
      <use transform="translate(63.476562 0.78125)" xlink:href="#DejaVuSans-49"/>
      <use transform="translate(127.099609 0.78125)" xlink:href="#DejaVuSans-51"/>
      <use transform="translate(190.722656 0.78125)" xlink:href="#DejaVuSans-52"/>
      <use transform="translate(255.302734 -15.625)scale(0.7)" xlink:href="#DejaVuSans-52"/>
     </g>
    </g>
   </g>
   <g id="text_68">
    <g clip-path="url(#pfbc7329420)">
     <!-- ${q134}_{5}$ -->
     <g transform="translate(280.76385 399.001777)scale(0.1625 -0.1625)">
      <use transform="translate(0 0.78125)" xlink:href="#DejaVuSans-Oblique-113"/>
      <use transform="translate(63.476562 0.78125)" xlink:href="#DejaVuSans-49"/>
      <use transform="translate(127.099609 0.78125)" xlink:href="#DejaVuSans-51"/>
      <use transform="translate(190.722656 0.78125)" xlink:href="#DejaVuSans-52"/>
      <use transform="translate(255.302734 -15.625)scale(0.7)" xlink:href="#DejaVuSans-53"/>
     </g>
    </g>
   </g>
   <g id="text_69">
    <g clip-path="url(#pfbc7329420)">
     <!-- ${q134}_{6}$ -->
     <g transform="translate(280.76385 445.355777)scale(0.1625 -0.1625)">
      <use transform="translate(0 0.78125)" xlink:href="#DejaVuSans-Oblique-113"/>
      <use transform="translate(63.476562 0.78125)" xlink:href="#DejaVuSans-49"/>
      <use transform="translate(127.099609 0.78125)" xlink:href="#DejaVuSans-51"/>
      <use transform="translate(190.722656 0.78125)" xlink:href="#DejaVuSans-52"/>
      <use transform="translate(255.302734 -15.625)scale(0.7)" xlink:href="#DejaVuSans-54"/>
     </g>
    </g>
   </g>
   <g id="text_70">
    <g clip-path="url(#pfbc7329420)">
     <!-- ${q134}_{7}$ -->
     <defs>
      <path d="M 8.203125 72.90625 
L 55.078125 72.90625 
L 55.078125 68.703125 
L 28.609375 0 
L 18.3125 0 
L 43.21875 64.59375 
L 8.203125 64.59375 
z
" id="DejaVuSans-55"/>
     </defs>
     <g transform="translate(280.76385 491.709777)scale(0.1625 -0.1625)">
      <use transform="translate(0 0.78125)" xlink:href="#DejaVuSans-Oblique-113"/>
      <use transform="translate(63.476562 0.78125)" xlink:href="#DejaVuSans-49"/>
      <use transform="translate(127.099609 0.78125)" xlink:href="#DejaVuSans-51"/>
      <use transform="translate(190.722656 0.78125)" xlink:href="#DejaVuSans-52"/>
      <use transform="translate(255.302734 -15.625)scale(0.7)" xlink:href="#DejaVuSans-55"/>
     </g>
    </g>
   </g>
   <g id="text_71">
    <g clip-path="url(#pfbc7329420)">
     <!-- ${q134}_{0}$ -->
     <g transform="translate(280.76385 584.417777)scale(0.1625 -0.1625)">
      <use transform="translate(0 0.78125)" xlink:href="#DejaVuSans-Oblique-113"/>
      <use transform="translate(63.476562 0.78125)" xlink:href="#DejaVuSans-49"/>
      <use transform="translate(127.099609 0.78125)" xlink:href="#DejaVuSans-51"/>
      <use transform="translate(190.722656 0.78125)" xlink:href="#DejaVuSans-52"/>
      <use transform="translate(255.302734 -15.625)scale(0.7)" xlink:href="#DejaVuSans-48"/>
     </g>
    </g>
   </g>
   <g id="text_72">
    <g clip-path="url(#pfbc7329420)">
     <!-- ${q134}_{1}$ -->
     <g transform="translate(280.76385 630.771777)scale(0.1625 -0.1625)">
      <use transform="translate(0 0.78125)" xlink:href="#DejaVuSans-Oblique-113"/>
      <use transform="translate(63.476562 0.78125)" xlink:href="#DejaVuSans-49"/>
      <use transform="translate(127.099609 0.78125)" xlink:href="#DejaVuSans-51"/>
      <use transform="translate(190.722656 0.78125)" xlink:href="#DejaVuSans-52"/>
      <use transform="translate(255.302734 -15.625)scale(0.7)" xlink:href="#DejaVuSans-49"/>
     </g>
    </g>
   </g>
   <g id="text_73">
    <g clip-path="url(#pfbc7329420)">
     <!-- ${q134}_{2}$ -->
     <g transform="translate(280.76385 677.125777)scale(0.1625 -0.1625)">
      <use transform="translate(0 0.78125)" xlink:href="#DejaVuSans-Oblique-113"/>
      <use transform="translate(63.476562 0.78125)" xlink:href="#DejaVuSans-49"/>
      <use transform="translate(127.099609 0.78125)" xlink:href="#DejaVuSans-51"/>
      <use transform="translate(190.722656 0.78125)" xlink:href="#DejaVuSans-52"/>
      <use transform="translate(255.302734 -15.625)scale(0.7)" xlink:href="#DejaVuSans-50"/>
     </g>
    </g>
   </g>
   <g id="text_74">
    <g clip-path="url(#pfbc7329420)">
     <!-- ${q134}_{3}$ -->
     <g transform="translate(280.76385 723.479777)scale(0.1625 -0.1625)">
      <use transform="translate(0 0.78125)" xlink:href="#DejaVuSans-Oblique-113"/>
      <use transform="translate(63.476562 0.78125)" xlink:href="#DejaVuSans-49"/>
      <use transform="translate(127.099609 0.78125)" xlink:href="#DejaVuSans-51"/>
      <use transform="translate(190.722656 0.78125)" xlink:href="#DejaVuSans-52"/>
      <use transform="translate(255.302734 -15.625)scale(0.7)" xlink:href="#DejaVuSans-51"/>
     </g>
    </g>
   </g>
   <g id="text_75">
    <g clip-path="url(#pfbc7329420)">
     <!-- ${q134}_{4}$ -->
     <g transform="translate(280.76385 769.833777)scale(0.1625 -0.1625)">
      <use transform="translate(0 0.78125)" xlink:href="#DejaVuSans-Oblique-113"/>
      <use transform="translate(63.476562 0.78125)" xlink:href="#DejaVuSans-49"/>
      <use transform="translate(127.099609 0.78125)" xlink:href="#DejaVuSans-51"/>
      <use transform="translate(190.722656 0.78125)" xlink:href="#DejaVuSans-52"/>
      <use transform="translate(255.302734 -15.625)scale(0.7)" xlink:href="#DejaVuSans-52"/>
     </g>
    </g>
   </g>
   <g id="text_76">
    <g clip-path="url(#pfbc7329420)">
     <!-- ${q134}_{5}$ -->
     <g transform="translate(280.76385 816.187777)scale(0.1625 -0.1625)">
      <use transform="translate(0 0.78125)" xlink:href="#DejaVuSans-Oblique-113"/>
      <use transform="translate(63.476562 0.78125)" xlink:href="#DejaVuSans-49"/>
      <use transform="translate(127.099609 0.78125)" xlink:href="#DejaVuSans-51"/>
      <use transform="translate(190.722656 0.78125)" xlink:href="#DejaVuSans-52"/>
      <use transform="translate(255.302734 -15.625)scale(0.7)" xlink:href="#DejaVuSans-53"/>
     </g>
    </g>
   </g>
   <g id="text_77">
    <g clip-path="url(#pfbc7329420)">
     <!-- ${q134}_{6}$ -->
     <g transform="translate(280.76385 862.541777)scale(0.1625 -0.1625)">
      <use transform="translate(0 0.78125)" xlink:href="#DejaVuSans-Oblique-113"/>
      <use transform="translate(63.476562 0.78125)" xlink:href="#DejaVuSans-49"/>
      <use transform="translate(127.099609 0.78125)" xlink:href="#DejaVuSans-51"/>
      <use transform="translate(190.722656 0.78125)" xlink:href="#DejaVuSans-52"/>
      <use transform="translate(255.302734 -15.625)scale(0.7)" xlink:href="#DejaVuSans-54"/>
     </g>
    </g>
   </g>
   <g id="text_78">
    <g clip-path="url(#pfbc7329420)">
     <!-- ${q134}_{7}$ -->
     <g transform="translate(280.76385 908.895777)scale(0.1625 -0.1625)">
      <use transform="translate(0 0.78125)" xlink:href="#DejaVuSans-Oblique-113"/>
      <use transform="translate(63.476562 0.78125)" xlink:href="#DejaVuSans-49"/>
      <use transform="translate(127.099609 0.78125)" xlink:href="#DejaVuSans-51"/>
      <use transform="translate(190.722656 0.78125)" xlink:href="#DejaVuSans-52"/>
      <use transform="translate(255.302734 -15.625)scale(0.7)" xlink:href="#DejaVuSans-55"/>
     </g>
    </g>
   </g>
  </g>
 </g>
 <defs>
  <clipPath id="pfbc7329420">
   <rect height="806.5596" width="1321.089" x="218.75175" y="125.6976"/>
  </clipPath>
 </defs>
</svg>
