<?xml version="1.0" encoding="utf-8" standalone="no"?>
<!DOCTYPE svg PUBLIC "-//W3C//DTD SVG 1.1//EN"
  "http://www.w3.org/Graphics/SVG/1.1/DTD/svg11.dtd">
<!-- Created with matplotlib (https://matplotlib.org/) -->
<svg height="806.68pt" version="1.1" viewBox="0 0 1683.192 806.68" width="1683.192pt" xmlns="http://www.w3.org/2000/svg" xmlns:xlink="http://www.w3.org/1999/xlink">
 <defs>
  <style type="text/css">
*{stroke-linecap:butt;stroke-linejoin:round;}
  </style>
 </defs>
 <g id="figure_1">
  <g id="patch_1">
   <path d="M 0 806.68 
L 1683.192 806.68 
L 1683.192 0 
L 0 0 
z
" style="fill:#ffffff;"/>
  </g>
  <g id="axes_1">
   <g id="patch_2">
    <path clip-path="url(#p2ae6a551f9)" d="M 387.5074 679.587265 
L 399.55944 679.587265 
L 393.53342 690.1328 
z
" style="fill:#778899;"/>
   </g>
   <g id="patch_3">
    <path clip-path="url(#p2ae6a551f9)" d="M 433.8614 679.587265 
L 445.91344 679.587265 
L 439.88742 690.1328 
z
" style="fill:#778899;"/>
   </g>
   <g id="patch_4">
    <path clip-path="url(#p2ae6a551f9)" d="M 480.2154 679.587265 
L 492.26744 679.587265 
L 486.24142 690.1328 
z
" style="fill:#778899;"/>
   </g>
   <g id="patch_5">
    <path clip-path="url(#p2ae6a551f9)" d="M 526.5694 679.587265 
L 538.62144 679.587265 
L 532.59542 690.1328 
z
" style="fill:#778899;"/>
   </g>
   <g id="patch_6">
    <path clip-path="url(#p2ae6a551f9)" d="M 572.9234 679.587265 
L 584.97544 679.587265 
L 578.94942 690.1328 
z
" style="fill:#778899;"/>
   </g>
   <g id="line2d_1">
    <path clip-path="url(#p2ae6a551f9)" d="M 324.00242 133.8848 
L 1506.02942 133.8848 
" style="fill:none;stroke:#000000;stroke-linecap:square;stroke-width:2;"/>
   </g>
   <g id="line2d_2">
    <path clip-path="url(#p2ae6a551f9)" d="M 324.00242 180.2388 
L 1506.02942 180.2388 
" style="fill:none;stroke:#000000;stroke-linecap:square;stroke-width:2;"/>
   </g>
   <g id="line2d_3">
    <path clip-path="url(#p2ae6a551f9)" d="M 324.00242 226.5928 
L 1506.02942 226.5928 
" style="fill:none;stroke:#000000;stroke-linecap:square;stroke-width:2;"/>
   </g>
   <g id="line2d_4">
    <path clip-path="url(#p2ae6a551f9)" d="M 324.00242 272.9468 
L 1506.02942 272.9468 
" style="fill:none;stroke:#000000;stroke-linecap:square;stroke-width:2;"/>
   </g>
   <g id="line2d_5">
    <path clip-path="url(#p2ae6a551f9)" d="M 324.00242 319.3008 
L 1506.02942 319.3008 
" style="fill:none;stroke:#000000;stroke-linecap:square;stroke-width:2;"/>
   </g>
   <g id="line2d_6">
    <path clip-path="url(#p2ae6a551f9)" d="M 324.00242 364.148295 
L 1506.02942 364.148295 
" style="fill:none;stroke:#778899;stroke-linecap:square;stroke-width:2;"/>
   </g>
   <g id="line2d_7">
    <path clip-path="url(#p2ae6a551f9)" d="M 324.00242 367.161305 
L 1506.02942 367.161305 
" style="fill:none;stroke:#778899;stroke-linecap:square;stroke-width:2;"/>
   </g>
   <g id="line2d_8">
    <path clip-path="url(#p2ae6a551f9)" d="M 324.00242 458.3628 
L 1506.02942 458.3628 
" style="fill:none;stroke:#000000;stroke-linecap:square;stroke-width:2;"/>
   </g>
   <g id="line2d_9">
    <path clip-path="url(#p2ae6a551f9)" d="M 324.00242 504.7168 
L 1506.02942 504.7168 
" style="fill:none;stroke:#000000;stroke-linecap:square;stroke-width:2;"/>
   </g>
   <g id="line2d_10">
    <path clip-path="url(#p2ae6a551f9)" d="M 324.00242 551.0708 
L 1506.02942 551.0708 
" style="fill:none;stroke:#000000;stroke-linecap:square;stroke-width:2;"/>
   </g>
   <g id="line2d_11">
    <path clip-path="url(#p2ae6a551f9)" d="M 324.00242 597.4248 
L 1506.02942 597.4248 
" style="fill:none;stroke:#000000;stroke-linecap:square;stroke-width:2;"/>
   </g>
   <g id="line2d_12">
    <path clip-path="url(#p2ae6a551f9)" d="M 324.00242 643.7788 
L 1506.02942 643.7788 
" style="fill:none;stroke:#000000;stroke-linecap:square;stroke-width:2;"/>
   </g>
   <g id="line2d_13">
    <path clip-path="url(#p2ae6a551f9)" d="M 324.00242 688.626295 
L 1506.02942 688.626295 
" style="fill:none;stroke:#778899;stroke-linecap:square;stroke-width:2;"/>
   </g>
   <g id="line2d_14">
    <path clip-path="url(#p2ae6a551f9)" d="M 324.00242 691.639305 
L 1506.02942 691.639305 
" style="fill:none;stroke:#778899;stroke-linecap:square;stroke-width:2;"/>
   </g>
   <g id="patch_7">
    <path clip-path="url(#p2ae6a551f9)" d="M 430.84839 342.4778 
L 448.92645 342.4778 
L 448.92645 110.7078 
L 430.84839 110.7078 
z
" style="fill:#bdbdbd;opacity:0.6;"/>
   </g>
   <g id="patch_8">
    <path clip-path="url(#p2ae6a551f9)" d="M 708.97239 342.4778 
L 727.05045 342.4778 
L 727.05045 110.7078 
L 708.97239 110.7078 
z
" style="fill:#bdbdbd;opacity:0.6;"/>
   </g>
   <g id="patch_9">
    <path clip-path="url(#p2ae6a551f9)" d="M 940.74239 342.4778 
L 958.82045 342.4778 
L 958.82045 110.7078 
L 940.74239 110.7078 
z
" style="fill:#bdbdbd;opacity:0.6;"/>
   </g>
   <g id="patch_10">
    <path clip-path="url(#p2ae6a551f9)" d="M 1126.15839 342.4778 
L 1144.23645 342.4778 
L 1144.23645 110.7078 
L 1126.15839 110.7078 
z
" style="fill:#bdbdbd;opacity:0.6;"/>
   </g>
   <g id="patch_11">
    <path clip-path="url(#p2ae6a551f9)" d="M 1265.22039 342.4778 
L 1283.29845 342.4778 
L 1283.29845 110.7078 
L 1265.22039 110.7078 
z
" style="fill:#bdbdbd;opacity:0.6;"/>
   </g>
   <g id="patch_12">
    <path clip-path="url(#p2ae6a551f9)" d="M 1357.92839 342.4778 
L 1376.00645 342.4778 
L 1376.00645 110.7078 
L 1357.92839 110.7078 
z
" style="fill:#bdbdbd;opacity:0.6;"/>
   </g>
   <g id="patch_13">
    <path clip-path="url(#p2ae6a551f9)" d="M 338.14039 666.9558 
L 356.21845 666.9558 
L 356.21845 435.1858 
L 338.14039 435.1858 
z
" style="fill:#bdbdbd;opacity:0.6;"/>
   </g>
   <g id="line2d_15">
    <path clip-path="url(#p2ae6a551f9)" d="M 532.59542 180.2388 
L 532.59542 133.8848 
" style="fill:none;stroke:#bb8bff;stroke-linecap:square;stroke-width:2;"/>
   </g>
   <g id="line2d_16">
    <path clip-path="url(#p2ae6a551f9)" d="M 578.94942 226.5928 
L 578.94942 133.8848 
" style="fill:none;stroke:#bb8bff;stroke-linecap:square;stroke-width:2;"/>
   </g>
   <g id="line2d_17">
    <path clip-path="url(#p2ae6a551f9)" d="M 625.30342 272.9468 
L 625.30342 133.8848 
" style="fill:none;stroke:#bb8bff;stroke-linecap:square;stroke-width:2;"/>
   </g>
   <g id="line2d_18">
    <path clip-path="url(#p2ae6a551f9)" d="M 671.65742 319.3008 
L 671.65742 133.8848 
" style="fill:none;stroke:#bb8bff;stroke-linecap:square;stroke-width:2;"/>
   </g>
   <g id="line2d_19">
    <path clip-path="url(#p2ae6a551f9)" d="M 810.71942 226.5928 
L 810.71942 180.2388 
" style="fill:none;stroke:#bb8bff;stroke-linecap:square;stroke-width:2;"/>
   </g>
   <g id="line2d_20">
    <path clip-path="url(#p2ae6a551f9)" d="M 857.07342 272.9468 
L 857.07342 180.2388 
" style="fill:none;stroke:#bb8bff;stroke-linecap:square;stroke-width:2;"/>
   </g>
   <g id="line2d_21">
    <path clip-path="url(#p2ae6a551f9)" d="M 903.42742 319.3008 
L 903.42742 180.2388 
" style="fill:none;stroke:#bb8bff;stroke-linecap:square;stroke-width:2;"/>
   </g>
   <g id="line2d_22">
    <path clip-path="url(#p2ae6a551f9)" d="M 1042.48942 272.9468 
L 1042.48942 226.5928 
" style="fill:none;stroke:#bb8bff;stroke-linecap:square;stroke-width:2;"/>
   </g>
   <g id="line2d_23">
    <path clip-path="url(#p2ae6a551f9)" d="M 1088.84342 319.3008 
L 1088.84342 226.5928 
" style="fill:none;stroke:#bb8bff;stroke-linecap:square;stroke-width:2;"/>
   </g>
   <g id="line2d_24">
    <path clip-path="url(#p2ae6a551f9)" d="M 1227.90542 319.3008 
L 1227.90542 272.9468 
" style="fill:none;stroke:#bb8bff;stroke-linecap:square;stroke-width:2;"/>
   </g>
   <g id="line2d_25">
    <path clip-path="url(#p2ae6a551f9)" d="M 1413.32142 319.3008 
L 1413.32142 133.8848 
" style="fill:none;stroke:#bb8bff;stroke-linecap:square;stroke-width:2;"/>
   </g>
   <g id="line2d_26">
    <path clip-path="url(#p2ae6a551f9)" d="M 1459.67542 272.9468 
L 1459.67542 180.2388 
" style="fill:none;stroke:#bb8bff;stroke-linecap:square;stroke-width:2;"/>
   </g>
   <g id="line2d_27">
    <path clip-path="url(#p2ae6a551f9)" d="M 395.039925 458.3628 
L 395.039925 679.587265 
" style="fill:none;stroke:#778899;stroke-linecap:square;stroke-width:2;"/>
   </g>
   <g id="line2d_28">
    <path clip-path="url(#p2ae6a551f9)" d="M 392.026915 458.3628 
L 392.026915 679.587265 
" style="fill:none;stroke:#778899;stroke-linecap:square;stroke-width:2;"/>
   </g>
   <g id="line2d_29">
    <path clip-path="url(#p2ae6a551f9)" d="M 441.393925 504.7168 
L 441.393925 679.587265 
" style="fill:none;stroke:#778899;stroke-linecap:square;stroke-width:2;"/>
   </g>
   <g id="line2d_30">
    <path clip-path="url(#p2ae6a551f9)" d="M 438.380915 504.7168 
L 438.380915 679.587265 
" style="fill:none;stroke:#778899;stroke-linecap:square;stroke-width:2;"/>
   </g>
   <g id="line2d_31">
    <path clip-path="url(#p2ae6a551f9)" d="M 487.747925 551.0708 
L 487.747925 679.587265 
" style="fill:none;stroke:#778899;stroke-linecap:square;stroke-width:2;"/>
   </g>
   <g id="line2d_32">
    <path clip-path="url(#p2ae6a551f9)" d="M 484.734915 551.0708 
L 484.734915 679.587265 
" style="fill:none;stroke:#778899;stroke-linecap:square;stroke-width:2;"/>
   </g>
   <g id="line2d_33">
    <path clip-path="url(#p2ae6a551f9)" d="M 534.101925 597.4248 
L 534.101925 679.587265 
" style="fill:none;stroke:#778899;stroke-linecap:square;stroke-width:2;"/>
   </g>
   <g id="line2d_34">
    <path clip-path="url(#p2ae6a551f9)" d="M 531.088915 597.4248 
L 531.088915 679.587265 
" style="fill:none;stroke:#778899;stroke-linecap:square;stroke-width:2;"/>
   </g>
   <g id="line2d_35">
    <path clip-path="url(#p2ae6a551f9)" d="M 580.455925 643.7788 
L 580.455925 679.587265 
" style="fill:none;stroke:#778899;stroke-linecap:square;stroke-width:2;"/>
   </g>
   <g id="line2d_36">
    <path clip-path="url(#p2ae6a551f9)" d="M 577.442915 643.7788 
L 577.442915 679.587265 
" style="fill:none;stroke:#778899;stroke-linecap:square;stroke-width:2;"/>
   </g>
   <g id="line2d_37">
    <path clip-path="url(#p2ae6a551f9)" d="M 351.81482 370.2902 
L 356.45022 361.0194 
" style="fill:none;stroke:#778899;stroke-linecap:square;stroke-width:1.5;"/>
   </g>
   <g id="line2d_38">
    <path clip-path="url(#p2ae6a551f9)" d="M 1503.24818 133.8848 
L 1503.24818 365.6548 
" style="fill:none;stroke:#000000;stroke-linecap:square;stroke-width:1.5;"/>
   </g>
   <g id="line2d_39">
    <path clip-path="url(#p2ae6a551f9)" d="M 1512.51898 133.8848 
L 1512.51898 365.6548 
" style="fill:none;stroke:#000000;stroke-linecap:square;stroke-width:1.5;"/>
   </g>
   <g id="line2d_40">
    <path clip-path="url(#p2ae6a551f9)" d="M 351.81482 694.7682 
L 356.45022 685.4974 
" style="fill:none;stroke:#778899;stroke-linecap:square;stroke-width:1.5;"/>
   </g>
   <g id="line2d_41">
    <path clip-path="url(#p2ae6a551f9)" d="M 307.31498 458.3628 
L 307.31498 690.1328 
" style="fill:none;stroke:#000000;stroke-linecap:square;stroke-width:1.5;"/>
   </g>
   <g id="line2d_42">
    <path clip-path="url(#p2ae6a551f9)" d="M 316.58578 458.3628 
L 316.58578 690.1328 
" style="fill:none;stroke:#000000;stroke-linecap:square;stroke-width:1.5;"/>
   </g>
   <g id="line2d_43">
    <path clip-path="url(#p2ae6a551f9)" d="M 1407.2954 139.91082 
L 1419.34744 127.85878 
" style="fill:none;stroke:#bb8bff;stroke-linecap:square;stroke-width:2;"/>
   </g>
   <g id="line2d_44">
    <path clip-path="url(#p2ae6a551f9)" d="M 1407.2954 127.85878 
L 1419.34744 139.91082 
" style="fill:none;stroke:#bb8bff;stroke-linecap:square;stroke-width:2;"/>
   </g>
   <g id="line2d_45">
    <path clip-path="url(#p2ae6a551f9)" d="M 1407.2954 325.32682 
L 1419.34744 313.27478 
" style="fill:none;stroke:#bb8bff;stroke-linecap:square;stroke-width:2;"/>
   </g>
   <g id="line2d_46">
    <path clip-path="url(#p2ae6a551f9)" d="M 1407.2954 313.27478 
L 1419.34744 325.32682 
" style="fill:none;stroke:#bb8bff;stroke-linecap:square;stroke-width:2;"/>
   </g>
   <g id="line2d_47">
    <path clip-path="url(#p2ae6a551f9)" d="M 1453.6494 186.26482 
L 1465.70144 174.21278 
" style="fill:none;stroke:#bb8bff;stroke-linecap:square;stroke-width:2;"/>
   </g>
   <g id="line2d_48">
    <path clip-path="url(#p2ae6a551f9)" d="M 1453.6494 174.21278 
L 1465.70144 186.26482 
" style="fill:none;stroke:#bb8bff;stroke-linecap:square;stroke-width:2;"/>
   </g>
   <g id="line2d_49">
    <path clip-path="url(#p2ae6a551f9)" d="M 1453.6494 278.97282 
L 1465.70144 266.92078 
" style="fill:none;stroke:#bb8bff;stroke-linecap:square;stroke-width:2;"/>
   </g>
   <g id="line2d_50">
    <path clip-path="url(#p2ae6a551f9)" d="M 1453.6494 266.92078 
L 1465.70144 278.97282 
" style="fill:none;stroke:#bb8bff;stroke-linecap:square;stroke-width:2;"/>
   </g>
   <g id="patch_14">
    <path clip-path="url(#p2ae6a551f9)" d="M 332.11437 148.94985 
L 362.24447 148.94985 
L 362.24447 118.81975 
L 332.11437 118.81975 
z
" style="fill:#6fa4ff;"/>
   </g>
   <g id="patch_15">
    <path clip-path="url(#p2ae6a551f9)" d="M 332.11437 195.30385 
L 362.24447 195.30385 
L 362.24447 165.17375 
L 332.11437 165.17375 
z
" style="fill:#6fa4ff;"/>
   </g>
   <g id="patch_16">
    <path clip-path="url(#p2ae6a551f9)" d="M 332.11437 241.65785 
L 362.24447 241.65785 
L 362.24447 211.52775 
L 332.11437 211.52775 
z
" style="fill:#6fa4ff;"/>
   </g>
   <g id="patch_17">
    <path clip-path="url(#p2ae6a551f9)" d="M 332.11437 288.01185 
L 362.24447 288.01185 
L 362.24447 257.88175 
L 332.11437 257.88175 
z
" style="fill:#6fa4ff;"/>
   </g>
   <g id="patch_18">
    <path clip-path="url(#p2ae6a551f9)" d="M 332.11437 334.36585 
L 362.24447 334.36585 
L 362.24447 304.23575 
L 332.11437 304.23575 
z
" style="fill:#6fa4ff;"/>
   </g>
   <g id="patch_19">
    <path clip-path="url(#p2ae6a551f9)" d="M 378.46837 148.94985 
L 408.59847 148.94985 
L 408.59847 118.81975 
L 378.46837 118.81975 
z
" style="fill:#fa74a6;"/>
   </g>
   <g id="patch_20">
    <path clip-path="url(#p2ae6a551f9)" d="M 378.46837 195.30385 
L 408.59847 195.30385 
L 408.59847 165.17375 
L 378.46837 165.17375 
z
" style="fill:#fa74a6;"/>
   </g>
   <g id="patch_21">
    <path clip-path="url(#p2ae6a551f9)" d="M 378.46837 241.65785 
L 408.59847 241.65785 
L 408.59847 211.52775 
L 378.46837 211.52775 
z
" style="fill:#fa74a6;"/>
   </g>
   <g id="patch_22">
    <path clip-path="url(#p2ae6a551f9)" d="M 378.46837 288.01185 
L 408.59847 288.01185 
L 408.59847 257.88175 
L 378.46837 257.88175 
z
" style="fill:#fa74a6;"/>
   </g>
   <g id="patch_23">
    <path clip-path="url(#p2ae6a551f9)" d="M 378.46837 334.36585 
L 408.59847 334.36585 
L 408.59847 304.23575 
L 378.46837 304.23575 
z
" style="fill:#fa74a6;"/>
   </g>
   <g id="patch_24">
    <path clip-path="url(#p2ae6a551f9)" d="M 471.17637 148.94985 
L 501.30647 148.94985 
L 501.30647 118.81975 
L 471.17637 118.81975 
z
" style="fill:#6fa4ff;"/>
   </g>
   <g id="patch_25">
    <path clip-path="url(#p2ae6a551f9)" d="M 532.59542 184.758315 
C 533.794009 184.758315 534.943669 184.28211 535.7912 183.43458 
C 536.63873 182.587049 537.114935 181.437389 537.114935 180.2388 
C 537.114935 179.040211 536.63873 177.890551 535.7912 177.04302 
C 534.943669 176.19549 533.794009 175.719285 532.59542 175.719285 
C 531.396831 175.719285 530.247171 176.19549 529.39964 177.04302 
C 528.55211 177.890551 528.075905 179.040211 528.075905 180.2388 
C 528.075905 181.437389 528.55211 182.587049 529.39964 183.43458 
C 530.247171 184.28211 531.396831 184.758315 532.59542 184.758315 
z
" style="fill:#bb8bff;stroke:#bb8bff;stroke-linejoin:miter;stroke-width:1.5;"/>
   </g>
   <g id="patch_26">
    <path clip-path="url(#p2ae6a551f9)" d="M 517.53037 148.94985 
L 547.66047 148.94985 
L 547.66047 118.81975 
L 517.53037 118.81975 
z
" style="fill:#bb8bff;"/>
   </g>
   <g id="patch_27">
    <path clip-path="url(#p2ae6a551f9)" d="M 578.94942 231.112315 
C 580.148009 231.112315 581.297669 230.63611 582.1452 229.78858 
C 582.99273 228.941049 583.468935 227.791389 583.468935 226.5928 
C 583.468935 225.394211 582.99273 224.244551 582.1452 223.39702 
C 581.297669 222.54949 580.148009 222.073285 578.94942 222.073285 
C 577.750831 222.073285 576.601171 222.54949 575.75364 223.39702 
C 574.90611 224.244551 574.429905 225.394211 574.429905 226.5928 
C 574.429905 227.791389 574.90611 228.941049 575.75364 229.78858 
C 576.601171 230.63611 577.750831 231.112315 578.94942 231.112315 
z
" style="fill:#bb8bff;stroke:#bb8bff;stroke-linejoin:miter;stroke-width:1.5;"/>
   </g>
   <g id="patch_28">
    <path clip-path="url(#p2ae6a551f9)" d="M 563.88437 148.94985 
L 594.01447 148.94985 
L 594.01447 118.81975 
L 563.88437 118.81975 
z
" style="fill:#bb8bff;"/>
   </g>
   <g id="patch_29">
    <path clip-path="url(#p2ae6a551f9)" d="M 625.30342 277.466315 
C 626.502009 277.466315 627.651669 276.99011 628.4992 276.14258 
C 629.34673 275.295049 629.822935 274.145389 629.822935 272.9468 
C 629.822935 271.748211 629.34673 270.598551 628.4992 269.75102 
C 627.651669 268.90349 626.502009 268.427285 625.30342 268.427285 
C 624.104831 268.427285 622.955171 268.90349 622.10764 269.75102 
C 621.26011 270.598551 620.783905 271.748211 620.783905 272.9468 
C 620.783905 274.145389 621.26011 275.295049 622.10764 276.14258 
C 622.955171 276.99011 624.104831 277.466315 625.30342 277.466315 
z
" style="fill:#bb8bff;stroke:#bb8bff;stroke-linejoin:miter;stroke-width:1.5;"/>
   </g>
   <g id="patch_30">
    <path clip-path="url(#p2ae6a551f9)" d="M 610.23837 148.94985 
L 640.36847 148.94985 
L 640.36847 118.81975 
L 610.23837 118.81975 
z
" style="fill:#bb8bff;"/>
   </g>
   <g id="patch_31">
    <path clip-path="url(#p2ae6a551f9)" d="M 671.65742 323.820315 
C 672.856009 323.820315 674.005669 323.34411 674.8532 322.49658 
C 675.70073 321.649049 676.176935 320.499389 676.176935 319.3008 
C 676.176935 318.102211 675.70073 316.952551 674.8532 316.10502 
C 674.005669 315.25749 672.856009 314.781285 671.65742 314.781285 
C 670.458831 314.781285 669.309171 315.25749 668.46164 316.10502 
C 667.61411 316.952551 667.137905 318.102211 667.137905 319.3008 
C 667.137905 320.499389 667.61411 321.649049 668.46164 322.49658 
C 669.309171 323.34411 670.458831 323.820315 671.65742 323.820315 
z
" style="fill:#bb8bff;stroke:#bb8bff;stroke-linejoin:miter;stroke-width:1.5;"/>
   </g>
   <g id="patch_32">
    <path clip-path="url(#p2ae6a551f9)" d="M 656.59237 148.94985 
L 686.72247 148.94985 
L 686.72247 118.81975 
L 656.59237 118.81975 
z
" style="fill:#bb8bff;"/>
   </g>
   <g id="patch_33">
    <path clip-path="url(#p2ae6a551f9)" d="M 749.30037 195.30385 
L 779.43047 195.30385 
L 779.43047 165.17375 
L 749.30037 165.17375 
z
" style="fill:#6fa4ff;"/>
   </g>
   <g id="patch_34">
    <path clip-path="url(#p2ae6a551f9)" d="M 810.71942 231.112315 
C 811.918009 231.112315 813.067669 230.63611 813.9152 229.78858 
C 814.76273 228.941049 815.238935 227.791389 815.238935 226.5928 
C 815.238935 225.394211 814.76273 224.244551 813.9152 223.39702 
C 813.067669 222.54949 811.918009 222.073285 810.71942 222.073285 
C 809.520831 222.073285 808.371171 222.54949 807.52364 223.39702 
C 806.67611 224.244551 806.199905 225.394211 806.199905 226.5928 
C 806.199905 227.791389 806.67611 228.941049 807.52364 229.78858 
C 808.371171 230.63611 809.520831 231.112315 810.71942 231.112315 
z
" style="fill:#bb8bff;stroke:#bb8bff;stroke-linejoin:miter;stroke-width:1.5;"/>
   </g>
   <g id="patch_35">
    <path clip-path="url(#p2ae6a551f9)" d="M 795.65437 195.30385 
L 825.78447 195.30385 
L 825.78447 165.17375 
L 795.65437 165.17375 
z
" style="fill:#bb8bff;"/>
   </g>
   <g id="patch_36">
    <path clip-path="url(#p2ae6a551f9)" d="M 857.07342 277.466315 
C 858.272009 277.466315 859.421669 276.99011 860.2692 276.14258 
C 861.11673 275.295049 861.592935 274.145389 861.592935 272.9468 
C 861.592935 271.748211 861.11673 270.598551 860.2692 269.75102 
C 859.421669 268.90349 858.272009 268.427285 857.07342 268.427285 
C 855.874831 268.427285 854.725171 268.90349 853.87764 269.75102 
C 853.03011 270.598551 852.553905 271.748211 852.553905 272.9468 
C 852.553905 274.145389 853.03011 275.295049 853.87764 276.14258 
C 854.725171 276.99011 855.874831 277.466315 857.07342 277.466315 
z
" style="fill:#bb8bff;stroke:#bb8bff;stroke-linejoin:miter;stroke-width:1.5;"/>
   </g>
   <g id="patch_37">
    <path clip-path="url(#p2ae6a551f9)" d="M 842.00837 195.30385 
L 872.13847 195.30385 
L 872.13847 165.17375 
L 842.00837 165.17375 
z
" style="fill:#bb8bff;"/>
   </g>
   <g id="patch_38">
    <path clip-path="url(#p2ae6a551f9)" d="M 903.42742 323.820315 
C 904.626009 323.820315 905.775669 323.34411 906.6232 322.49658 
C 907.47073 321.649049 907.946935 320.499389 907.946935 319.3008 
C 907.946935 318.102211 907.47073 316.952551 906.6232 316.10502 
C 905.775669 315.25749 904.626009 314.781285 903.42742 314.781285 
C 902.228831 314.781285 901.079171 315.25749 900.23164 316.10502 
C 899.38411 316.952551 898.907905 318.102211 898.907905 319.3008 
C 898.907905 320.499389 899.38411 321.649049 900.23164 322.49658 
C 901.079171 323.34411 902.228831 323.820315 903.42742 323.820315 
z
" style="fill:#bb8bff;stroke:#bb8bff;stroke-linejoin:miter;stroke-width:1.5;"/>
   </g>
   <g id="patch_39">
    <path clip-path="url(#p2ae6a551f9)" d="M 888.36237 195.30385 
L 918.49247 195.30385 
L 918.49247 165.17375 
L 888.36237 165.17375 
z
" style="fill:#bb8bff;"/>
   </g>
   <g id="patch_40">
    <path clip-path="url(#p2ae6a551f9)" d="M 981.07037 241.65785 
L 1011.20047 241.65785 
L 1011.20047 211.52775 
L 981.07037 211.52775 
z
" style="fill:#6fa4ff;"/>
   </g>
   <g id="patch_41">
    <path clip-path="url(#p2ae6a551f9)" d="M 1042.48942 277.466315 
C 1043.688009 277.466315 1044.837669 276.99011 1045.6852 276.14258 
C 1046.53273 275.295049 1047.008935 274.145389 1047.008935 272.9468 
C 1047.008935 271.748211 1046.53273 270.598551 1045.6852 269.75102 
C 1044.837669 268.90349 1043.688009 268.427285 1042.48942 268.427285 
C 1041.290831 268.427285 1040.141171 268.90349 1039.29364 269.75102 
C 1038.44611 270.598551 1037.969905 271.748211 1037.969905 272.9468 
C 1037.969905 274.145389 1038.44611 275.295049 1039.29364 276.14258 
C 1040.141171 276.99011 1041.290831 277.466315 1042.48942 277.466315 
z
" style="fill:#bb8bff;stroke:#bb8bff;stroke-linejoin:miter;stroke-width:1.5;"/>
   </g>
   <g id="patch_42">
    <path clip-path="url(#p2ae6a551f9)" d="M 1027.42437 241.65785 
L 1057.55447 241.65785 
L 1057.55447 211.52775 
L 1027.42437 211.52775 
z
" style="fill:#bb8bff;"/>
   </g>
   <g id="patch_43">
    <path clip-path="url(#p2ae6a551f9)" d="M 1088.84342 323.820315 
C 1090.042009 323.820315 1091.191669 323.34411 1092.0392 322.49658 
C 1092.88673 321.649049 1093.362935 320.499389 1093.362935 319.3008 
C 1093.362935 318.102211 1092.88673 316.952551 1092.0392 316.10502 
C 1091.191669 315.25749 1090.042009 314.781285 1088.84342 314.781285 
C 1087.644831 314.781285 1086.495171 315.25749 1085.64764 316.10502 
C 1084.80011 316.952551 1084.323905 318.102211 1084.323905 319.3008 
C 1084.323905 320.499389 1084.80011 321.649049 1085.64764 322.49658 
C 1086.495171 323.34411 1087.644831 323.820315 1088.84342 323.820315 
z
" style="fill:#bb8bff;stroke:#bb8bff;stroke-linejoin:miter;stroke-width:1.5;"/>
   </g>
   <g id="patch_44">
    <path clip-path="url(#p2ae6a551f9)" d="M 1073.77837 241.65785 
L 1103.90847 241.65785 
L 1103.90847 211.52775 
L 1073.77837 211.52775 
z
" style="fill:#bb8bff;"/>
   </g>
   <g id="patch_45">
    <path clip-path="url(#p2ae6a551f9)" d="M 1166.48637 288.01185 
L 1196.61647 288.01185 
L 1196.61647 257.88175 
L 1166.48637 257.88175 
z
" style="fill:#6fa4ff;"/>
   </g>
   <g id="patch_46">
    <path clip-path="url(#p2ae6a551f9)" d="M 1227.90542 323.820315 
C 1229.104009 323.820315 1230.253669 323.34411 1231.1012 322.49658 
C 1231.94873 321.649049 1232.424935 320.499389 1232.424935 319.3008 
C 1232.424935 318.102211 1231.94873 316.952551 1231.1012 316.10502 
C 1230.253669 315.25749 1229.104009 314.781285 1227.90542 314.781285 
C 1226.706831 314.781285 1225.557171 315.25749 1224.70964 316.10502 
C 1223.86211 316.952551 1223.385905 318.102211 1223.385905 319.3008 
C 1223.385905 320.499389 1223.86211 321.649049 1224.70964 322.49658 
C 1225.557171 323.34411 1226.706831 323.820315 1227.90542 323.820315 
z
" style="fill:#bb8bff;stroke:#bb8bff;stroke-linejoin:miter;stroke-width:1.5;"/>
   </g>
   <g id="patch_47">
    <path clip-path="url(#p2ae6a551f9)" d="M 1212.84037 288.01185 
L 1242.97047 288.01185 
L 1242.97047 257.88175 
L 1212.84037 257.88175 
z
" style="fill:#bb8bff;"/>
   </g>
   <g id="patch_48">
    <path clip-path="url(#p2ae6a551f9)" d="M 1305.54837 334.36585 
L 1335.67847 334.36585 
L 1335.67847 304.23575 
L 1305.54837 304.23575 
z
" style="fill:#6fa4ff;"/>
   </g>
   <g id="patch_49">
    <path clip-path="url(#p2ae6a551f9)" d="M 378.46837 473.42785 
L 408.59847 473.42785 
L 408.59847 443.29775 
L 378.46837 443.29775 
z
"/>
   </g>
   <g id="patch_50">
    <path clip-path="url(#p2ae6a551f9)" d="M 404.078955 462.882315 
C 404.078955 460.086538 402.967152 457.402409 400.990239 455.425496 
C 399.013326 453.448583 396.329197 452.33678 393.53342 452.33678 
C 390.737643 452.33678 388.053514 453.448583 386.076601 455.425496 
C 384.099688 457.402409 382.987885 460.086538 382.987885 462.882315 
" style="fill:none;stroke:#ffffff;stroke-linejoin:miter;stroke-width:2;"/>
   </g>
   <g id="patch_51">
    <path clip-path="url(#p2ae6a551f9)" d="M 424.82237 519.78185 
L 454.95247 519.78185 
L 454.95247 489.65175 
L 424.82237 489.65175 
z
"/>
   </g>
   <g id="patch_52">
    <path clip-path="url(#p2ae6a551f9)" d="M 450.432955 509.236315 
C 450.432955 506.440538 449.321152 503.756409 447.344239 501.779496 
C 445.367326 499.802583 442.683197 498.69078 439.88742 498.69078 
C 437.091643 498.69078 434.407514 499.802583 432.430601 501.779496 
C 430.453688 503.756409 429.341885 506.440538 429.341885 509.236315 
" style="fill:none;stroke:#ffffff;stroke-linejoin:miter;stroke-width:2;"/>
   </g>
   <g id="patch_53">
    <path clip-path="url(#p2ae6a551f9)" d="M 471.17637 566.13585 
L 501.30647 566.13585 
L 501.30647 536.00575 
L 471.17637 536.00575 
z
"/>
   </g>
   <g id="patch_54">
    <path clip-path="url(#p2ae6a551f9)" d="M 496.786955 555.590315 
C 496.786955 552.794538 495.675152 550.110409 493.698239 548.133496 
C 491.721326 546.156583 489.037197 545.04478 486.24142 545.04478 
C 483.445643 545.04478 480.761514 546.156583 478.784601 548.133496 
C 476.807688 550.110409 475.695885 552.794538 475.695885 555.590315 
" style="fill:none;stroke:#ffffff;stroke-linejoin:miter;stroke-width:2;"/>
   </g>
   <g id="patch_55">
    <path clip-path="url(#p2ae6a551f9)" d="M 517.53037 612.48985 
L 547.66047 612.48985 
L 547.66047 582.35975 
L 517.53037 582.35975 
z
"/>
   </g>
   <g id="patch_56">
    <path clip-path="url(#p2ae6a551f9)" d="M 543.140955 601.944315 
C 543.140955 599.148538 542.029152 596.464409 540.052239 594.487496 
C 538.075326 592.510583 535.391197 591.39878 532.59542 591.39878 
C 529.799643 591.39878 527.115514 592.510583 525.138601 594.487496 
C 523.161688 596.464409 522.049885 599.148538 522.049885 601.944315 
" style="fill:none;stroke:#ffffff;stroke-linejoin:miter;stroke-width:2;"/>
   </g>
   <g id="patch_57">
    <path clip-path="url(#p2ae6a551f9)" d="M 563.88437 658.84385 
L 594.01447 658.84385 
L 594.01447 628.71375 
L 563.88437 628.71375 
z
"/>
   </g>
   <g id="patch_58">
    <path clip-path="url(#p2ae6a551f9)" d="M 589.494955 648.298315 
C 589.494955 645.502538 588.383152 642.818409 586.406239 640.841496 
C 584.429326 638.864583 581.745197 637.75278 578.94942 637.75278 
C 576.153643 637.75278 573.469514 638.864583 571.492601 640.841496 
C 569.515688 642.818409 568.403885 645.502538 568.403885 648.298315 
" style="fill:none;stroke:#ffffff;stroke-linejoin:miter;stroke-width:2;"/>
   </g>
   <g id="line2d_51">
    <path clip-path="url(#p2ae6a551f9)" d="M 393.53342 462.882315 
L 404.078955 452.33678 
" style="fill:none;stroke:#ffffff;stroke-linecap:square;stroke-width:2;"/>
   </g>
   <g id="line2d_52">
    <path clip-path="url(#p2ae6a551f9)" d="M 439.88742 509.236315 
L 450.432955 498.69078 
" style="fill:none;stroke:#ffffff;stroke-linecap:square;stroke-width:2;"/>
   </g>
   <g id="line2d_53">
    <path clip-path="url(#p2ae6a551f9)" d="M 486.24142 555.590315 
L 496.786955 545.04478 
" style="fill:none;stroke:#ffffff;stroke-linecap:square;stroke-width:2;"/>
   </g>
   <g id="line2d_54">
    <path clip-path="url(#p2ae6a551f9)" d="M 532.59542 601.944315 
L 543.140955 591.39878 
" style="fill:none;stroke:#ffffff;stroke-linecap:square;stroke-width:2;"/>
   </g>
   <g id="line2d_55">
    <path clip-path="url(#p2ae6a551f9)" d="M 578.94942 648.298315 
L 589.494955 637.75278 
" style="fill:none;stroke:#ffffff;stroke-linecap:square;stroke-width:2;"/>
   </g>
   <g id="line2d_56">
    <path clip-path="url(#p2ae6a551f9)" d="M 439.88742 110.7078 
L 439.88742 157.0618 
" style="fill:none;stroke:#000000;stroke-dasharray:3.7,1.6;stroke-dashoffset:0;"/>
   </g>
   <g id="line2d_57">
    <path clip-path="url(#p2ae6a551f9)" d="M 439.88742 157.0618 
L 439.88742 203.4158 
" style="fill:none;stroke:#000000;stroke-dasharray:3.7,1.6;stroke-dashoffset:0;"/>
   </g>
   <g id="line2d_58">
    <path clip-path="url(#p2ae6a551f9)" d="M 439.88742 203.4158 
L 439.88742 249.7698 
" style="fill:none;stroke:#000000;stroke-dasharray:3.7,1.6;stroke-dashoffset:0;"/>
   </g>
   <g id="line2d_59">
    <path clip-path="url(#p2ae6a551f9)" d="M 439.88742 249.7698 
L 439.88742 296.1238 
" style="fill:none;stroke:#000000;stroke-dasharray:3.7,1.6;stroke-dashoffset:0;"/>
   </g>
   <g id="line2d_60">
    <path clip-path="url(#p2ae6a551f9)" d="M 439.88742 296.1238 
L 439.88742 342.4778 
" style="fill:none;stroke:#000000;stroke-dasharray:3.7,1.6;stroke-dashoffset:0;"/>
   </g>
   <g id="line2d_61">
    <path clip-path="url(#p2ae6a551f9)" d="M 718.01142 110.7078 
L 718.01142 157.0618 
" style="fill:none;stroke:#000000;stroke-dasharray:3.7,1.6;stroke-dashoffset:0;"/>
   </g>
   <g id="line2d_62">
    <path clip-path="url(#p2ae6a551f9)" d="M 718.01142 157.0618 
L 718.01142 203.4158 
" style="fill:none;stroke:#000000;stroke-dasharray:3.7,1.6;stroke-dashoffset:0;"/>
   </g>
   <g id="line2d_63">
    <path clip-path="url(#p2ae6a551f9)" d="M 718.01142 203.4158 
L 718.01142 249.7698 
" style="fill:none;stroke:#000000;stroke-dasharray:3.7,1.6;stroke-dashoffset:0;"/>
   </g>
   <g id="line2d_64">
    <path clip-path="url(#p2ae6a551f9)" d="M 718.01142 249.7698 
L 718.01142 296.1238 
" style="fill:none;stroke:#000000;stroke-dasharray:3.7,1.6;stroke-dashoffset:0;"/>
   </g>
   <g id="line2d_65">
    <path clip-path="url(#p2ae6a551f9)" d="M 718.01142 296.1238 
L 718.01142 342.4778 
" style="fill:none;stroke:#000000;stroke-dasharray:3.7,1.6;stroke-dashoffset:0;"/>
   </g>
   <g id="line2d_66">
    <path clip-path="url(#p2ae6a551f9)" d="M 949.78142 110.7078 
L 949.78142 157.0618 
" style="fill:none;stroke:#000000;stroke-dasharray:3.7,1.6;stroke-dashoffset:0;"/>
   </g>
   <g id="line2d_67">
    <path clip-path="url(#p2ae6a551f9)" d="M 949.78142 157.0618 
L 949.78142 203.4158 
" style="fill:none;stroke:#000000;stroke-dasharray:3.7,1.6;stroke-dashoffset:0;"/>
   </g>
   <g id="line2d_68">
    <path clip-path="url(#p2ae6a551f9)" d="M 949.78142 203.4158 
L 949.78142 249.7698 
" style="fill:none;stroke:#000000;stroke-dasharray:3.7,1.6;stroke-dashoffset:0;"/>
   </g>
   <g id="line2d_69">
    <path clip-path="url(#p2ae6a551f9)" d="M 949.78142 249.7698 
L 949.78142 296.1238 
" style="fill:none;stroke:#000000;stroke-dasharray:3.7,1.6;stroke-dashoffset:0;"/>
   </g>
   <g id="line2d_70">
    <path clip-path="url(#p2ae6a551f9)" d="M 949.78142 296.1238 
L 949.78142 342.4778 
" style="fill:none;stroke:#000000;stroke-dasharray:3.7,1.6;stroke-dashoffset:0;"/>
   </g>
   <g id="line2d_71">
    <path clip-path="url(#p2ae6a551f9)" d="M 1135.19742 110.7078 
L 1135.19742 157.0618 
" style="fill:none;stroke:#000000;stroke-dasharray:3.7,1.6;stroke-dashoffset:0;"/>
   </g>
   <g id="line2d_72">
    <path clip-path="url(#p2ae6a551f9)" d="M 1135.19742 157.0618 
L 1135.19742 203.4158 
" style="fill:none;stroke:#000000;stroke-dasharray:3.7,1.6;stroke-dashoffset:0;"/>
   </g>
   <g id="line2d_73">
    <path clip-path="url(#p2ae6a551f9)" d="M 1135.19742 203.4158 
L 1135.19742 249.7698 
" style="fill:none;stroke:#000000;stroke-dasharray:3.7,1.6;stroke-dashoffset:0;"/>
   </g>
   <g id="line2d_74">
    <path clip-path="url(#p2ae6a551f9)" d="M 1135.19742 249.7698 
L 1135.19742 296.1238 
" style="fill:none;stroke:#000000;stroke-dasharray:3.7,1.6;stroke-dashoffset:0;"/>
   </g>
   <g id="line2d_75">
    <path clip-path="url(#p2ae6a551f9)" d="M 1135.19742 296.1238 
L 1135.19742 342.4778 
" style="fill:none;stroke:#000000;stroke-dasharray:3.7,1.6;stroke-dashoffset:0;"/>
   </g>
   <g id="line2d_76">
    <path clip-path="url(#p2ae6a551f9)" d="M 1274.25942 110.7078 
L 1274.25942 157.0618 
" style="fill:none;stroke:#000000;stroke-dasharray:3.7,1.6;stroke-dashoffset:0;"/>
   </g>
   <g id="line2d_77">
    <path clip-path="url(#p2ae6a551f9)" d="M 1274.25942 157.0618 
L 1274.25942 203.4158 
" style="fill:none;stroke:#000000;stroke-dasharray:3.7,1.6;stroke-dashoffset:0;"/>
   </g>
   <g id="line2d_78">
    <path clip-path="url(#p2ae6a551f9)" d="M 1274.25942 203.4158 
L 1274.25942 249.7698 
" style="fill:none;stroke:#000000;stroke-dasharray:3.7,1.6;stroke-dashoffset:0;"/>
   </g>
   <g id="line2d_79">
    <path clip-path="url(#p2ae6a551f9)" d="M 1274.25942 249.7698 
L 1274.25942 296.1238 
" style="fill:none;stroke:#000000;stroke-dasharray:3.7,1.6;stroke-dashoffset:0;"/>
   </g>
   <g id="line2d_80">
    <path clip-path="url(#p2ae6a551f9)" d="M 1274.25942 296.1238 
L 1274.25942 342.4778 
" style="fill:none;stroke:#000000;stroke-dasharray:3.7,1.6;stroke-dashoffset:0;"/>
   </g>
   <g id="line2d_81">
    <path clip-path="url(#p2ae6a551f9)" d="M 1366.96742 110.7078 
L 1366.96742 157.0618 
" style="fill:none;stroke:#000000;stroke-dasharray:3.7,1.6;stroke-dashoffset:0;"/>
   </g>
   <g id="line2d_82">
    <path clip-path="url(#p2ae6a551f9)" d="M 1366.96742 157.0618 
L 1366.96742 203.4158 
" style="fill:none;stroke:#000000;stroke-dasharray:3.7,1.6;stroke-dashoffset:0;"/>
   </g>
   <g id="line2d_83">
    <path clip-path="url(#p2ae6a551f9)" d="M 1366.96742 203.4158 
L 1366.96742 249.7698 
" style="fill:none;stroke:#000000;stroke-dasharray:3.7,1.6;stroke-dashoffset:0;"/>
   </g>
   <g id="line2d_84">
    <path clip-path="url(#p2ae6a551f9)" d="M 1366.96742 249.7698 
L 1366.96742 296.1238 
" style="fill:none;stroke:#000000;stroke-dasharray:3.7,1.6;stroke-dashoffset:0;"/>
   </g>
   <g id="line2d_85">
    <path clip-path="url(#p2ae6a551f9)" d="M 1366.96742 296.1238 
L 1366.96742 342.4778 
" style="fill:none;stroke:#000000;stroke-dasharray:3.7,1.6;stroke-dashoffset:0;"/>
   </g>
   <g id="line2d_86">
    <path clip-path="url(#p2ae6a551f9)" d="M 347.17942 435.1858 
L 347.17942 481.5398 
" style="fill:none;stroke:#000000;stroke-dasharray:3.7,1.6;stroke-dashoffset:0;"/>
   </g>
   <g id="line2d_87">
    <path clip-path="url(#p2ae6a551f9)" d="M 347.17942 481.5398 
L 347.17942 527.8938 
" style="fill:none;stroke:#000000;stroke-dasharray:3.7,1.6;stroke-dashoffset:0;"/>
   </g>
   <g id="line2d_88">
    <path clip-path="url(#p2ae6a551f9)" d="M 347.17942 527.8938 
L 347.17942 574.2478 
" style="fill:none;stroke:#000000;stroke-dasharray:3.7,1.6;stroke-dashoffset:0;"/>
   </g>
   <g id="line2d_89">
    <path clip-path="url(#p2ae6a551f9)" d="M 347.17942 574.2478 
L 347.17942 620.6018 
" style="fill:none;stroke:#000000;stroke-dasharray:3.7,1.6;stroke-dashoffset:0;"/>
   </g>
   <g id="line2d_90">
    <path clip-path="url(#p2ae6a551f9)" d="M 347.17942 620.6018 
L 347.17942 666.9558 
" style="fill:none;stroke:#000000;stroke-dasharray:3.7,1.6;stroke-dashoffset:0;"/>
   </g>
   <g id="text_1">
    <g clip-path="url(#p2ae6a551f9)">
     <!-- $H$ -->
     <defs>
      <path d="M 16.890625 72.90625 
L 26.8125 72.90625 
L 21 43.015625 
L 56.78125 43.015625 
L 62.59375 72.90625 
L 72.515625 72.90625 
L 58.296875 0 
L 48.390625 0 
L 55.171875 34.71875 
L 19.390625 34.71875 
L 12.59375 0 
L 2.6875 0 
z
" id="DejaVuSans-Oblique-72"/>
     </defs>
     <g transform="translate(342.23942 137.471988)scale(0.13 -0.13)">
      <use transform="translate(0 0.09375)" xlink:href="#DejaVuSans-Oblique-72"/>
     </g>
    </g>
   </g>
   <g id="text_2">
    <g clip-path="url(#p2ae6a551f9)">
     <!-- $H$ -->
     <g transform="translate(342.23942 183.825988)scale(0.13 -0.13)">
      <use transform="translate(0 0.09375)" xlink:href="#DejaVuSans-Oblique-72"/>
     </g>
    </g>
   </g>
   <g id="text_3">
    <g clip-path="url(#p2ae6a551f9)">
     <!-- $H$ -->
     <g transform="translate(342.23942 230.179988)scale(0.13 -0.13)">
      <use transform="translate(0 0.09375)" xlink:href="#DejaVuSans-Oblique-72"/>
     </g>
    </g>
   </g>
   <g id="text_4">
    <g clip-path="url(#p2ae6a551f9)">
     <!-- $H$ -->
     <g transform="translate(342.23942 276.533987)scale(0.13 -0.13)">
      <use transform="translate(0 0.09375)" xlink:href="#DejaVuSans-Oblique-72"/>
     </g>
    </g>
   </g>
   <g id="text_5">
    <g clip-path="url(#p2ae6a551f9)">
     <!-- $H$ -->
     <g transform="translate(342.23942 322.887988)scale(0.13 -0.13)">
      <use transform="translate(0 0.09375)" xlink:href="#DejaVuSans-Oblique-72"/>
     </g>
    </g>
   </g>
   <g id="text_6">
    <g clip-path="url(#p2ae6a551f9)">
     <!-- $U_1$ -->
     <defs>
      <path d="M 15.484375 72.90625 
L 25.390625 72.90625 
L 16.796875 28.609375 
Q 16.265625 25.640625 16.046875 23.703125 
Q 15.828125 21.78125 15.828125 20.3125 
Q 15.828125 13.578125 19.578125 10.078125 
Q 23.34375 6.59375 30.609375 6.59375 
Q 40.046875 6.59375 45.28125 11.765625 
Q 50.53125 16.9375 52.78125 28.609375 
L 61.375 72.90625 
L 71.296875 72.90625 
L 62.5 27.390625 
Q 59.625 12.640625 51.5625 5.609375 
Q 43.5 -1.421875 29.5 -1.421875 
Q 18.5625 -1.421875 12.1875 4.078125 
Q 5.8125 9.578125 5.8125 19 
Q 5.8125 20.703125 6.046875 22.828125 
Q 6.296875 24.953125 6.78125 27.390625 
z
" id="DejaVuSans-Oblique-85"/>
      <path d="M 12.40625 8.296875 
L 28.515625 8.296875 
L 28.515625 63.921875 
L 10.984375 60.40625 
L 10.984375 69.390625 
L 28.421875 72.90625 
L 38.28125 72.90625 
L 38.28125 8.296875 
L 54.390625 8.296875 
L 54.390625 0 
L 12.40625 0 
z
" id="DejaVuSans-49"/>
     </defs>
     <g transform="translate(385.66842 132.952473)scale(0.13 -0.13)">
      <use transform="translate(0 0.09375)" xlink:href="#DejaVuSans-Oblique-85"/>
      <use transform="translate(73.193359 -16.3125)scale(0.7)" xlink:href="#DejaVuSans-49"/>
     </g>
    </g>
   </g>
   <g id="text_7">
    <g clip-path="url(#p2ae6a551f9)">
     <!-- $-$$\pi$ -->
     <defs>
      <path d="M 10.59375 35.5 
L 73.1875 35.5 
L 73.1875 27.203125 
L 10.59375 27.203125 
z
" id="DejaVuSans-8722"/>
      <path d="M 9.125 54.6875 
L 61.53125 54.6875 
L 59.765625 45.703125 
L 52.875 45.703125 
L 46.34375 12.109375 
Q 45.65625 8.59375 46.578125 7.03125 
Q 47.46875 5.515625 50.140625 5.515625 
Q 50.875 5.515625 51.953125 5.671875 
Q 53.078125 5.765625 53.421875 5.8125 
L 52.15625 -0.6875 
Q 50.34375 -1.3125 48.484375 -1.609375 
Q 46.578125 -1.90625 44.78125 -1.90625 
Q 38.921875 -1.90625 37.3125 1.265625 
Q 35.6875 4.5 37.359375 13.09375 
L 43.703125 45.703125 
L 23.53125 45.703125 
L 14.65625 0 
L 5.46875 0 
L 14.359375 45.703125 
L 7.375 45.703125 
z
" id="DejaVuSans-Oblique-960"/>
     </defs>
     <g transform="translate(387.77342 145.13133)scale(0.08 -0.08)">
      <use transform="translate(0 0.3125)" xlink:href="#DejaVuSans-8722"/>
      <use transform="translate(83.789062 0.3125)" xlink:href="#DejaVuSans-Oblique-960"/>
     </g>
    </g>
   </g>
   <g id="text_8">
    <g clip-path="url(#p2ae6a551f9)">
     <!-- $U_1$ -->
     <g transform="translate(385.66842 179.306473)scale(0.13 -0.13)">
      <use transform="translate(0 0.09375)" xlink:href="#DejaVuSans-Oblique-85"/>
      <use transform="translate(73.193359 -16.3125)scale(0.7)" xlink:href="#DejaVuSans-49"/>
     </g>
    </g>
   </g>
   <g id="text_9">
    <g clip-path="url(#p2ae6a551f9)">
     <!-- $-$$\pi$/2 -->
     <defs>
      <path d="M 25.390625 72.90625 
L 33.6875 72.90625 
L 8.296875 -9.28125 
L 0 -9.28125 
z
" id="DejaVuSans-47"/>
      <path d="M 19.1875 8.296875 
L 53.609375 8.296875 
L 53.609375 0 
L 7.328125 0 
L 7.328125 8.296875 
Q 12.9375 14.109375 22.625 23.890625 
Q 32.328125 33.6875 34.8125 36.53125 
Q 39.546875 41.84375 41.421875 45.53125 
Q 43.3125 49.21875 43.3125 52.78125 
Q 43.3125 58.59375 39.234375 62.25 
Q 35.15625 65.921875 28.609375 65.921875 
Q 23.96875 65.921875 18.8125 64.3125 
Q 13.671875 62.703125 7.8125 59.421875 
L 7.8125 69.390625 
Q 13.765625 71.78125 18.9375 73 
Q 24.125 74.21875 28.421875 74.21875 
Q 39.75 74.21875 46.484375 68.546875 
Q 53.21875 62.890625 53.21875 53.421875 
Q 53.21875 48.921875 51.53125 44.890625 
Q 49.859375 40.875 45.40625 35.40625 
Q 44.1875 33.984375 37.640625 27.21875 
Q 31.109375 20.453125 19.1875 8.296875 
z
" id="DejaVuSans-50"/>
     </defs>
     <g transform="translate(383.85342 191.48533)scale(0.08 -0.08)">
      <use transform="translate(0 0.78125)" xlink:href="#DejaVuSans-8722"/>
      <use transform="translate(83.789062 0.78125)" xlink:href="#DejaVuSans-Oblique-960"/>
      <use transform="translate(143.994141 0.78125)" xlink:href="#DejaVuSans-47"/>
      <use transform="translate(177.638672 0.78125)" xlink:href="#DejaVuSans-50"/>
     </g>
    </g>
   </g>
   <g id="text_10">
    <g clip-path="url(#p2ae6a551f9)">
     <!-- $U_1$ -->
     <g transform="translate(385.66842 225.660473)scale(0.13 -0.13)">
      <use transform="translate(0 0.09375)" xlink:href="#DejaVuSans-Oblique-85"/>
      <use transform="translate(73.193359 -16.3125)scale(0.7)" xlink:href="#DejaVuSans-49"/>
     </g>
    </g>
   </g>
   <g id="text_11">
    <g clip-path="url(#p2ae6a551f9)">
     <!-- $-$$\pi$/4 -->
     <defs>
      <path d="M 37.796875 64.3125 
L 12.890625 25.390625 
L 37.796875 25.390625 
z
M 35.203125 72.90625 
L 47.609375 72.90625 
L 47.609375 25.390625 
L 58.015625 25.390625 
L 58.015625 17.1875 
L 47.609375 17.1875 
L 47.609375 0 
L 37.796875 0 
L 37.796875 17.1875 
L 4.890625 17.1875 
L 4.890625 26.703125 
z
" id="DejaVuSans-52"/>
     </defs>
     <g transform="translate(383.85342 237.83933)scale(0.08 -0.08)">
      <use transform="translate(0 0.09375)" xlink:href="#DejaVuSans-8722"/>
      <use transform="translate(83.789062 0.09375)" xlink:href="#DejaVuSans-Oblique-960"/>
      <use transform="translate(143.994141 0.09375)" xlink:href="#DejaVuSans-47"/>
      <use transform="translate(177.685547 0.09375)" xlink:href="#DejaVuSans-52"/>
     </g>
    </g>
   </g>
   <g id="text_12">
    <g clip-path="url(#p2ae6a551f9)">
     <!-- $U_1$ -->
     <g transform="translate(385.66842 272.014473)scale(0.13 -0.13)">
      <use transform="translate(0 0.09375)" xlink:href="#DejaVuSans-Oblique-85"/>
      <use transform="translate(73.193359 -16.3125)scale(0.7)" xlink:href="#DejaVuSans-49"/>
     </g>
    </g>
   </g>
   <g id="text_13">
    <g clip-path="url(#p2ae6a551f9)">
     <!-- $-$$\pi$/8 -->
     <defs>
      <path d="M 31.78125 34.625 
Q 24.75 34.625 20.71875 30.859375 
Q 16.703125 27.09375 16.703125 20.515625 
Q 16.703125 13.921875 20.71875 10.15625 
Q 24.75 6.390625 31.78125 6.390625 
Q 38.8125 6.390625 42.859375 10.171875 
Q 46.921875 13.96875 46.921875 20.515625 
Q 46.921875 27.09375 42.890625 30.859375 
Q 38.875 34.625 31.78125 34.625 
z
M 21.921875 38.8125 
Q 15.578125 40.375 12.03125 44.71875 
Q 8.5 49.078125 8.5 55.328125 
Q 8.5 64.0625 14.71875 69.140625 
Q 20.953125 74.21875 31.78125 74.21875 
Q 42.671875 74.21875 48.875 69.140625 
Q 55.078125 64.0625 55.078125 55.328125 
Q 55.078125 49.078125 51.53125 44.71875 
Q 48 40.375 41.703125 38.8125 
Q 48.828125 37.15625 52.796875 32.3125 
Q 56.78125 27.484375 56.78125 20.515625 
Q 56.78125 9.90625 50.3125 4.234375 
Q 43.84375 -1.421875 31.78125 -1.421875 
Q 19.734375 -1.421875 13.25 4.234375 
Q 6.78125 9.90625 6.78125 20.515625 
Q 6.78125 27.484375 10.78125 32.3125 
Q 14.796875 37.15625 21.921875 38.8125 
z
M 18.3125 54.390625 
Q 18.3125 48.734375 21.84375 45.5625 
Q 25.390625 42.390625 31.78125 42.390625 
Q 38.140625 42.390625 41.71875 45.5625 
Q 45.3125 48.734375 45.3125 54.390625 
Q 45.3125 60.0625 41.71875 63.234375 
Q 38.140625 66.40625 31.78125 66.40625 
Q 25.390625 66.40625 21.84375 63.234375 
Q 18.3125 60.0625 18.3125 54.390625 
z
" id="DejaVuSans-56"/>
     </defs>
     <g transform="translate(383.85342 284.19333)scale(0.08 -0.08)">
      <use transform="translate(0 0.78125)" xlink:href="#DejaVuSans-8722"/>
      <use transform="translate(83.789062 0.78125)" xlink:href="#DejaVuSans-Oblique-960"/>
      <use transform="translate(143.994141 0.78125)" xlink:href="#DejaVuSans-47"/>
      <use transform="translate(177.607422 0.78125)" xlink:href="#DejaVuSans-56"/>
     </g>
    </g>
   </g>
   <g id="text_14">
    <g clip-path="url(#p2ae6a551f9)">
     <!-- $U_1$ -->
     <g transform="translate(385.66842 318.368472)scale(0.13 -0.13)">
      <use transform="translate(0 0.09375)" xlink:href="#DejaVuSans-Oblique-85"/>
      <use transform="translate(73.193359 -16.3125)scale(0.7)" xlink:href="#DejaVuSans-49"/>
     </g>
    </g>
   </g>
   <g id="text_15">
    <g clip-path="url(#p2ae6a551f9)">
     <!-- $-$$\pi$/16 -->
     <defs>
      <path d="M 33.015625 40.375 
Q 26.375 40.375 22.484375 35.828125 
Q 18.609375 31.296875 18.609375 23.390625 
Q 18.609375 15.53125 22.484375 10.953125 
Q 26.375 6.390625 33.015625 6.390625 
Q 39.65625 6.390625 43.53125 10.953125 
Q 47.40625 15.53125 47.40625 23.390625 
Q 47.40625 31.296875 43.53125 35.828125 
Q 39.65625 40.375 33.015625 40.375 
z
M 52.59375 71.296875 
L 52.59375 62.3125 
Q 48.875 64.0625 45.09375 64.984375 
Q 41.3125 65.921875 37.59375 65.921875 
Q 27.828125 65.921875 22.671875 59.328125 
Q 17.53125 52.734375 16.796875 39.40625 
Q 19.671875 43.65625 24.015625 45.921875 
Q 28.375 48.1875 33.59375 48.1875 
Q 44.578125 48.1875 50.953125 41.515625 
Q 57.328125 34.859375 57.328125 23.390625 
Q 57.328125 12.15625 50.6875 5.359375 
Q 44.046875 -1.421875 33.015625 -1.421875 
Q 20.359375 -1.421875 13.671875 8.265625 
Q 6.984375 17.96875 6.984375 36.375 
Q 6.984375 53.65625 15.1875 63.9375 
Q 23.390625 74.21875 37.203125 74.21875 
Q 40.921875 74.21875 44.703125 73.484375 
Q 48.484375 72.75 52.59375 71.296875 
z
" id="DejaVuSans-54"/>
     </defs>
     <g transform="translate(381.33342 330.54733)scale(0.08 -0.08)">
      <use transform="translate(0 0.78125)" xlink:href="#DejaVuSans-8722"/>
      <use transform="translate(83.789062 0.78125)" xlink:href="#DejaVuSans-Oblique-960"/>
      <use transform="translate(143.994141 0.78125)" xlink:href="#DejaVuSans-47"/>
      <use transform="translate(177.685547 0.78125)" xlink:href="#DejaVuSans-49"/>
      <use transform="translate(241.308594 0.78125)" xlink:href="#DejaVuSans-54"/>
     </g>
    </g>
   </g>
   <g id="text_16">
    <g clip-path="url(#p2ae6a551f9)">
     <!-- $H$ -->
     <g transform="translate(481.30142 137.471988)scale(0.13 -0.13)">
      <use transform="translate(0 0.09375)" xlink:href="#DejaVuSans-Oblique-72"/>
     </g>
    </g>
   </g>
   <g id="text_17">
    <g clip-path="url(#p2ae6a551f9)">
     <!-- $U_1$ -->
     <g transform="translate(524.73042 132.952473)scale(0.13 -0.13)">
      <use transform="translate(0 0.09375)" xlink:href="#DejaVuSans-Oblique-85"/>
      <use transform="translate(73.193359 -16.3125)scale(0.7)" xlink:href="#DejaVuSans-49"/>
     </g>
    </g>
   </g>
   <g id="text_18">
    <g clip-path="url(#p2ae6a551f9)">
     <!-- $\pi$/2 -->
     <g transform="translate(526.27542 145.13133)scale(0.08 -0.08)">
      <use transform="translate(0 0.78125)" xlink:href="#DejaVuSans-Oblique-960"/>
      <use transform="translate(60.205078 0.78125)" xlink:href="#DejaVuSans-47"/>
      <use transform="translate(93.849609 0.78125)" xlink:href="#DejaVuSans-50"/>
     </g>
    </g>
   </g>
   <g id="text_19">
    <g clip-path="url(#p2ae6a551f9)">
     <!-- $U_1$ -->
     <g transform="translate(571.08442 132.952473)scale(0.13 -0.13)">
      <use transform="translate(0 0.09375)" xlink:href="#DejaVuSans-Oblique-85"/>
      <use transform="translate(73.193359 -16.3125)scale(0.7)" xlink:href="#DejaVuSans-49"/>
     </g>
    </g>
   </g>
   <g id="text_20">
    <g clip-path="url(#p2ae6a551f9)">
     <!-- $\pi$/4 -->
     <g transform="translate(572.62942 145.13133)scale(0.08 -0.08)">
      <use transform="translate(0 0.09375)" xlink:href="#DejaVuSans-Oblique-960"/>
      <use transform="translate(60.205078 0.09375)" xlink:href="#DejaVuSans-47"/>
      <use transform="translate(93.896484 0.09375)" xlink:href="#DejaVuSans-52"/>
     </g>
    </g>
   </g>
   <g id="text_21">
    <g clip-path="url(#p2ae6a551f9)">
     <!-- $U_1$ -->
     <g transform="translate(617.43842 132.952473)scale(0.13 -0.13)">
      <use transform="translate(0 0.09375)" xlink:href="#DejaVuSans-Oblique-85"/>
      <use transform="translate(73.193359 -16.3125)scale(0.7)" xlink:href="#DejaVuSans-49"/>
     </g>
    </g>
   </g>
   <g id="text_22">
    <g clip-path="url(#p2ae6a551f9)">
     <!-- $\pi$/8 -->
     <g transform="translate(618.98342 145.13133)scale(0.08 -0.08)">
      <use transform="translate(0 0.78125)" xlink:href="#DejaVuSans-Oblique-960"/>
      <use transform="translate(60.205078 0.78125)" xlink:href="#DejaVuSans-47"/>
      <use transform="translate(93.818359 0.78125)" xlink:href="#DejaVuSans-56"/>
     </g>
    </g>
   </g>
   <g id="text_23">
    <g clip-path="url(#p2ae6a551f9)">
     <!-- $U_1$ -->
     <g transform="translate(663.79242 132.952473)scale(0.13 -0.13)">
      <use transform="translate(0 0.09375)" xlink:href="#DejaVuSans-Oblique-85"/>
      <use transform="translate(73.193359 -16.3125)scale(0.7)" xlink:href="#DejaVuSans-49"/>
     </g>
    </g>
   </g>
   <g id="text_24">
    <g clip-path="url(#p2ae6a551f9)">
     <!-- $\pi$/16 -->
     <g transform="translate(662.77742 145.13133)scale(0.08 -0.08)">
      <use transform="translate(0 0.78125)" xlink:href="#DejaVuSans-Oblique-960"/>
      <use transform="translate(60.205078 0.78125)" xlink:href="#DejaVuSans-47"/>
      <use transform="translate(93.896484 0.78125)" xlink:href="#DejaVuSans-49"/>
      <use transform="translate(157.519531 0.78125)" xlink:href="#DejaVuSans-54"/>
     </g>
    </g>
   </g>
   <g id="text_25">
    <g clip-path="url(#p2ae6a551f9)">
     <!-- $H$ -->
     <g transform="translate(759.42542 183.825988)scale(0.13 -0.13)">
      <use transform="translate(0 0.09375)" xlink:href="#DejaVuSans-Oblique-72"/>
     </g>
    </g>
   </g>
   <g id="text_26">
    <g clip-path="url(#p2ae6a551f9)">
     <!-- $U_1$ -->
     <g transform="translate(802.85442 179.306473)scale(0.13 -0.13)">
      <use transform="translate(0 0.09375)" xlink:href="#DejaVuSans-Oblique-85"/>
      <use transform="translate(73.193359 -16.3125)scale(0.7)" xlink:href="#DejaVuSans-49"/>
     </g>
    </g>
   </g>
   <g id="text_27">
    <g clip-path="url(#p2ae6a551f9)">
     <!-- $\pi$/2 -->
     <g transform="translate(804.39942 191.48533)scale(0.08 -0.08)">
      <use transform="translate(0 0.78125)" xlink:href="#DejaVuSans-Oblique-960"/>
      <use transform="translate(60.205078 0.78125)" xlink:href="#DejaVuSans-47"/>
      <use transform="translate(93.849609 0.78125)" xlink:href="#DejaVuSans-50"/>
     </g>
    </g>
   </g>
   <g id="text_28">
    <g clip-path="url(#p2ae6a551f9)">
     <!-- $U_1$ -->
     <g transform="translate(849.20842 179.306473)scale(0.13 -0.13)">
      <use transform="translate(0 0.09375)" xlink:href="#DejaVuSans-Oblique-85"/>
      <use transform="translate(73.193359 -16.3125)scale(0.7)" xlink:href="#DejaVuSans-49"/>
     </g>
    </g>
   </g>
   <g id="text_29">
    <g clip-path="url(#p2ae6a551f9)">
     <!-- $\pi$/4 -->
     <g transform="translate(850.75342 191.48533)scale(0.08 -0.08)">
      <use transform="translate(0 0.09375)" xlink:href="#DejaVuSans-Oblique-960"/>
      <use transform="translate(60.205078 0.09375)" xlink:href="#DejaVuSans-47"/>
      <use transform="translate(93.896484 0.09375)" xlink:href="#DejaVuSans-52"/>
     </g>
    </g>
   </g>
   <g id="text_30">
    <g clip-path="url(#p2ae6a551f9)">
     <!-- $U_1$ -->
     <g transform="translate(895.56242 179.306473)scale(0.13 -0.13)">
      <use transform="translate(0 0.09375)" xlink:href="#DejaVuSans-Oblique-85"/>
      <use transform="translate(73.193359 -16.3125)scale(0.7)" xlink:href="#DejaVuSans-49"/>
     </g>
    </g>
   </g>
   <g id="text_31">
    <g clip-path="url(#p2ae6a551f9)">
     <!-- $\pi$/8 -->
     <g transform="translate(897.10742 191.48533)scale(0.08 -0.08)">
      <use transform="translate(0 0.78125)" xlink:href="#DejaVuSans-Oblique-960"/>
      <use transform="translate(60.205078 0.78125)" xlink:href="#DejaVuSans-47"/>
      <use transform="translate(93.818359 0.78125)" xlink:href="#DejaVuSans-56"/>
     </g>
    </g>
   </g>
   <g id="text_32">
    <g clip-path="url(#p2ae6a551f9)">
     <!-- $H$ -->
     <g transform="translate(991.19542 230.179988)scale(0.13 -0.13)">
      <use transform="translate(0 0.09375)" xlink:href="#DejaVuSans-Oblique-72"/>
     </g>
    </g>
   </g>
   <g id="text_33">
    <g clip-path="url(#p2ae6a551f9)">
     <!-- $U_1$ -->
     <g transform="translate(1034.62442 225.660473)scale(0.13 -0.13)">
      <use transform="translate(0 0.09375)" xlink:href="#DejaVuSans-Oblique-85"/>
      <use transform="translate(73.193359 -16.3125)scale(0.7)" xlink:href="#DejaVuSans-49"/>
     </g>
    </g>
   </g>
   <g id="text_34">
    <g clip-path="url(#p2ae6a551f9)">
     <!-- $\pi$/2 -->
     <g transform="translate(1036.16942 237.83933)scale(0.08 -0.08)">
      <use transform="translate(0 0.78125)" xlink:href="#DejaVuSans-Oblique-960"/>
      <use transform="translate(60.205078 0.78125)" xlink:href="#DejaVuSans-47"/>
      <use transform="translate(93.849609 0.78125)" xlink:href="#DejaVuSans-50"/>
     </g>
    </g>
   </g>
   <g id="text_35">
    <g clip-path="url(#p2ae6a551f9)">
     <!-- $U_1$ -->
     <g transform="translate(1080.97842 225.660473)scale(0.13 -0.13)">
      <use transform="translate(0 0.09375)" xlink:href="#DejaVuSans-Oblique-85"/>
      <use transform="translate(73.193359 -16.3125)scale(0.7)" xlink:href="#DejaVuSans-49"/>
     </g>
    </g>
   </g>
   <g id="text_36">
    <g clip-path="url(#p2ae6a551f9)">
     <!-- $\pi$/4 -->
     <g transform="translate(1082.52342 237.83933)scale(0.08 -0.08)">
      <use transform="translate(0 0.09375)" xlink:href="#DejaVuSans-Oblique-960"/>
      <use transform="translate(60.205078 0.09375)" xlink:href="#DejaVuSans-47"/>
      <use transform="translate(93.896484 0.09375)" xlink:href="#DejaVuSans-52"/>
     </g>
    </g>
   </g>
   <g id="text_37">
    <g clip-path="url(#p2ae6a551f9)">
     <!-- $H$ -->
     <g transform="translate(1176.61142 276.533987)scale(0.13 -0.13)">
      <use transform="translate(0 0.09375)" xlink:href="#DejaVuSans-Oblique-72"/>
     </g>
    </g>
   </g>
   <g id="text_38">
    <g clip-path="url(#p2ae6a551f9)">
     <!-- $U_1$ -->
     <g transform="translate(1220.04042 272.014473)scale(0.13 -0.13)">
      <use transform="translate(0 0.09375)" xlink:href="#DejaVuSans-Oblique-85"/>
      <use transform="translate(73.193359 -16.3125)scale(0.7)" xlink:href="#DejaVuSans-49"/>
     </g>
    </g>
   </g>
   <g id="text_39">
    <g clip-path="url(#p2ae6a551f9)">
     <!-- $\pi$/2 -->
     <g transform="translate(1221.58542 284.19333)scale(0.08 -0.08)">
      <use transform="translate(0 0.78125)" xlink:href="#DejaVuSans-Oblique-960"/>
      <use transform="translate(60.205078 0.78125)" xlink:href="#DejaVuSans-47"/>
      <use transform="translate(93.849609 0.78125)" xlink:href="#DejaVuSans-50"/>
     </g>
    </g>
   </g>
   <g id="text_40">
    <g clip-path="url(#p2ae6a551f9)">
     <!-- $H$ -->
     <g transform="translate(1315.67342 322.887988)scale(0.13 -0.13)">
      <use transform="translate(0 0.09375)" xlink:href="#DejaVuSans-Oblique-72"/>
     </g>
    </g>
   </g>
   <g id="text_41">
    <g clip-path="url(#p2ae6a551f9)">
     <!-- 0 -->
     <defs>
      <path d="M 31.78125 66.40625 
Q 24.171875 66.40625 20.328125 58.90625 
Q 16.5 51.421875 16.5 36.375 
Q 16.5 21.390625 20.328125 13.890625 
Q 24.171875 6.390625 31.78125 6.390625 
Q 39.453125 6.390625 43.28125 13.890625 
Q 47.125 21.390625 47.125 36.375 
Q 47.125 51.421875 43.28125 58.90625 
Q 39.453125 66.40625 31.78125 66.40625 
z
M 31.78125 74.21875 
Q 44.046875 74.21875 50.515625 64.515625 
Q 56.984375 54.828125 56.984375 36.375 
Q 56.984375 17.96875 50.515625 8.265625 
Q 44.046875 -1.421875 31.78125 -1.421875 
Q 19.53125 -1.421875 13.0625 8.265625 
Q 6.59375 17.96875 6.59375 36.375 
Q 6.59375 54.828125 13.0625 64.515625 
Q 19.53125 74.21875 31.78125 74.21875 
z
" id="DejaVuSans-48"/>
     </defs>
     <g transform="translate(405.12192 683.334525)scale(0.104 -0.104)">
      <use xlink:href="#DejaVuSans-48"/>
     </g>
    </g>
   </g>
   <g id="text_42">
    <g clip-path="url(#p2ae6a551f9)">
     <!-- 1 -->
     <g transform="translate(451.47592 683.334525)scale(0.104 -0.104)">
      <use xlink:href="#DejaVuSans-49"/>
     </g>
    </g>
   </g>
   <g id="text_43">
    <g clip-path="url(#p2ae6a551f9)">
     <!-- 2 -->
     <g transform="translate(497.82992 683.334525)scale(0.104 -0.104)">
      <use xlink:href="#DejaVuSans-50"/>
     </g>
    </g>
   </g>
   <g id="text_44">
    <g clip-path="url(#p2ae6a551f9)">
     <!-- 3 -->
     <defs>
      <path d="M 40.578125 39.3125 
Q 47.65625 37.796875 51.625 33 
Q 55.609375 28.21875 55.609375 21.1875 
Q 55.609375 10.40625 48.1875 4.484375 
Q 40.765625 -1.421875 27.09375 -1.421875 
Q 22.515625 -1.421875 17.65625 -0.515625 
Q 12.796875 0.390625 7.625 2.203125 
L 7.625 11.71875 
Q 11.71875 9.328125 16.59375 8.109375 
Q 21.484375 6.890625 26.8125 6.890625 
Q 36.078125 6.890625 40.9375 10.546875 
Q 45.796875 14.203125 45.796875 21.1875 
Q 45.796875 27.640625 41.28125 31.265625 
Q 36.765625 34.90625 28.71875 34.90625 
L 20.21875 34.90625 
L 20.21875 43.015625 
L 29.109375 43.015625 
Q 36.375 43.015625 40.234375 45.921875 
Q 44.09375 48.828125 44.09375 54.296875 
Q 44.09375 59.90625 40.109375 62.90625 
Q 36.140625 65.921875 28.71875 65.921875 
Q 24.65625 65.921875 20.015625 65.03125 
Q 15.375 64.15625 9.8125 62.3125 
L 9.8125 71.09375 
Q 15.4375 72.65625 20.34375 73.4375 
Q 25.25 74.21875 29.59375 74.21875 
Q 40.828125 74.21875 47.359375 69.109375 
Q 53.90625 64.015625 53.90625 55.328125 
Q 53.90625 49.265625 50.4375 45.09375 
Q 46.96875 40.921875 40.578125 39.3125 
z
" id="DejaVuSans-51"/>
     </defs>
     <g transform="translate(544.18392 683.334525)scale(0.104 -0.104)">
      <use xlink:href="#DejaVuSans-51"/>
     </g>
    </g>
   </g>
   <g id="text_45">
    <g clip-path="url(#p2ae6a551f9)">
     <!-- 4 -->
     <g transform="translate(590.53792 683.334525)scale(0.104 -0.104)">
      <use xlink:href="#DejaVuSans-52"/>
     </g>
    </g>
   </g>
   <g id="text_46">
    <g clip-path="url(#p2ae6a551f9)">
     <!-- ${q}_{0}$ -->
     <defs>
      <path d="M 41.703125 8.203125 
Q 38.09375 3.46875 33.171875 1.015625 
Q 28.265625 -1.421875 22.3125 -1.421875 
Q 14.015625 -1.421875 9.296875 4.171875 
Q 4.59375 9.765625 4.59375 19.578125 
Q 4.59375 27.484375 7.5 34.859375 
Q 10.40625 42.234375 15.828125 48.09375 
Q 19.34375 51.90625 23.90625 53.953125 
Q 28.46875 56 33.5 56 
Q 39.546875 56 43.453125 53.609375 
Q 47.359375 51.21875 49.125 46.390625 
L 50.6875 54.59375 
L 59.71875 54.59375 
L 45.125 -20.609375 
L 36.078125 -20.609375 
z
M 13.921875 20.90625 
Q 13.921875 13.671875 16.9375 9.890625 
Q 19.96875 6.109375 25.6875 6.109375 
Q 34.1875 6.109375 40.1875 14.234375 
Q 46.1875 22.359375 46.1875 33.984375 
Q 46.1875 41.015625 43.078125 44.75 
Q 39.984375 48.484375 34.1875 48.484375 
Q 29.9375 48.484375 26.3125 46.5 
Q 22.703125 44.53125 20.015625 40.71875 
Q 17.1875 36.71875 15.546875 31.34375 
Q 13.921875 25.984375 13.921875 20.90625 
z
" id="DejaVuSans-Oblique-113"/>
     </defs>
     <g transform="translate(282.78792 138.335777)scale(0.1625 -0.1625)">
      <use xlink:href="#DejaVuSans-Oblique-113"/>
      <use transform="translate(63.476562 -16.40625)scale(0.7)" xlink:href="#DejaVuSans-48"/>
     </g>
    </g>
   </g>
   <g id="text_47">
    <g clip-path="url(#p2ae6a551f9)">
     <!-- ${q}_{1}$ -->
     <g transform="translate(282.78792 184.689777)scale(0.1625 -0.1625)">
      <use xlink:href="#DejaVuSans-Oblique-113"/>
      <use transform="translate(63.476562 -16.40625)scale(0.7)" xlink:href="#DejaVuSans-49"/>
     </g>
    </g>
   </g>
   <g id="text_48">
    <g clip-path="url(#p2ae6a551f9)">
     <!-- ${q}_{2}$ -->
     <g transform="translate(282.78792 231.043777)scale(0.1625 -0.1625)">
      <use xlink:href="#DejaVuSans-Oblique-113"/>
      <use transform="translate(63.476562 -16.40625)scale(0.7)" xlink:href="#DejaVuSans-50"/>
     </g>
    </g>
   </g>
   <g id="text_49">
    <g clip-path="url(#p2ae6a551f9)">
     <!-- ${q}_{3}$ -->
     <g transform="translate(282.78792 277.397777)scale(0.1625 -0.1625)">
      <use xlink:href="#DejaVuSans-Oblique-113"/>
      <use transform="translate(63.476562 -16.40625)scale(0.7)" xlink:href="#DejaVuSans-51"/>
     </g>
    </g>
   </g>
   <g id="text_50">
    <g clip-path="url(#p2ae6a551f9)">
     <!-- ${q}_{4}$ -->
     <g transform="translate(282.78792 323.751777)scale(0.1625 -0.1625)">
      <use xlink:href="#DejaVuSans-Oblique-113"/>
      <use transform="translate(63.476562 -16.40625)scale(0.7)" xlink:href="#DejaVuSans-52"/>
     </g>
    </g>
   </g>
   <g id="text_51">
    <g clip-path="url(#p2ae6a551f9)">
     <!-- 5 -->
     <defs>
      <path d="M 10.796875 72.90625 
L 49.515625 72.90625 
L 49.515625 64.59375 
L 19.828125 64.59375 
L 19.828125 46.734375 
Q 21.96875 47.46875 24.109375 47.828125 
Q 26.265625 48.1875 28.421875 48.1875 
Q 40.625 48.1875 47.75 41.5 
Q 54.890625 34.8125 54.890625 23.390625 
Q 54.890625 11.625 47.5625 5.09375 
Q 40.234375 -1.421875 26.90625 -1.421875 
Q 22.3125 -1.421875 17.546875 -0.640625 
Q 12.796875 0.140625 7.71875 1.703125 
L 7.71875 11.625 
Q 12.109375 9.234375 16.796875 8.0625 
Q 21.484375 6.890625 26.703125 6.890625 
Q 35.15625 6.890625 40.078125 11.328125 
Q 45.015625 15.765625 45.015625 23.390625 
Q 45.015625 31 40.078125 35.4375 
Q 35.15625 39.890625 26.703125 39.890625 
Q 22.75 39.890625 18.8125 39.015625 
Q 14.890625 38.140625 10.796875 36.28125 
z
" id="DejaVuSans-53"/>
     </defs>
     <g transform="translate(347.17942 358.856525)scale(0.104 -0.104)">
      <use xlink:href="#DejaVuSans-53"/>
     </g>
    </g>
   </g>
   <g id="text_52">
    <g clip-path="url(#p2ae6a551f9)">
     <!-- $measure$ -->
     <defs>
      <path d="M 89.796875 33.015625 
L 83.40625 0 
L 74.421875 0 
L 80.71875 32.71875 
Q 81.109375 34.8125 81.296875 36.328125 
Q 81.5 37.84375 81.5 38.921875 
Q 81.5 43.3125 79.046875 45.75 
Q 76.609375 48.1875 72.21875 48.1875 
Q 65.671875 48.1875 60.546875 43.28125 
Q 55.421875 38.375 53.90625 30.515625 
L 47.90625 0 
L 38.921875 0 
L 45.3125 32.71875 
Q 45.703125 34.515625 45.890625 36.046875 
Q 46.09375 37.59375 46.09375 38.8125 
Q 46.09375 43.265625 43.65625 45.71875 
Q 41.21875 48.1875 36.921875 48.1875 
Q 30.28125 48.1875 25.140625 43.28125 
Q 20.015625 38.375 18.5 30.515625 
L 12.5 0 
L 3.515625 0 
L 14.203125 54.6875 
L 23.1875 54.6875 
L 21.484375 46.1875 
Q 25.140625 50.984375 30.046875 53.484375 
Q 34.96875 56 40.578125 56 
Q 46.53125 56 50.359375 52.875 
Q 54.203125 49.75 54.984375 44.1875 
Q 59.078125 49.953125 64.46875 52.96875 
Q 69.875 56 75.875 56 
Q 82.90625 56 86.734375 51.953125 
Q 90.578125 47.90625 90.578125 40.484375 
Q 90.578125 38.875 90.375 36.9375 
Q 90.1875 35.015625 89.796875 33.015625 
z
" id="DejaVuSans-Oblique-109"/>
      <path d="M 48.09375 32.234375 
Q 48.25 33.015625 48.3125 33.84375 
Q 48.390625 34.671875 48.390625 35.5 
Q 48.390625 41.453125 44.890625 44.921875 
Q 41.40625 48.390625 35.40625 48.390625 
Q 28.71875 48.390625 23.578125 44.15625 
Q 18.453125 39.9375 15.828125 32.171875 
z
M 55.90625 25.203125 
L 14.109375 25.203125 
Q 13.8125 23.34375 13.71875 22.265625 
Q 13.625 21.1875 13.625 20.40625 
Q 13.625 13.625 17.796875 9.90625 
Q 21.96875 6.203125 29.59375 6.203125 
Q 35.453125 6.203125 40.671875 7.515625 
Q 45.90625 8.84375 50.390625 11.375 
L 48.6875 2.484375 
Q 43.84375 0.53125 38.6875 -0.4375 
Q 33.546875 -1.421875 28.21875 -1.421875 
Q 16.84375 -1.421875 10.71875 4.015625 
Q 4.59375 9.46875 4.59375 19.484375 
Q 4.59375 28.03125 7.640625 35.375 
Q 10.6875 42.71875 16.609375 48.484375 
Q 20.40625 52.09375 25.65625 54.046875 
Q 30.90625 56 36.8125 56 
Q 46.09375 56 51.578125 50.4375 
Q 57.078125 44.875 57.078125 35.5 
Q 57.078125 33.25 56.78125 30.6875 
Q 56.5 28.125 55.90625 25.203125 
z
" id="DejaVuSans-Oblique-101"/>
      <path d="M 53.71875 31.203125 
L 47.609375 0 
L 38.625 0 
L 40.28125 8.296875 
Q 36.328125 3.421875 31.265625 1 
Q 26.21875 -1.421875 20.015625 -1.421875 
Q 13.03125 -1.421875 8.5625 2.84375 
Q 4.109375 7.125 4.109375 13.8125 
Q 4.109375 23.390625 11.75 28.953125 
Q 19.390625 34.515625 32.8125 34.515625 
L 45.3125 34.515625 
L 45.796875 36.921875 
Q 45.90625 37.3125 45.953125 37.765625 
Q 46 38.234375 46 39.203125 
Q 46 43.5625 42.453125 45.96875 
Q 38.921875 48.390625 32.515625 48.390625 
Q 28.125 48.390625 23.5 47.265625 
Q 18.890625 46.140625 14.015625 43.890625 
L 15.578125 52.203125 
Q 20.65625 54.109375 25.515625 55.046875 
Q 30.375 56 34.90625 56 
Q 44.578125 56 49.625 51.796875 
Q 54.6875 47.609375 54.6875 39.59375 
Q 54.6875 37.984375 54.4375 35.8125 
Q 54.203125 33.640625 53.71875 31.203125 
z
M 44 27.484375 
L 35.015625 27.484375 
Q 23.96875 27.484375 18.671875 24.53125 
Q 13.375 21.578125 13.375 15.375 
Q 13.375 11.078125 16.078125 8.640625 
Q 18.796875 6.203125 23.578125 6.203125 
Q 30.90625 6.203125 36.375 11.453125 
Q 41.84375 16.703125 43.609375 25.484375 
z
" id="DejaVuSans-Oblique-97"/>
      <path d="M 50 53.078125 
L 48.296875 44.578125 
Q 44.734375 46.53125 40.765625 47.5 
Q 36.8125 48.484375 32.625 48.484375 
Q 25.53125 48.484375 21.453125 46.0625 
Q 17.390625 43.65625 17.390625 39.5 
Q 17.390625 34.671875 26.859375 32.078125 
Q 27.59375 31.890625 27.9375 31.78125 
L 30.8125 30.90625 
Q 39.796875 28.421875 42.796875 25.6875 
Q 45.796875 22.953125 45.796875 18.21875 
Q 45.796875 9.515625 38.890625 4.046875 
Q 31.984375 -1.421875 20.796875 -1.421875 
Q 16.453125 -1.421875 11.671875 -0.578125 
Q 6.890625 0.25 1.125 2 
L 2.875 11.28125 
Q 7.8125 8.734375 12.59375 7.421875 
Q 17.390625 6.109375 21.78125 6.109375 
Q 28.375 6.109375 32.5 8.9375 
Q 36.625 11.765625 36.625 16.109375 
Q 36.625 20.796875 25.78125 23.6875 
L 24.859375 23.921875 
L 21.78125 24.703125 
Q 14.9375 26.515625 11.765625 29.46875 
Q 8.59375 32.421875 8.59375 37.015625 
Q 8.59375 45.75 15.15625 50.875 
Q 21.734375 56 33.015625 56 
Q 37.453125 56 41.671875 55.265625 
Q 45.90625 54.546875 50 53.078125 
z
" id="DejaVuSans-Oblique-115"/>
      <path d="M 6.6875 21.6875 
L 13.09375 54.6875 
L 22.125 54.6875 
L 15.71875 22.015625 
Q 15.234375 19.625 15.015625 17.921875 
Q 14.796875 16.21875 14.796875 15.09375 
Q 14.796875 10.9375 17.328125 8.65625 
Q 19.875 6.390625 24.515625 6.390625 
Q 31.734375 6.390625 37 11.265625 
Q 42.28125 16.15625 43.890625 24.421875 
L 49.90625 54.6875 
L 58.890625 54.6875 
L 48.296875 0 
L 39.3125 0 
L 41.109375 8.59375 
Q 37.3125 3.8125 32.0625 1.1875 
Q 26.8125 -1.421875 20.90625 -1.421875 
Q 13.71875 -1.421875 9.71875 2.515625 
Q 5.71875 6.453125 5.71875 13.484375 
Q 5.71875 14.9375 5.953125 17.140625 
Q 6.203125 19.34375 6.6875 21.6875 
z
" id="DejaVuSans-Oblique-117"/>
      <path d="M 44.578125 46.390625 
Q 43.21875 47.125 41.453125 47.515625 
Q 39.703125 47.90625 37.703125 47.90625 
Q 30.515625 47.90625 25.140625 42.453125 
Q 19.78125 37.015625 18.015625 27.875 
L 12.5 0 
L 3.515625 0 
L 14.203125 54.6875 
L 23.1875 54.6875 
L 21.484375 46.1875 
Q 25.046875 50.921875 30 53.453125 
Q 34.96875 56 40.578125 56 
Q 42.046875 56 43.453125 55.828125 
Q 44.875 55.671875 46.296875 55.28125 
z
" id="DejaVuSans-Oblique-114"/>
     </defs>
     <g transform="translate(215.22042 371.035581)scale(0.195 -0.195)">
      <use xlink:href="#DejaVuSans-Oblique-109"/>
      <use transform="translate(97.412109 0)" xlink:href="#DejaVuSans-Oblique-101"/>
      <use transform="translate(158.935547 0)" xlink:href="#DejaVuSans-Oblique-97"/>
      <use transform="translate(220.214844 0)" xlink:href="#DejaVuSans-Oblique-115"/>
      <use transform="translate(272.314453 0)" xlink:href="#DejaVuSans-Oblique-117"/>
      <use transform="translate(335.693359 0)" xlink:href="#DejaVuSans-Oblique-114"/>
      <use transform="translate(376.806641 0)" xlink:href="#DejaVuSans-Oblique-101"/>
     </g>
    </g>
   </g>
   <g id="text_53">
    <g clip-path="url(#p2ae6a551f9)">
     <!-- ${q}_{0}$ -->
     <g transform="translate(282.78792 462.813777)scale(0.1625 -0.1625)">
      <use xlink:href="#DejaVuSans-Oblique-113"/>
      <use transform="translate(63.476562 -16.40625)scale(0.7)" xlink:href="#DejaVuSans-48"/>
     </g>
    </g>
   </g>
   <g id="text_54">
    <g clip-path="url(#p2ae6a551f9)">
     <!-- ${q}_{1}$ -->
     <g transform="translate(282.78792 509.167777)scale(0.1625 -0.1625)">
      <use xlink:href="#DejaVuSans-Oblique-113"/>
      <use transform="translate(63.476562 -16.40625)scale(0.7)" xlink:href="#DejaVuSans-49"/>
     </g>
    </g>
   </g>
   <g id="text_55">
    <g clip-path="url(#p2ae6a551f9)">
     <!-- ${q}_{2}$ -->
     <g transform="translate(282.78792 555.521777)scale(0.1625 -0.1625)">
      <use xlink:href="#DejaVuSans-Oblique-113"/>
      <use transform="translate(63.476562 -16.40625)scale(0.7)" xlink:href="#DejaVuSans-50"/>
     </g>
    </g>
   </g>
   <g id="text_56">
    <g clip-path="url(#p2ae6a551f9)">
     <!-- ${q}_{3}$ -->
     <g transform="translate(282.78792 601.875777)scale(0.1625 -0.1625)">
      <use xlink:href="#DejaVuSans-Oblique-113"/>
      <use transform="translate(63.476562 -16.40625)scale(0.7)" xlink:href="#DejaVuSans-51"/>
     </g>
    </g>
   </g>
   <g id="text_57">
    <g clip-path="url(#p2ae6a551f9)">
     <!-- ${q}_{4}$ -->
     <g transform="translate(282.78792 648.229777)scale(0.1625 -0.1625)">
      <use xlink:href="#DejaVuSans-Oblique-113"/>
      <use transform="translate(63.476562 -16.40625)scale(0.7)" xlink:href="#DejaVuSans-52"/>
     </g>
    </g>
   </g>
   <g id="text_58">
    <g clip-path="url(#p2ae6a551f9)">
     <!-- 5 -->
     <g transform="translate(347.17942 683.334525)scale(0.104 -0.104)">
      <use xlink:href="#DejaVuSans-53"/>
     </g>
    </g>
   </g>
   <g id="text_59">
    <g clip-path="url(#p2ae6a551f9)">
     <!-- $measure$ -->
     <g transform="translate(215.22042 695.513581)scale(0.195 -0.195)">
      <use xlink:href="#DejaVuSans-Oblique-109"/>
      <use transform="translate(97.412109 0)" xlink:href="#DejaVuSans-Oblique-101"/>
      <use transform="translate(158.935547 0)" xlink:href="#DejaVuSans-Oblique-97"/>
      <use transform="translate(220.214844 0)" xlink:href="#DejaVuSans-Oblique-115"/>
      <use transform="translate(272.314453 0)" xlink:href="#DejaVuSans-Oblique-117"/>
      <use transform="translate(335.693359 0)" xlink:href="#DejaVuSans-Oblique-114"/>
      <use transform="translate(376.806641 0)" xlink:href="#DejaVuSans-Oblique-101"/>
     </g>
    </g>
   </g>
  </g>
 </g>
 <defs>
  <clipPath id="p2ae6a551f9">
   <rect height="621.1436" width="1296.05784" x="214.60698" y="96.8016"/>
  </clipPath>
 </defs>
</svg>
