<?xml version="1.0" encoding="utf-8" standalone="no"?>
<!DOCTYPE svg PUBLIC "-//W3C//DTD SVG 1.1//EN"
  "http://www.w3.org/Graphics/SVG/1.1/DTD/svg11.dtd">
<!-- Created with matplotlib (https://matplotlib.org/) -->
<svg height="325.08pt" version="1.1" viewBox="0 0 960.792 325.08" width="960.792pt" xmlns="http://www.w3.org/2000/svg" xmlns:xlink="http://www.w3.org/1999/xlink">
 <defs>
  <style type="text/css">
*{stroke-linecap:butt;stroke-linejoin:round;}
  </style>
 </defs>
 <g id="figure_1">
  <g id="patch_1">
   <path d="M 0 325.08 
L 960.792 325.08 
L 960.792 0 
L 0 0 
z
" style="fill:#ffffff;"/>
  </g>
  <g id="axes_1">
   <g id="patch_2">
    <path clip-path="url(#p3ef7fd8db9)" d="M 666.2334 250.963265 
L 678.28544 250.963265 
L 672.25942 261.5088 
z
" style="fill:#778899;"/>
   </g>
   <g id="patch_3">
    <path clip-path="url(#p3ef7fd8db9)" d="M 712.5874 250.963265 
L 724.63944 250.963265 
L 718.61342 261.5088 
z
" style="fill:#778899;"/>
   </g>
   <g id="patch_4">
    <path clip-path="url(#p3ef7fd8db9)" d="M 758.9414 250.963265 
L 770.99344 250.963265 
L 764.96742 261.5088 
z
" style="fill:#778899;"/>
   </g>
   <g id="patch_5">
    <path clip-path="url(#p3ef7fd8db9)" d="M 805.2954 250.963265 
L 817.34744 250.963265 
L 811.32142 261.5088 
z
" style="fill:#778899;"/>
   </g>
   <g id="line2d_1">
    <path clip-path="url(#p3ef7fd8db9)" d="M 231.89642 76.0928 
L 857.67542 76.0928 
" style="fill:none;stroke:#000000;stroke-linecap:square;stroke-width:2;"/>
   </g>
   <g id="line2d_2">
    <path clip-path="url(#p3ef7fd8db9)" d="M 231.89642 122.4468 
L 857.67542 122.4468 
" style="fill:none;stroke:#000000;stroke-linecap:square;stroke-width:2;"/>
   </g>
   <g id="line2d_3">
    <path clip-path="url(#p3ef7fd8db9)" d="M 231.89642 168.8008 
L 857.67542 168.8008 
" style="fill:none;stroke:#000000;stroke-linecap:square;stroke-width:2;"/>
   </g>
   <g id="line2d_4">
    <path clip-path="url(#p3ef7fd8db9)" d="M 231.89642 215.1548 
L 857.67542 215.1548 
" style="fill:none;stroke:#000000;stroke-linecap:square;stroke-width:2;"/>
   </g>
   <g id="line2d_5">
    <path clip-path="url(#p3ef7fd8db9)" d="M 231.89642 260.002295 
L 857.67542 260.002295 
" style="fill:none;stroke:#778899;stroke-linecap:square;stroke-width:2;"/>
   </g>
   <g id="line2d_6">
    <path clip-path="url(#p3ef7fd8db9)" d="M 231.89642 263.015305 
L 857.67542 263.015305 
" style="fill:none;stroke:#778899;stroke-linecap:square;stroke-width:2;"/>
   </g>
   <g id="patch_6">
    <path clip-path="url(#p3ef7fd8db9)" d="M 292.38839 238.3318 
L 310.46645 238.3318 
L 310.46645 52.9158 
L 292.38839 52.9158 
z
" style="fill:#bdbdbd;opacity:0.6;"/>
   </g>
   <g id="patch_7">
    <path clip-path="url(#p3ef7fd8db9)" d="M 524.15839 238.3318 
L 542.23645 238.3318 
L 542.23645 52.9158 
L 524.15839 52.9158 
z
" style="fill:#bdbdbd;opacity:0.6;"/>
   </g>
   <g id="patch_8">
    <path clip-path="url(#p3ef7fd8db9)" d="M 616.86639 238.3318 
L 634.94445 238.3318 
L 634.94445 52.9158 
L 616.86639 52.9158 
z
" style="fill:#bdbdbd;opacity:0.6;"/>
   </g>
   <g id="line2d_7">
    <path clip-path="url(#p3ef7fd8db9)" d="M 347.78142 168.8008 
L 347.78142 76.0928 
" style="fill:none;stroke:#6fa4ff;stroke-linecap:square;stroke-width:2;"/>
   </g>
   <g id="line2d_8">
    <path clip-path="url(#p3ef7fd8db9)" d="M 394.13542 215.1548 
L 394.13542 122.4468 
" style="fill:none;stroke:#6fa4ff;stroke-linecap:square;stroke-width:2;"/>
   </g>
   <g id="line2d_9">
    <path clip-path="url(#p3ef7fd8db9)" d="M 440.48942 168.8008 
L 440.48942 76.0928 
" style="fill:none;stroke:#6fa4ff;stroke-linecap:square;stroke-width:2;"/>
   </g>
   <g id="line2d_10">
    <path clip-path="url(#p3ef7fd8db9)" d="M 486.84342 215.1548 
L 486.84342 76.0928 
" style="fill:none;stroke:#6fa4ff;stroke-linecap:square;stroke-width:2;"/>
   </g>
   <g id="line2d_11">
    <path clip-path="url(#p3ef7fd8db9)" d="M 673.765925 76.0928 
L 673.765925 250.963265 
" style="fill:none;stroke:#778899;stroke-linecap:square;stroke-width:2;"/>
   </g>
   <g id="line2d_12">
    <path clip-path="url(#p3ef7fd8db9)" d="M 670.752915 76.0928 
L 670.752915 250.963265 
" style="fill:none;stroke:#778899;stroke-linecap:square;stroke-width:2;"/>
   </g>
   <g id="line2d_13">
    <path clip-path="url(#p3ef7fd8db9)" d="M 720.119925 122.4468 
L 720.119925 250.963265 
" style="fill:none;stroke:#778899;stroke-linecap:square;stroke-width:2;"/>
   </g>
   <g id="line2d_14">
    <path clip-path="url(#p3ef7fd8db9)" d="M 717.106915 122.4468 
L 717.106915 250.963265 
" style="fill:none;stroke:#778899;stroke-linecap:square;stroke-width:2;"/>
   </g>
   <g id="line2d_15">
    <path clip-path="url(#p3ef7fd8db9)" d="M 766.473925 168.8008 
L 766.473925 250.963265 
" style="fill:none;stroke:#778899;stroke-linecap:square;stroke-width:2;"/>
   </g>
   <g id="line2d_16">
    <path clip-path="url(#p3ef7fd8db9)" d="M 763.460915 168.8008 
L 763.460915 250.963265 
" style="fill:none;stroke:#778899;stroke-linecap:square;stroke-width:2;"/>
   </g>
   <g id="line2d_17">
    <path clip-path="url(#p3ef7fd8db9)" d="M 812.827925 215.1548 
L 812.827925 250.963265 
" style="fill:none;stroke:#778899;stroke-linecap:square;stroke-width:2;"/>
   </g>
   <g id="line2d_18">
    <path clip-path="url(#p3ef7fd8db9)" d="M 809.814915 215.1548 
L 809.814915 250.963265 
" style="fill:none;stroke:#778899;stroke-linecap:square;stroke-width:2;"/>
   </g>
   <g id="line2d_19">
    <path clip-path="url(#p3ef7fd8db9)" d="M 259.70882 266.1442 
L 264.34422 256.8734 
" style="fill:none;stroke:#778899;stroke-linecap:square;stroke-width:1.5;"/>
   </g>
   <g id="patch_9">
    <path clip-path="url(#p3ef7fd8db9)" d="M 240.00837 91.15785 
L 270.13847 91.15785 
L 270.13847 61.02775 
L 240.00837 61.02775 
z
" style="fill:#6fa4ff;"/>
   </g>
   <g id="patch_10">
    <path clip-path="url(#p3ef7fd8db9)" d="M 240.00837 137.51185 
L 270.13847 137.51185 
L 270.13847 107.38175 
L 240.00837 107.38175 
z
" style="fill:#6fa4ff;"/>
   </g>
   <g id="patch_11">
    <path clip-path="url(#p3ef7fd8db9)" d="M 347.78142 80.612315 
C 348.980009 80.612315 350.129669 80.13611 350.9772 79.28858 
C 351.82473 78.441049 352.300935 77.291389 352.300935 76.0928 
C 352.300935 74.894211 351.82473 73.744551 350.9772 72.89702 
C 350.129669 72.04949 348.980009 71.573285 347.78142 71.573285 
C 346.582831 71.573285 345.433171 72.04949 344.58564 72.89702 
C 343.73811 73.744551 343.261905 74.894211 343.261905 76.0928 
C 343.261905 77.291389 343.73811 78.441049 344.58564 79.28858 
C 345.433171 80.13611 346.582831 80.612315 347.78142 80.612315 
z
" style="fill:#6fa4ff;stroke:#6fa4ff;stroke-linejoin:miter;stroke-width:1.5;"/>
   </g>
   <g id="patch_12">
    <path clip-path="url(#p3ef7fd8db9)" d="M 347.78142 179.346335 
C 350.578129 179.346335 353.260668 178.235191 355.238239 176.257619 
C 357.215811 174.280048 358.326955 171.597509 358.326955 168.8008 
C 358.326955 166.004091 357.215811 163.321552 355.238239 161.343981 
C 353.260668 159.366409 350.578129 158.255265 347.78142 158.255265 
C 344.984711 158.255265 342.302172 159.366409 340.324601 161.343981 
C 338.347029 163.321552 337.235885 166.004091 337.235885 168.8008 
C 337.235885 171.597509 338.347029 174.280048 340.324601 176.257619 
C 342.302172 178.235191 344.984711 179.346335 347.78142 179.346335 
z
" style="fill:#6fa4ff;stroke:#6fa4ff;stroke-linejoin:miter;stroke-width:2;"/>
   </g>
   <g id="patch_13">
    <path clip-path="url(#p3ef7fd8db9)" d="M 394.13542 126.966315 
C 395.334009 126.966315 396.483669 126.49011 397.3312 125.64258 
C 398.17873 124.795049 398.654935 123.645389 398.654935 122.4468 
C 398.654935 121.248211 398.17873 120.098551 397.3312 119.25102 
C 396.483669 118.40349 395.334009 117.927285 394.13542 117.927285 
C 392.936831 117.927285 391.787171 118.40349 390.93964 119.25102 
C 390.09211 120.098551 389.615905 121.248211 389.615905 122.4468 
C 389.615905 123.645389 390.09211 124.795049 390.93964 125.64258 
C 391.787171 126.49011 392.936831 126.966315 394.13542 126.966315 
z
" style="fill:#6fa4ff;stroke:#6fa4ff;stroke-linejoin:miter;stroke-width:1.5;"/>
   </g>
   <g id="patch_14">
    <path clip-path="url(#p3ef7fd8db9)" d="M 394.13542 225.700335 
C 396.932129 225.700335 399.614668 224.589191 401.592239 222.611619 
C 403.569811 220.634048 404.680955 217.951509 404.680955 215.1548 
C 404.680955 212.358091 403.569811 209.675552 401.592239 207.697981 
C 399.614668 205.720409 396.932129 204.609265 394.13542 204.609265 
C 391.338711 204.609265 388.656172 205.720409 386.678601 207.697981 
C 384.701029 209.675552 383.589885 212.358091 383.589885 215.1548 
C 383.589885 217.951509 384.701029 220.634048 386.678601 222.611619 
C 388.656172 224.589191 391.338711 225.700335 394.13542 225.700335 
z
" style="fill:#6fa4ff;stroke:#6fa4ff;stroke-linejoin:miter;stroke-width:2;"/>
   </g>
   <g id="patch_15">
    <path clip-path="url(#p3ef7fd8db9)" d="M 440.48942 80.612315 
C 441.688009 80.612315 442.837669 80.13611 443.6852 79.28858 
C 444.53273 78.441049 445.008935 77.291389 445.008935 76.0928 
C 445.008935 74.894211 444.53273 73.744551 443.6852 72.89702 
C 442.837669 72.04949 441.688009 71.573285 440.48942 71.573285 
C 439.290831 71.573285 438.141171 72.04949 437.29364 72.89702 
C 436.44611 73.744551 435.969905 74.894211 435.969905 76.0928 
C 435.969905 77.291389 436.44611 78.441049 437.29364 79.28858 
C 438.141171 80.13611 439.290831 80.612315 440.48942 80.612315 
z
" style="fill:#6fa4ff;stroke:#6fa4ff;stroke-linejoin:miter;stroke-width:1.5;"/>
   </g>
   <g id="patch_16">
    <path clip-path="url(#p3ef7fd8db9)" d="M 440.48942 179.346335 
C 443.286129 179.346335 445.968668 178.235191 447.946239 176.257619 
C 449.923811 174.280048 451.034955 171.597509 451.034955 168.8008 
C 451.034955 166.004091 449.923811 163.321552 447.946239 161.343981 
C 445.968668 159.366409 443.286129 158.255265 440.48942 158.255265 
C 437.692711 158.255265 435.010172 159.366409 433.032601 161.343981 
C 431.055029 163.321552 429.943885 166.004091 429.943885 168.8008 
C 429.943885 171.597509 431.055029 174.280048 433.032601 176.257619 
C 435.010172 178.235191 437.692711 179.346335 440.48942 179.346335 
z
" style="fill:#6fa4ff;stroke:#6fa4ff;stroke-linejoin:miter;stroke-width:2;"/>
   </g>
   <g id="patch_17">
    <path clip-path="url(#p3ef7fd8db9)" d="M 486.84342 80.612315 
C 488.042009 80.612315 489.191669 80.13611 490.0392 79.28858 
C 490.88673 78.441049 491.362935 77.291389 491.362935 76.0928 
C 491.362935 74.894211 490.88673 73.744551 490.0392 72.89702 
C 489.191669 72.04949 488.042009 71.573285 486.84342 71.573285 
C 485.644831 71.573285 484.495171 72.04949 483.64764 72.89702 
C 482.80011 73.744551 482.323905 74.894211 482.323905 76.0928 
C 482.323905 77.291389 482.80011 78.441049 483.64764 79.28858 
C 484.495171 80.13611 485.644831 80.612315 486.84342 80.612315 
z
" style="fill:#6fa4ff;stroke:#6fa4ff;stroke-linejoin:miter;stroke-width:1.5;"/>
   </g>
   <g id="patch_18">
    <path clip-path="url(#p3ef7fd8db9)" d="M 486.84342 225.700335 
C 489.640129 225.700335 492.322668 224.589191 494.300239 222.611619 
C 496.277811 220.634048 497.388955 217.951509 497.388955 215.1548 
C 497.388955 212.358091 496.277811 209.675552 494.300239 207.697981 
C 492.322668 205.720409 489.640129 204.609265 486.84342 204.609265 
C 484.046711 204.609265 481.364172 205.720409 479.386601 207.697981 
C 477.409029 209.675552 476.297885 212.358091 476.297885 215.1548 
C 476.297885 217.951509 477.409029 220.634048 479.386601 222.611619 
C 481.364172 224.589191 484.046711 225.700335 486.84342 225.700335 
z
" style="fill:#6fa4ff;stroke:#6fa4ff;stroke-linejoin:miter;stroke-width:2;"/>
   </g>
   <g id="patch_19">
    <path clip-path="url(#p3ef7fd8db9)" d="M 564.48637 91.15785 
L 594.61647 91.15785 
L 594.61647 61.02775 
L 564.48637 61.02775 
z
" style="fill:#6fa4ff;"/>
   </g>
   <g id="patch_20">
    <path clip-path="url(#p3ef7fd8db9)" d="M 564.48637 137.51185 
L 594.61647 137.51185 
L 594.61647 107.38175 
L 564.48637 107.38175 
z
" style="fill:#6fa4ff;"/>
   </g>
   <g id="patch_21">
    <path clip-path="url(#p3ef7fd8db9)" d="M 657.19437 91.15785 
L 687.32447 91.15785 
L 687.32447 61.02775 
L 657.19437 61.02775 
z
"/>
   </g>
   <g id="patch_22">
    <path clip-path="url(#p3ef7fd8db9)" d="M 682.804955 80.612315 
C 682.804955 77.816538 681.693152 75.132409 679.716239 73.155496 
C 677.739326 71.178583 675.055197 70.06678 672.25942 70.06678 
C 669.463643 70.06678 666.779514 71.178583 664.802601 73.155496 
C 662.825688 75.132409 661.713885 77.816538 661.713885 80.612315 
" style="fill:none;stroke:#ffffff;stroke-linejoin:miter;stroke-width:2;"/>
   </g>
   <g id="patch_23">
    <path clip-path="url(#p3ef7fd8db9)" d="M 703.54837 137.51185 
L 733.67847 137.51185 
L 733.67847 107.38175 
L 703.54837 107.38175 
z
"/>
   </g>
   <g id="patch_24">
    <path clip-path="url(#p3ef7fd8db9)" d="M 729.158955 126.966315 
C 729.158955 124.170538 728.047152 121.486409 726.070239 119.509496 
C 724.093326 117.532583 721.409197 116.42078 718.61342 116.42078 
C 715.817643 116.42078 713.133514 117.532583 711.156601 119.509496 
C 709.179688 121.486409 708.067885 124.170538 708.067885 126.966315 
" style="fill:none;stroke:#ffffff;stroke-linejoin:miter;stroke-width:2;"/>
   </g>
   <g id="patch_25">
    <path clip-path="url(#p3ef7fd8db9)" d="M 749.90237 183.86585 
L 780.03247 183.86585 
L 780.03247 153.73575 
L 749.90237 153.73575 
z
"/>
   </g>
   <g id="patch_26">
    <path clip-path="url(#p3ef7fd8db9)" d="M 775.512955 173.320315 
C 775.512955 170.524538 774.401152 167.840409 772.424239 165.863496 
C 770.447326 163.886583 767.763197 162.77478 764.96742 162.77478 
C 762.171643 162.77478 759.487514 163.886583 757.510601 165.863496 
C 755.533688 167.840409 754.421885 170.524538 754.421885 173.320315 
" style="fill:none;stroke:#ffffff;stroke-linejoin:miter;stroke-width:2;"/>
   </g>
   <g id="patch_27">
    <path clip-path="url(#p3ef7fd8db9)" d="M 796.25637 230.21985 
L 826.38647 230.21985 
L 826.38647 200.08975 
L 796.25637 200.08975 
z
"/>
   </g>
   <g id="patch_28">
    <path clip-path="url(#p3ef7fd8db9)" d="M 821.866955 219.674315 
C 821.866955 216.878538 820.755152 214.194409 818.778239 212.217496 
C 816.801326 210.240583 814.117197 209.12878 811.32142 209.12878 
C 808.525643 209.12878 805.841514 210.240583 803.864601 212.217496 
C 801.887688 214.194409 800.775885 216.878538 800.775885 219.674315 
" style="fill:none;stroke:#ffffff;stroke-linejoin:miter;stroke-width:2;"/>
   </g>
   <g id="line2d_20">
    <path clip-path="url(#p3ef7fd8db9)" d="M 672.25942 80.612315 
L 682.804955 70.06678 
" style="fill:none;stroke:#ffffff;stroke-linecap:square;stroke-width:2;"/>
   </g>
   <g id="line2d_21">
    <path clip-path="url(#p3ef7fd8db9)" d="M 718.61342 126.966315 
L 729.158955 116.42078 
" style="fill:none;stroke:#ffffff;stroke-linecap:square;stroke-width:2;"/>
   </g>
   <g id="line2d_22">
    <path clip-path="url(#p3ef7fd8db9)" d="M 764.96742 173.320315 
L 775.512955 162.77478 
" style="fill:none;stroke:#ffffff;stroke-linecap:square;stroke-width:2;"/>
   </g>
   <g id="line2d_23">
    <path clip-path="url(#p3ef7fd8db9)" d="M 811.32142 219.674315 
L 821.866955 209.12878 
" style="fill:none;stroke:#ffffff;stroke-linecap:square;stroke-width:2;"/>
   </g>
   <g id="line2d_24">
    <path clip-path="url(#p3ef7fd8db9)" d="M 301.42742 52.9158 
L 301.42742 99.2698 
" style="fill:none;stroke:#000000;stroke-dasharray:3.7,1.6;stroke-dashoffset:0;"/>
   </g>
   <g id="line2d_25">
    <path clip-path="url(#p3ef7fd8db9)" d="M 301.42742 99.2698 
L 301.42742 145.6238 
" style="fill:none;stroke:#000000;stroke-dasharray:3.7,1.6;stroke-dashoffset:0;"/>
   </g>
   <g id="line2d_26">
    <path clip-path="url(#p3ef7fd8db9)" d="M 301.42742 145.6238 
L 301.42742 191.9778 
" style="fill:none;stroke:#000000;stroke-dasharray:3.7,1.6;stroke-dashoffset:0;"/>
   </g>
   <g id="line2d_27">
    <path clip-path="url(#p3ef7fd8db9)" d="M 301.42742 191.9778 
L 301.42742 238.3318 
" style="fill:none;stroke:#000000;stroke-dasharray:3.7,1.6;stroke-dashoffset:0;"/>
   </g>
   <g id="line2d_28">
    <path clip-path="url(#p3ef7fd8db9)" d="M 347.78142 174.82682 
L 347.78142 162.77478 
" style="fill:none;stroke:#ffffff;stroke-linecap:square;stroke-width:2;"/>
   </g>
   <g id="line2d_29">
    <path clip-path="url(#p3ef7fd8db9)" d="M 341.7554 168.8008 
L 353.80744 168.8008 
" style="fill:none;stroke:#ffffff;stroke-linecap:square;stroke-width:2;"/>
   </g>
   <g id="line2d_30">
    <path clip-path="url(#p3ef7fd8db9)" d="M 394.13542 221.18082 
L 394.13542 209.12878 
" style="fill:none;stroke:#ffffff;stroke-linecap:square;stroke-width:2;"/>
   </g>
   <g id="line2d_31">
    <path clip-path="url(#p3ef7fd8db9)" d="M 388.1094 215.1548 
L 400.16144 215.1548 
" style="fill:none;stroke:#ffffff;stroke-linecap:square;stroke-width:2;"/>
   </g>
   <g id="line2d_32">
    <path clip-path="url(#p3ef7fd8db9)" d="M 440.48942 174.82682 
L 440.48942 162.77478 
" style="fill:none;stroke:#ffffff;stroke-linecap:square;stroke-width:2;"/>
   </g>
   <g id="line2d_33">
    <path clip-path="url(#p3ef7fd8db9)" d="M 434.4634 168.8008 
L 446.51544 168.8008 
" style="fill:none;stroke:#ffffff;stroke-linecap:square;stroke-width:2;"/>
   </g>
   <g id="line2d_34">
    <path clip-path="url(#p3ef7fd8db9)" d="M 486.84342 221.18082 
L 486.84342 209.12878 
" style="fill:none;stroke:#ffffff;stroke-linecap:square;stroke-width:2;"/>
   </g>
   <g id="line2d_35">
    <path clip-path="url(#p3ef7fd8db9)" d="M 480.8174 215.1548 
L 492.86944 215.1548 
" style="fill:none;stroke:#ffffff;stroke-linecap:square;stroke-width:2;"/>
   </g>
   <g id="line2d_36">
    <path clip-path="url(#p3ef7fd8db9)" d="M 533.19742 52.9158 
L 533.19742 99.2698 
" style="fill:none;stroke:#000000;stroke-dasharray:3.7,1.6;stroke-dashoffset:0;"/>
   </g>
   <g id="line2d_37">
    <path clip-path="url(#p3ef7fd8db9)" d="M 533.19742 99.2698 
L 533.19742 145.6238 
" style="fill:none;stroke:#000000;stroke-dasharray:3.7,1.6;stroke-dashoffset:0;"/>
   </g>
   <g id="line2d_38">
    <path clip-path="url(#p3ef7fd8db9)" d="M 533.19742 145.6238 
L 533.19742 191.9778 
" style="fill:none;stroke:#000000;stroke-dasharray:3.7,1.6;stroke-dashoffset:0;"/>
   </g>
   <g id="line2d_39">
    <path clip-path="url(#p3ef7fd8db9)" d="M 533.19742 191.9778 
L 533.19742 238.3318 
" style="fill:none;stroke:#000000;stroke-dasharray:3.7,1.6;stroke-dashoffset:0;"/>
   </g>
   <g id="line2d_40">
    <path clip-path="url(#p3ef7fd8db9)" d="M 625.90542 52.9158 
L 625.90542 99.2698 
" style="fill:none;stroke:#000000;stroke-dasharray:3.7,1.6;stroke-dashoffset:0;"/>
   </g>
   <g id="line2d_41">
    <path clip-path="url(#p3ef7fd8db9)" d="M 625.90542 99.2698 
L 625.90542 145.6238 
" style="fill:none;stroke:#000000;stroke-dasharray:3.7,1.6;stroke-dashoffset:0;"/>
   </g>
   <g id="line2d_42">
    <path clip-path="url(#p3ef7fd8db9)" d="M 625.90542 145.6238 
L 625.90542 191.9778 
" style="fill:none;stroke:#000000;stroke-dasharray:3.7,1.6;stroke-dashoffset:0;"/>
   </g>
   <g id="line2d_43">
    <path clip-path="url(#p3ef7fd8db9)" d="M 625.90542 191.9778 
L 625.90542 238.3318 
" style="fill:none;stroke:#000000;stroke-dasharray:3.7,1.6;stroke-dashoffset:0;"/>
   </g>
   <g id="text_1">
    <g clip-path="url(#p3ef7fd8db9)">
     <!-- $H$ -->
     <defs>
      <path d="M 16.890625 72.90625 
L 26.8125 72.90625 
L 21 43.015625 
L 56.78125 43.015625 
L 62.59375 72.90625 
L 72.515625 72.90625 
L 58.296875 0 
L 48.390625 0 
L 55.171875 34.71875 
L 19.390625 34.71875 
L 12.59375 0 
L 2.6875 0 
z
" id="DejaVuSans-Oblique-72"/>
     </defs>
     <g transform="translate(250.13342 79.679987)scale(0.13 -0.13)">
      <use transform="translate(0 0.09375)" xlink:href="#DejaVuSans-Oblique-72"/>
     </g>
    </g>
   </g>
   <g id="text_2">
    <g clip-path="url(#p3ef7fd8db9)">
     <!-- $H$ -->
     <g transform="translate(250.13342 126.033987)scale(0.13 -0.13)">
      <use transform="translate(0 0.09375)" xlink:href="#DejaVuSans-Oblique-72"/>
     </g>
    </g>
   </g>
   <g id="text_3">
    <g clip-path="url(#p3ef7fd8db9)">
     <!-- $H$ -->
     <g transform="translate(574.61142 79.679987)scale(0.13 -0.13)">
      <use transform="translate(0 0.09375)" xlink:href="#DejaVuSans-Oblique-72"/>
     </g>
    </g>
   </g>
   <g id="text_4">
    <g clip-path="url(#p3ef7fd8db9)">
     <!-- $H$ -->
     <g transform="translate(574.61142 126.033987)scale(0.13 -0.13)">
      <use transform="translate(0 0.09375)" xlink:href="#DejaVuSans-Oblique-72"/>
     </g>
    </g>
   </g>
   <g id="text_5">
    <g clip-path="url(#p3ef7fd8db9)">
     <!-- 0 -->
     <defs>
      <path d="M 31.78125 66.40625 
Q 24.171875 66.40625 20.328125 58.90625 
Q 16.5 51.421875 16.5 36.375 
Q 16.5 21.390625 20.328125 13.890625 
Q 24.171875 6.390625 31.78125 6.390625 
Q 39.453125 6.390625 43.28125 13.890625 
Q 47.125 21.390625 47.125 36.375 
Q 47.125 51.421875 43.28125 58.90625 
Q 39.453125 66.40625 31.78125 66.40625 
z
M 31.78125 74.21875 
Q 44.046875 74.21875 50.515625 64.515625 
Q 56.984375 54.828125 56.984375 36.375 
Q 56.984375 17.96875 50.515625 8.265625 
Q 44.046875 -1.421875 31.78125 -1.421875 
Q 19.53125 -1.421875 13.0625 8.265625 
Q 6.59375 17.96875 6.59375 36.375 
Q 6.59375 54.828125 13.0625 64.515625 
Q 19.53125 74.21875 31.78125 74.21875 
z
" id="DejaVuSans-48"/>
     </defs>
     <g transform="translate(683.84792 254.710525)scale(0.104 -0.104)">
      <use xlink:href="#DejaVuSans-48"/>
     </g>
    </g>
   </g>
   <g id="text_6">
    <g clip-path="url(#p3ef7fd8db9)">
     <!-- 1 -->
     <defs>
      <path d="M 12.40625 8.296875 
L 28.515625 8.296875 
L 28.515625 63.921875 
L 10.984375 60.40625 
L 10.984375 69.390625 
L 28.421875 72.90625 
L 38.28125 72.90625 
L 38.28125 8.296875 
L 54.390625 8.296875 
L 54.390625 0 
L 12.40625 0 
z
" id="DejaVuSans-49"/>
     </defs>
     <g transform="translate(730.20192 254.710525)scale(0.104 -0.104)">
      <use xlink:href="#DejaVuSans-49"/>
     </g>
    </g>
   </g>
   <g id="text_7">
    <g clip-path="url(#p3ef7fd8db9)">
     <!-- 2 -->
     <defs>
      <path d="M 19.1875 8.296875 
L 53.609375 8.296875 
L 53.609375 0 
L 7.328125 0 
L 7.328125 8.296875 
Q 12.9375 14.109375 22.625 23.890625 
Q 32.328125 33.6875 34.8125 36.53125 
Q 39.546875 41.84375 41.421875 45.53125 
Q 43.3125 49.21875 43.3125 52.78125 
Q 43.3125 58.59375 39.234375 62.25 
Q 35.15625 65.921875 28.609375 65.921875 
Q 23.96875 65.921875 18.8125 64.3125 
Q 13.671875 62.703125 7.8125 59.421875 
L 7.8125 69.390625 
Q 13.765625 71.78125 18.9375 73 
Q 24.125 74.21875 28.421875 74.21875 
Q 39.75 74.21875 46.484375 68.546875 
Q 53.21875 62.890625 53.21875 53.421875 
Q 53.21875 48.921875 51.53125 44.890625 
Q 49.859375 40.875 45.40625 35.40625 
Q 44.1875 33.984375 37.640625 27.21875 
Q 31.109375 20.453125 19.1875 8.296875 
z
" id="DejaVuSans-50"/>
     </defs>
     <g transform="translate(776.55592 254.710525)scale(0.104 -0.104)">
      <use xlink:href="#DejaVuSans-50"/>
     </g>
    </g>
   </g>
   <g id="text_8">
    <g clip-path="url(#p3ef7fd8db9)">
     <!-- 3 -->
     <defs>
      <path d="M 40.578125 39.3125 
Q 47.65625 37.796875 51.625 33 
Q 55.609375 28.21875 55.609375 21.1875 
Q 55.609375 10.40625 48.1875 4.484375 
Q 40.765625 -1.421875 27.09375 -1.421875 
Q 22.515625 -1.421875 17.65625 -0.515625 
Q 12.796875 0.390625 7.625 2.203125 
L 7.625 11.71875 
Q 11.71875 9.328125 16.59375 8.109375 
Q 21.484375 6.890625 26.8125 6.890625 
Q 36.078125 6.890625 40.9375 10.546875 
Q 45.796875 14.203125 45.796875 21.1875 
Q 45.796875 27.640625 41.28125 31.265625 
Q 36.765625 34.90625 28.71875 34.90625 
L 20.21875 34.90625 
L 20.21875 43.015625 
L 29.109375 43.015625 
Q 36.375 43.015625 40.234375 45.921875 
Q 44.09375 48.828125 44.09375 54.296875 
Q 44.09375 59.90625 40.109375 62.90625 
Q 36.140625 65.921875 28.71875 65.921875 
Q 24.65625 65.921875 20.015625 65.03125 
Q 15.375 64.15625 9.8125 62.3125 
L 9.8125 71.09375 
Q 15.4375 72.65625 20.34375 73.4375 
Q 25.25 74.21875 29.59375 74.21875 
Q 40.828125 74.21875 47.359375 69.109375 
Q 53.90625 64.015625 53.90625 55.328125 
Q 53.90625 49.265625 50.4375 45.09375 
Q 46.96875 40.921875 40.578125 39.3125 
z
" id="DejaVuSans-51"/>
     </defs>
     <g transform="translate(822.90992 254.710525)scale(0.104 -0.104)">
      <use xlink:href="#DejaVuSans-51"/>
     </g>
    </g>
   </g>
   <g id="text_9">
    <g clip-path="url(#p3ef7fd8db9)">
     <!-- ${q}_{0}$ -->
     <defs>
      <path d="M 41.703125 8.203125 
Q 38.09375 3.46875 33.171875 1.015625 
Q 28.265625 -1.421875 22.3125 -1.421875 
Q 14.015625 -1.421875 9.296875 4.171875 
Q 4.59375 9.765625 4.59375 19.578125 
Q 4.59375 27.484375 7.5 34.859375 
Q 10.40625 42.234375 15.828125 48.09375 
Q 19.34375 51.90625 23.90625 53.953125 
Q 28.46875 56 33.5 56 
Q 39.546875 56 43.453125 53.609375 
Q 47.359375 51.21875 49.125 46.390625 
L 50.6875 54.59375 
L 59.71875 54.59375 
L 45.125 -20.609375 
L 36.078125 -20.609375 
z
M 13.921875 20.90625 
Q 13.921875 13.671875 16.9375 9.890625 
Q 19.96875 6.109375 25.6875 6.109375 
Q 34.1875 6.109375 40.1875 14.234375 
Q 46.1875 22.359375 46.1875 33.984375 
Q 46.1875 41.015625 43.078125 44.75 
Q 39.984375 48.484375 34.1875 48.484375 
Q 29.9375 48.484375 26.3125 46.5 
Q 22.703125 44.53125 20.015625 40.71875 
Q 17.1875 36.71875 15.546875 31.34375 
Q 13.921875 25.984375 13.921875 20.90625 
z
" id="DejaVuSans-Oblique-113"/>
     </defs>
     <g transform="translate(190.68192 80.543777)scale(0.1625 -0.1625)">
      <use xlink:href="#DejaVuSans-Oblique-113"/>
      <use transform="translate(63.476562 -16.40625)scale(0.7)" xlink:href="#DejaVuSans-48"/>
     </g>
    </g>
   </g>
   <g id="text_10">
    <g clip-path="url(#p3ef7fd8db9)">
     <!-- ${q}_{1}$ -->
     <g transform="translate(190.68192 126.897777)scale(0.1625 -0.1625)">
      <use xlink:href="#DejaVuSans-Oblique-113"/>
      <use transform="translate(63.476562 -16.40625)scale(0.7)" xlink:href="#DejaVuSans-49"/>
     </g>
    </g>
   </g>
   <g id="text_11">
    <g clip-path="url(#p3ef7fd8db9)">
     <!-- ${q}_{2}$ -->
     <g transform="translate(190.68192 173.251777)scale(0.1625 -0.1625)">
      <use xlink:href="#DejaVuSans-Oblique-113"/>
      <use transform="translate(63.476562 -16.40625)scale(0.7)" xlink:href="#DejaVuSans-50"/>
     </g>
    </g>
   </g>
   <g id="text_12">
    <g clip-path="url(#p3ef7fd8db9)">
     <!-- ${q}_{3}$ -->
     <g transform="translate(190.68192 219.605777)scale(0.1625 -0.1625)">
      <use xlink:href="#DejaVuSans-Oblique-113"/>
      <use transform="translate(63.476562 -16.40625)scale(0.7)" xlink:href="#DejaVuSans-51"/>
     </g>
    </g>
   </g>
   <g id="text_13">
    <g clip-path="url(#p3ef7fd8db9)">
     <!-- 4 -->
     <defs>
      <path d="M 37.796875 64.3125 
L 12.890625 25.390625 
L 37.796875 25.390625 
z
M 35.203125 72.90625 
L 47.609375 72.90625 
L 47.609375 25.390625 
L 58.015625 25.390625 
L 58.015625 17.1875 
L 47.609375 17.1875 
L 47.609375 0 
L 37.796875 0 
L 37.796875 17.1875 
L 4.890625 17.1875 
L 4.890625 26.703125 
z
" id="DejaVuSans-52"/>
     </defs>
     <g transform="translate(255.07342 254.710525)scale(0.104 -0.104)">
      <use xlink:href="#DejaVuSans-52"/>
     </g>
    </g>
   </g>
   <g id="text_14">
    <g clip-path="url(#p3ef7fd8db9)">
     <!-- $measure$ -->
     <defs>
      <path d="M 89.796875 33.015625 
L 83.40625 0 
L 74.421875 0 
L 80.71875 32.71875 
Q 81.109375 34.8125 81.296875 36.328125 
Q 81.5 37.84375 81.5 38.921875 
Q 81.5 43.3125 79.046875 45.75 
Q 76.609375 48.1875 72.21875 48.1875 
Q 65.671875 48.1875 60.546875 43.28125 
Q 55.421875 38.375 53.90625 30.515625 
L 47.90625 0 
L 38.921875 0 
L 45.3125 32.71875 
Q 45.703125 34.515625 45.890625 36.046875 
Q 46.09375 37.59375 46.09375 38.8125 
Q 46.09375 43.265625 43.65625 45.71875 
Q 41.21875 48.1875 36.921875 48.1875 
Q 30.28125 48.1875 25.140625 43.28125 
Q 20.015625 38.375 18.5 30.515625 
L 12.5 0 
L 3.515625 0 
L 14.203125 54.6875 
L 23.1875 54.6875 
L 21.484375 46.1875 
Q 25.140625 50.984375 30.046875 53.484375 
Q 34.96875 56 40.578125 56 
Q 46.53125 56 50.359375 52.875 
Q 54.203125 49.75 54.984375 44.1875 
Q 59.078125 49.953125 64.46875 52.96875 
Q 69.875 56 75.875 56 
Q 82.90625 56 86.734375 51.953125 
Q 90.578125 47.90625 90.578125 40.484375 
Q 90.578125 38.875 90.375 36.9375 
Q 90.1875 35.015625 89.796875 33.015625 
z
" id="DejaVuSans-Oblique-109"/>
      <path d="M 48.09375 32.234375 
Q 48.25 33.015625 48.3125 33.84375 
Q 48.390625 34.671875 48.390625 35.5 
Q 48.390625 41.453125 44.890625 44.921875 
Q 41.40625 48.390625 35.40625 48.390625 
Q 28.71875 48.390625 23.578125 44.15625 
Q 18.453125 39.9375 15.828125 32.171875 
z
M 55.90625 25.203125 
L 14.109375 25.203125 
Q 13.8125 23.34375 13.71875 22.265625 
Q 13.625 21.1875 13.625 20.40625 
Q 13.625 13.625 17.796875 9.90625 
Q 21.96875 6.203125 29.59375 6.203125 
Q 35.453125 6.203125 40.671875 7.515625 
Q 45.90625 8.84375 50.390625 11.375 
L 48.6875 2.484375 
Q 43.84375 0.53125 38.6875 -0.4375 
Q 33.546875 -1.421875 28.21875 -1.421875 
Q 16.84375 -1.421875 10.71875 4.015625 
Q 4.59375 9.46875 4.59375 19.484375 
Q 4.59375 28.03125 7.640625 35.375 
Q 10.6875 42.71875 16.609375 48.484375 
Q 20.40625 52.09375 25.65625 54.046875 
Q 30.90625 56 36.8125 56 
Q 46.09375 56 51.578125 50.4375 
Q 57.078125 44.875 57.078125 35.5 
Q 57.078125 33.25 56.78125 30.6875 
Q 56.5 28.125 55.90625 25.203125 
z
" id="DejaVuSans-Oblique-101"/>
      <path d="M 53.71875 31.203125 
L 47.609375 0 
L 38.625 0 
L 40.28125 8.296875 
Q 36.328125 3.421875 31.265625 1 
Q 26.21875 -1.421875 20.015625 -1.421875 
Q 13.03125 -1.421875 8.5625 2.84375 
Q 4.109375 7.125 4.109375 13.8125 
Q 4.109375 23.390625 11.75 28.953125 
Q 19.390625 34.515625 32.8125 34.515625 
L 45.3125 34.515625 
L 45.796875 36.921875 
Q 45.90625 37.3125 45.953125 37.765625 
Q 46 38.234375 46 39.203125 
Q 46 43.5625 42.453125 45.96875 
Q 38.921875 48.390625 32.515625 48.390625 
Q 28.125 48.390625 23.5 47.265625 
Q 18.890625 46.140625 14.015625 43.890625 
L 15.578125 52.203125 
Q 20.65625 54.109375 25.515625 55.046875 
Q 30.375 56 34.90625 56 
Q 44.578125 56 49.625 51.796875 
Q 54.6875 47.609375 54.6875 39.59375 
Q 54.6875 37.984375 54.4375 35.8125 
Q 54.203125 33.640625 53.71875 31.203125 
z
M 44 27.484375 
L 35.015625 27.484375 
Q 23.96875 27.484375 18.671875 24.53125 
Q 13.375 21.578125 13.375 15.375 
Q 13.375 11.078125 16.078125 8.640625 
Q 18.796875 6.203125 23.578125 6.203125 
Q 30.90625 6.203125 36.375 11.453125 
Q 41.84375 16.703125 43.609375 25.484375 
z
" id="DejaVuSans-Oblique-97"/>
      <path d="M 50 53.078125 
L 48.296875 44.578125 
Q 44.734375 46.53125 40.765625 47.5 
Q 36.8125 48.484375 32.625 48.484375 
Q 25.53125 48.484375 21.453125 46.0625 
Q 17.390625 43.65625 17.390625 39.5 
Q 17.390625 34.671875 26.859375 32.078125 
Q 27.59375 31.890625 27.9375 31.78125 
L 30.8125 30.90625 
Q 39.796875 28.421875 42.796875 25.6875 
Q 45.796875 22.953125 45.796875 18.21875 
Q 45.796875 9.515625 38.890625 4.046875 
Q 31.984375 -1.421875 20.796875 -1.421875 
Q 16.453125 -1.421875 11.671875 -0.578125 
Q 6.890625 0.25 1.125 2 
L 2.875 11.28125 
Q 7.8125 8.734375 12.59375 7.421875 
Q 17.390625 6.109375 21.78125 6.109375 
Q 28.375 6.109375 32.5 8.9375 
Q 36.625 11.765625 36.625 16.109375 
Q 36.625 20.796875 25.78125 23.6875 
L 24.859375 23.921875 
L 21.78125 24.703125 
Q 14.9375 26.515625 11.765625 29.46875 
Q 8.59375 32.421875 8.59375 37.015625 
Q 8.59375 45.75 15.15625 50.875 
Q 21.734375 56 33.015625 56 
Q 37.453125 56 41.671875 55.265625 
Q 45.90625 54.546875 50 53.078125 
z
" id="DejaVuSans-Oblique-115"/>
      <path d="M 6.6875 21.6875 
L 13.09375 54.6875 
L 22.125 54.6875 
L 15.71875 22.015625 
Q 15.234375 19.625 15.015625 17.921875 
Q 14.796875 16.21875 14.796875 15.09375 
Q 14.796875 10.9375 17.328125 8.65625 
Q 19.875 6.390625 24.515625 6.390625 
Q 31.734375 6.390625 37 11.265625 
Q 42.28125 16.15625 43.890625 24.421875 
L 49.90625 54.6875 
L 58.890625 54.6875 
L 48.296875 0 
L 39.3125 0 
L 41.109375 8.59375 
Q 37.3125 3.8125 32.0625 1.1875 
Q 26.8125 -1.421875 20.90625 -1.421875 
Q 13.71875 -1.421875 9.71875 2.515625 
Q 5.71875 6.453125 5.71875 13.484375 
Q 5.71875 14.9375 5.953125 17.140625 
Q 6.203125 19.34375 6.6875 21.6875 
z
" id="DejaVuSans-Oblique-117"/>
      <path d="M 44.578125 46.390625 
Q 43.21875 47.125 41.453125 47.515625 
Q 39.703125 47.90625 37.703125 47.90625 
Q 30.515625 47.90625 25.140625 42.453125 
Q 19.78125 37.015625 18.015625 27.875 
L 12.5 0 
L 3.515625 0 
L 14.203125 54.6875 
L 23.1875 54.6875 
L 21.484375 46.1875 
Q 25.046875 50.921875 30 53.453125 
Q 34.96875 56 40.578125 56 
Q 42.046875 56 43.453125 55.828125 
Q 44.875 55.671875 46.296875 55.28125 
z
" id="DejaVuSans-Oblique-114"/>
     </defs>
     <g transform="translate(123.11442 266.889581)scale(0.195 -0.195)">
      <use xlink:href="#DejaVuSans-Oblique-109"/>
      <use transform="translate(97.412109 0)" xlink:href="#DejaVuSans-Oblique-101"/>
      <use transform="translate(158.935547 0)" xlink:href="#DejaVuSans-Oblique-97"/>
      <use transform="translate(220.214844 0)" xlink:href="#DejaVuSans-Oblique-115"/>
      <use transform="translate(272.314453 0)" xlink:href="#DejaVuSans-Oblique-117"/>
      <use transform="translate(335.693359 0)" xlink:href="#DejaVuSans-Oblique-114"/>
      <use transform="translate(376.806641 0)" xlink:href="#DejaVuSans-Oblique-101"/>
     </g>
    </g>
   </g>
  </g>
 </g>
 <defs>
  <clipPath id="p3ef7fd8db9">
   <rect height="250.3116" width="739.80984" x="122.50098" y="39.0096"/>
  </clipPath>
 </defs>
</svg>
